<svg width="692" height="138" xmlns="http://www.w3.org/2000/svg" xmlns:xlink="http://www.w3.org/1999/xlink" xml:space="preserve" overflow="hidden"><g transform="translate(-692 -861)"><g><path d="M818.773 928.826 817.598 930 818.773 931.174C833.743 946.145 833.743 970.508 818.773 985.772 803.802 1000.74 779.438 1000.74 764.174 985.772L763 984.598 761.826 985.772C746.856 1000.74 722.492 1000.74 707.228 985.772 692.258 970.802 692.258 946.438 707.228 931.174L708.402 930 707.228 928.826C692.258 913.855 692.258 889.492 707.228 874.228 722.198 859.258 746.562 859.258 761.826 874.228L763 875.402 764.174 874.228C779.145 859.258 803.509 859.258 818.773 874.228 833.743 889.492 833.743 913.855 818.773 928.826M757.423 879.218C745.094 866.89 724.84 866.89 712.512 879.218 700.183 891.547 700.183 911.801 712.512 924.129L713.686 925.303 716.328 922.662 715.154 921.488C704.293 910.627 704.293 892.721 715.154 881.566 726.014 870.705 743.92 870.705 755.075 881.566L791.18 917.672 793.822 915.03 757.423 879.218ZM813.783 879.218C801.454 866.89 781.2 866.89 768.871 879.218L767.697 880.392 770.339 883.034 771.513 881.86C782.374 870.999 800.279 870.999 811.434 881.86 822.295 892.721 822.295 910.627 811.434 921.781L775.329 957.593C767.99 964.931 774.448 971.389 775.035 972.27 775.622 972.857 776.21 973.444 776.21 973.444 784.429 981.663 798.225 981.663 806.444 973.444 814.663 965.225 814.663 951.428 806.444 943.209L805.27 942.035 802.628 944.677 803.802 945.851C810.847 952.896 810.847 964.05 803.802 970.802 796.757 977.847 785.603 977.847 778.851 970.802L777.677 969.628C774.448 966.399 775.035 963.17 777.971 960.235L814.076 924.129C826.405 911.801 826.405 891.547 813.783 879.218M722.198 889.198C729.243 882.154 740.398 882.154 747.149 889.198L783.254 925.303 785.896 922.662 749.791 886.557C741.572 878.337 727.776 878.337 719.557 886.557 711.338 894.776 711.338 908.572 719.557 916.791L720.731 917.965 723.373 915.323 722.198 914.149C715.447 907.398 715.447 895.95 722.198 889.198M768.871 980.782C781.2 993.111 801.454 993.111 813.783 980.782 826.111 968.453 826.111 948.2 813.783 935.871L812.608 934.697 809.966 937.338 811.14 938.513C822.002 949.374 822.002 967.279 811.14 978.434 800.279 989.295 782.374 989.295 771.219 978.434L770.045 977.26C764.761 971.976 761.826 961.702 769.165 954.364L770.339 953.19 806.444 916.791C814.663 908.572 814.663 894.776 806.444 886.557 798.225 878.337 784.429 878.337 776.21 886.557L775.035 887.731 777.677 890.372 778.851 889.198C785.896 882.154 797.051 882.154 803.802 889.198 810.847 896.243 810.847 907.398 803.802 914.149L767.697 950.254 767.403 950.548C765.349 952.603 763.881 954.657 762.707 956.712 761.533 954.657 760.065 952.603 758.01 950.254L756.836 949.08 742.453 934.697 740.104 937.338 750.378 947.612 750.965 948.2 756.836 954.07C759.771 957.005 761.239 960.822 760.945 964.638 760.945 964.638 760.945 964.931 760.945 964.931 760.652 969.628 758.597 974.324 755.662 977.26L754.488 978.434C743.627 989.295 725.721 989.295 714.566 978.434 703.705 967.573 703.705 949.667 714.566 938.513L750.672 902.408 748.03 899.766 711.924 935.871C699.596 948.2 699.596 968.453 711.924 980.782 724.253 993.111 744.508 993.111 756.836 980.782L758.01 979.608C758.597 979.021 760.945 976.379 762.707 972.857 764.468 976.673 767.11 979.021 767.403 979.314L768.871 980.782ZM783.548 893.895 782.374 895.069 797.931 910.627 799.106 909.453C803.509 905.05 803.509 898.005 799.106 893.895 794.996 889.492 787.951 889.492 783.548 893.895M728.069 910.627 743.627 895.069 742.453 893.895C738.05 889.492 731.004 889.492 726.895 893.895 722.492 898.298 722.492 905.343 726.895 909.453L728.069 910.627ZM722.198 945.851 725.721 942.329 740.398 927.652 758.303 909.746 755.662 907.104 719.557 943.209C711.338 951.428 711.338 965.225 719.557 973.444 727.776 981.663 741.572 981.663 749.791 973.444L750.965 972.27C751.552 971.683 758.303 964.931 748.911 955.538L735.408 942.035 732.766 944.677 742.159 954.07 744.214 956.125C744.508 956.418 744.801 956.712 745.094 957.005 748.323 960.235 753.314 964.931 748.323 969.921L747.149 971.095C740.104 978.14 728.95 978.14 722.198 971.095 715.447 964.05 715.447 952.603 722.198 945.851M778.851 930 763.294 914.443 747.736 930 763.294 945.558 778.851 930ZM783.548 966.105C787.951 970.508 794.996 970.508 799.106 966.105 803.509 961.702 803.509 954.657 799.106 950.548L797.931 949.374 782.374 964.931 783.548 966.105ZM743.627 964.931 728.069 949.374 726.895 950.548C722.492 954.951 722.492 961.996 726.895 966.105 731.298 970.508 738.343 970.508 742.453 966.105L743.627 964.931Z" fill="#23275D" fill-rule="evenodd" fill-opacity="1"/><path d="M1346.22 917 1360.49 934.209 1374.76 917 1377.73 917 1361.97 935.959 1381 959 1371.78 959 1357.22 941.5 1342.65 959 1339.68 959 1355.73 939.75 1337 917 1346.22 917Z" fill="#23275D" fill-rule="evenodd" fill-opacity="1"/><path d="M875.223 900 897.421 934.05 919.619 900 924 900 899.758 936.692 899.758 959 891.579 959 891.579 939.334 865 900 875.223 900Z" fill="#23275D" fill-rule="evenodd" fill-opacity="1"/><path d="M932 955.334C932 955.334 932 955.042 932 955.334L930 960 924 960 924 918 932 918 932 935.5 932 952.417 932 955.334Z" fill="#23275D" fill-rule="evenodd" fill-opacity="1"/><rect x="924" y="951" width="7.99988" height="8.99994" fill="#23275D" fill-opacity="1"/><path d="M964 955.334C964 955.334 964 955.042 964 955.334L962 960 956 960 956 918 964 918 964 935.5 964 952.417 964 955.334Z" fill="#23275D" fill-rule="evenodd" fill-opacity="1"/><rect x="956" y="951" width="7.99988" height="8.99994" fill="#23275D" fill-opacity="1"/><rect x="931" y="936" width="28.0002" height="3.00012" fill="#23275D" fill-opacity="1"/><path d="M1003 939 978.883 939 974.471 939C974.471 938.711 974.765 936.974 974.765 936.395L1003.29 936.395C1003.29 934.079 1002.71 931.763 1001.82 929.737 1000.94 927.711 999.765 925.974 998.294 924.527 996.824 923.079 995.059 921.921 993.294 921.053 991.53 920.184 989.471 919.895 987.412 919.895 986.235 919.895 985.059 920.184 983.883 920.474 982.706 920.763 981.53 921.342 980.353 921.921 979.177 922.5 978 923.369 977.118 923.948 976.235 924.816 975.353 925.684 974.765 926.553L973 925.395C975.353 922.5 978.294 920.474 981.53 919.027 984.765 917.579 988.294 917 991.824 917 994.471 917 997.118 917.29 999.765 918.158 1002.41 919.027 1004.47 920.184 1006.53 921.921 1008.59 923.658 1010.06 925.974 1011.24 928.579 1012.41 931.184 1013 934.368 1013 937.842 1013 938.132 1013 938.421 1013 938.711L1003 938.711Z" fill="#23275D" fill-rule="evenodd" fill-opacity="1"/><path d="M1010.58 948.052C1009.39 950.741 1007.91 953.13 1005.83 954.922 1003.75 956.714 1001.68 957.909 999.006 958.806 996.335 959.702 993.664 960 990.993 960 987.432 960 984.168 959.403 980.607 957.909 977.342 956.416 974.374 954.325 972 951.338L973.781 950.143C974.374 951.039 975.264 951.935 976.155 952.831 977.045 953.727 978.232 954.325 979.419 954.922 980.607 955.52 981.793 956.117 982.981 956.416 984.168 956.714 985.355 957.013 986.542 957.013 988.619 957.013 990.4 956.714 992.477 955.819 994.258 954.922 996.038 953.727 997.522 952.234 999.006 950.741 1000.19 948.948 1001.08 946.857 1001.97 944.766 1002.57 942.377 1002.57 939.987 1002.57 939.987 1002.57 937 1002.57 937L1011.77 937.299C1011.77 937.597 1011.77 937.896 1011.77 938.195 1012.36 942.377 1011.77 945.364 1010.58 948.052Z" fill="#23275D" fill-rule="evenodd" fill-opacity="1"/><path d="M1015 918 1015 920.625 1030.88 920.625 1030.88 960 1039.12 960 1039.12 920.625 1055 920.625 1055 918Z" fill="#23275D" fill-rule="evenodd" fill-opacity="1"/><path d="M1101.98 922.519C1102.56 922.519 1111.62 923.408 1112.21 924L1135 900 1090 900 1090 903.259 1120.1 903.259 1101.98 922.519Z" fill="#23275D" fill-rule="evenodd" fill-opacity="1"/><path d="M1133.87 929.673C1132.11 927.033 1129.75 924.687 1126.52 922.927 1123.28 921.168 1120.34 920.581 1115.93 919.702 1112.11 919.115 1106.82 918.822 1105.05 919.115 1105.05 919.408 1100.94 923.221 1100.94 923.221 1104.47 923.221 1107.41 923.807 1109.46 924.101 1112.99 924.687 1121.81 926.447 1125.05 931.432 1126.52 933.779 1126.81 936.418 1126.81 936.418 1126.81 937.298 1126.81 938.178 1126.81 939.351 1126.52 941.99 1125.64 944.63 1123.87 946.976 1122.4 949.322 1120.05 951.375 1117.4 952.841 1114.76 954.308 1111.52 955.188 1107.99 955.188 1105.05 955.188 1102.11 954.601 1099.17 953.428 1095.94 952.255 1092.7 950.202 1089.47 946.976L1088 948.442C1090.94 951.668 1094.76 954.308 1099.17 956.361 1103.58 958.12 1108.29 959 1112.7 959 1116.82 959 1120.64 958.12 1124.17 956.654 1127.7 955.188 1130.64 952.548 1132.69 949.322 1134.75 945.803 1135.93 942.283 1135.93 938.764 1136.22 935.538 1135.63 932.312 1133.87 929.673Z" fill="#23275D" fill-rule="evenodd" fill-opacity="1"/><path d="M1237.38 943.25C1236.79 941.5 1235.91 940.042 1234.43 938.583 1232.95 937.125 1231.18 936.25 1229.12 935.375 1230.59 934.5 1232.07 933.625 1232.95 932.458 1233.84 931.292 1234.43 929.833 1234.73 928.667 1235.02 927.208 1235.02 925.75 1234.43 924.584 1234.14 923.125 1233.25 921.958 1232.36 920.792 1231.48 919.625 1230 918.75 1228.23 918.167 1226.46 917.583 1224.39 917 1222.03 917L1206.97 917 1202.84 917 1199 917 1199 959 1202.84 959 1206.97 959 1223.8 959C1226.75 959 1229.12 958.417 1230.89 957.542 1232.95 956.667 1234.43 955.208 1235.61 953.75 1236.79 952.292 1237.38 950.542 1237.68 948.792 1238.27 946.75 1237.97 944.708 1237.38 943.25ZM1216.42 918.458C1218.49 918.458 1220.55 918.75 1222.03 919.625 1223.51 920.5 1224.69 921.375 1225.28 922.542 1225.87 923.708 1226.46 925.167 1226.46 926.334 1226.46 927.792 1226.16 928.958 1225.28 930.125 1224.39 931.292 1223.51 932.458 1222.03 933.042 1220.55 933.917 1218.78 934.209 1216.42 934.209L1206.97 934.209 1206.97 918.167 1216.42 918.167ZM1227.34 951.708C1226.46 953.167 1225.28 954.334 1223.51 955.5 1221.73 956.375 1219.67 956.959 1217.01 956.959L1206.97 956.959 1206.97 937.125 1217.01 937.125C1219.67 937.125 1221.73 937.709 1223.51 938.583 1225.28 939.459 1226.46 940.917 1227.34 942.375 1228.23 943.833 1228.53 945.584 1228.53 947.042 1228.53 948.5 1228.23 949.958 1227.34 951.708Z" fill="#23275D" fill-rule="evenodd" fill-opacity="1"/><path d="M1287 959 1279.01 959 1261.84 921.667 1244.37 959 1242 959 1261.54 917 1267.76 917 1287 959Z" fill="#23275D" fill-rule="evenodd" fill-opacity="1"/><path d="M1167 960C1164.05 960 1161.4 959.401 1158.74 958.504 1156.09 957.606 1153.44 956.109 1151.37 954.313 1149.31 952.517 1147.54 950.123 1146.06 947.429 1144.59 944.735 1144 941.442 1144 937.851 1144 934.259 1144.59 930.966 1146.06 928.272 1147.54 925.578 1149.31 923.184 1151.37 921.388 1153.44 919.592 1156.09 918.096 1158.74 917.197 1161.4 916.3 1164.35 916 1167 916 1169.95 916 1172.6 916.599 1175.26 917.197 1177.91 918.096 1180.56 919.592 1182.63 921.388 1184.69 923.184 1186.46 925.578 1187.94 928.272 1189.41 930.966 1190 934.259 1190 937.851 1190 941.442 1189.41 944.735 1187.94 947.429 1186.46 950.123 1184.69 952.517 1182.63 954.313 1180.56 956.109 1177.91 957.606 1175.26 958.504 1172.6 959.401 1169.65 960 1167 960ZM1167 917.197C1164.64 917.197 1162.58 917.796 1160.81 918.993 1159.04 920.191 1157.56 921.987 1156.38 923.783 1155.21 925.578 1154.32 927.973 1153.73 930.068 1153.14 932.463 1152.85 934.558 1152.85 936.653 1152.85 939.347 1153.14 941.742 1153.73 944.435 1154.32 947.129 1155.21 949.224 1156.38 951.32 1157.56 953.415 1159.04 954.912 1160.81 956.109 1162.58 957.306 1164.64 957.905 1166.71 957.905 1168.77 957.905 1170.83 957.306 1172.6 956.109 1174.37 954.912 1175.85 953.116 1177.03 951.32 1178.21 949.224 1179.09 947.129 1179.97 944.435 1180.56 941.742 1180.86 939.347 1180.86 936.653 1180.86 934.558 1180.56 932.463 1179.97 930.068 1179.38 927.674 1178.5 925.578 1177.62 923.783 1176.44 921.987 1174.96 920.191 1173.19 918.993 1171.42 918.096 1169.36 917.197 1167 917.197Z" fill="#23275D" fill-rule="evenodd" fill-opacity="1"/><rect x="1149" y="937" width="36.9998" height="2.00006" fill="#23275D" fill-opacity="1"/><path d="M1312 960C1309.05 960 1306.4 959.401 1303.74 958.504 1301.09 957.606 1298.44 956.109 1296.37 954.313 1294.31 952.517 1292.54 950.123 1291.06 947.429 1289.59 944.735 1289 941.442 1289 937.851 1289 934.259 1289.59 930.966 1291.06 928.272 1292.54 925.578 1294.31 923.184 1296.37 921.388 1298.44 919.592 1301.09 918.096 1303.74 917.197 1306.4 916.3 1309.35 916 1312 916 1314.95 916 1317.6 916.599 1320.26 917.197 1322.91 918.096 1325.56 919.592 1327.63 921.388 1329.69 923.184 1331.46 925.578 1332.94 928.272 1334.41 930.966 1335 934.259 1335 937.851 1335 941.442 1334.41 944.735 1332.94 947.429 1331.46 950.123 1329.69 952.517 1327.63 954.313 1325.56 956.109 1322.91 957.606 1320.26 958.504 1317.6 959.401 1314.95 960 1312 960ZM1312 917.197C1309.64 917.197 1307.58 917.796 1305.81 918.993 1304.04 920.191 1302.56 921.987 1301.38 923.783 1300.21 925.578 1299.32 927.973 1298.73 930.068 1298.14 932.163 1297.85 934.558 1297.85 936.653 1297.85 939.347 1298.14 941.742 1298.73 944.435 1299.32 947.129 1300.21 949.224 1301.38 951.32 1302.56 953.415 1304.04 954.912 1305.81 956.109 1307.58 957.306 1309.64 957.905 1311.71 957.905 1313.77 957.905 1315.83 957.306 1317.6 956.109 1319.37 954.912 1320.85 953.116 1322.03 951.32 1323.21 949.224 1324.09 947.129 1324.97 944.435 1325.56 941.742 1325.86 939.347 1325.86 936.653 1325.86 934.558 1325.56 932.463 1324.97 930.068 1324.38 927.674 1323.5 925.578 1322.62 923.783 1321.44 921.987 1319.96 920.191 1318.19 918.993 1316.72 918.096 1314.65 917.197 1312 917.197Z" fill="#23275D" fill-rule="evenodd" fill-opacity="1"/><rect x="1294" y="937" width="36.0001" height="2.00006" fill="#23275D" fill-opacity="1"/></g></g></svg>