<svg width="798" height="142" xmlns="http://www.w3.org/2000/svg" xmlns:xlink="http://www.w3.org/1999/xlink" xml:space="preserve" overflow="hidden"><defs><clipPath id="clip0"><rect x="1379" y="1379" width="798" height="142"/></clipPath><clipPath id="clip1"><rect x="1379" y="1379" width="798" height="142"/></clipPath></defs><g clip-path="url(#clip0)" transform="translate(-1379 -1379)"><g clip-path="url(#clip1)"><path d="M1503.77 1449.83 1502.6 1451 1503.77 1452.17C1518.74 1467.14 1518.74 1491.51 1503.77 1506.77 1488.8 1521.74 1464.44 1521.74 1449.17 1506.77L1448 1505.6 1446.83 1506.77C1431.86 1521.74 1407.49 1521.74 1392.23 1506.77 1377.26 1491.8 1377.26 1467.44 1392.23 1452.17L1393.4 1451 1392.23 1449.83C1377.26 1434.86 1377.26 1410.49 1392.23 1395.23 1407.2 1380.26 1431.56 1380.26 1446.83 1395.23L1448 1396.4 1449.17 1395.23C1464.14 1380.26 1488.51 1380.26 1503.77 1395.23 1518.74 1410.2 1518.74 1434.86 1503.77 1449.83M1442.42 1399.92C1430.09 1387.6 1409.84 1387.6 1397.51 1399.92 1385.18 1412.25 1385.18 1432.51 1397.51 1444.84L1398.69 1446.01 1401.33 1443.37 1400.15 1442.19C1389.29 1431.33 1389.29 1413.43 1400.15 1402.27 1411.01 1391.41 1428.92 1391.41 1440.07 1402.27L1476.18 1438.38 1478.82 1435.74 1442.42 1399.92ZM1498.78 1399.92C1486.45 1387.6 1466.2 1387.6 1453.87 1399.92L1452.7 1401.1 1455.34 1403.74 1456.51 1402.57C1467.37 1391.71 1485.28 1391.71 1496.43 1402.57 1507.29 1413.43 1507.29 1431.33 1496.43 1442.49L1460.33 1478.59C1452.99 1485.93 1459.45 1492.39 1460.04 1493.27 1460.62 1493.86 1461.21 1494.44 1461.21 1494.44 1469.43 1502.66 1483.22 1502.66 1491.44 1494.44 1499.66 1486.22 1499.66 1472.43 1491.44 1464.21L1490.27 1463.03 1487.63 1465.68 1488.8 1466.85C1495.85 1473.9 1495.85 1485.05 1488.8 1491.8 1481.76 1498.85 1470.6 1498.85 1463.85 1491.8L1462.68 1490.63C1459.45 1487.4 1460.04 1484.17 1462.97 1481.23L1499.08 1445.13C1511.4 1432.51 1511.4 1412.55 1498.78 1399.92M1407.2 1409.9C1414.24 1402.86 1425.4 1402.86 1432.15 1409.9L1468.25 1446.01 1470.9 1443.37 1434.79 1407.26C1426.57 1399.04 1412.78 1399.04 1404.56 1407.26 1396.34 1415.48 1396.34 1429.28 1404.56 1437.5L1405.73 1438.67 1408.37 1436.03 1407.2 1434.86C1400.45 1428.1 1400.45 1416.95 1407.2 1409.9M1453.87 1501.49C1466.2 1513.82 1486.45 1513.82 1498.78 1501.49 1511.11 1489.16 1511.11 1468.91 1498.78 1456.58L1497.61 1455.4 1494.97 1458.04 1496.14 1459.22C1507 1470.08 1507 1487.99 1496.14 1499.14 1485.28 1510 1467.37 1510 1456.22 1499.14L1455.05 1497.97C1449.76 1492.68 1446.83 1482.41 1454.16 1475.07L1455.34 1473.9 1491.44 1437.79C1499.66 1429.57 1499.66 1415.78 1491.44 1407.56 1483.22 1399.34 1469.43 1399.34 1461.21 1407.56L1460.04 1408.73 1462.68 1411.37 1463.85 1410.2C1470.9 1403.15 1482.05 1403.15 1488.8 1410.2 1495.85 1417.24 1495.85 1428.4 1488.8 1435.15L1452.7 1471.25 1452.4 1471.55C1450.35 1473.6 1448.88 1475.66 1447.71 1477.71 1446.53 1475.66 1445.06 1473.6 1443.01 1471.25L1441.84 1470.08 1427.45 1455.7 1424.81 1458.34 1435.08 1468.61 1435.67 1469.2 1441.54 1475.07C1444.48 1478.01 1445.95 1481.82 1445.65 1485.64 1445.65 1485.64 1445.65 1485.93 1445.65 1485.93 1445.36 1490.63 1443.3 1495.32 1440.37 1498.26L1439.19 1499.43C1428.33 1510.29 1410.43 1510.29 1399.27 1499.43 1388.41 1488.57 1388.41 1470.67 1399.27 1459.51L1435.96 1423.11 1433.32 1420.47 1397.22 1456.58C1384.89 1468.91 1384.89 1489.16 1397.22 1501.49 1409.55 1513.82 1429.8 1513.82 1442.13 1501.49L1443.3 1500.31C1443.89 1499.73 1446.24 1497.09 1448 1493.56 1449.76 1497.38 1452.4 1499.73 1452.7 1500.02L1453.87 1501.49ZM1468.55 1414.6 1467.37 1415.78 1482.93 1431.33 1484.11 1430.16C1488.51 1425.76 1488.51 1418.71 1484.11 1414.6 1480 1410.49 1472.95 1410.49 1468.55 1414.6M1413.07 1431.33 1428.63 1415.78 1427.45 1414.6C1423.05 1410.2 1416 1410.2 1411.89 1414.6 1407.49 1419 1407.49 1426.05 1411.89 1430.16L1413.07 1431.33ZM1407.2 1466.56 1410.72 1463.03 1425.4 1448.36 1443.3 1430.45 1440.66 1427.81 1404.56 1463.92C1396.34 1472.13 1396.34 1485.93 1404.56 1494.15 1412.78 1502.37 1426.57 1502.37 1434.79 1494.15L1435.96 1492.98C1436.55 1492.39 1443.3 1485.64 1433.91 1476.24L1420.41 1462.74 1417.77 1465.38 1427.16 1474.78 1429.21 1476.83C1429.51 1477.12 1429.8 1477.42 1430.09 1477.71 1433.32 1480.94 1438.31 1485.64 1433.32 1490.63L1432.15 1491.8C1425.1 1498.85 1413.95 1498.85 1407.2 1491.8 1400.45 1484.76 1400.45 1473.6 1407.2 1466.56M1463.56 1450.71 1448 1435.15 1432.44 1450.71 1448 1466.26 1463.56 1450.71ZM1468.55 1486.81C1472.95 1491.21 1480 1491.21 1484.11 1486.81 1488.51 1482.41 1488.51 1475.36 1484.11 1471.25L1482.93 1470.08 1467.37 1485.64 1468.55 1486.81ZM1428.63 1485.93 1413.07 1470.37 1411.89 1471.55C1407.49 1475.95 1407.49 1483 1411.89 1487.1 1416.3 1491.51 1423.34 1491.51 1427.45 1487.1L1428.63 1485.93Z" fill="#23275D" fill-rule="evenodd" fill-opacity="1"/><path d="M1557.76 1422.3 1557.76 1457.83C1557.76 1461.38 1558.34 1464.64 1559.51 1467.31 1560.68 1469.97 1562.43 1472.34 1564.18 1474.12 1566.22 1475.89 1568.56 1477.37 1570.89 1478.26 1573.52 1479.15 1576.15 1479.74 1578.77 1479.74 1581.4 1479.74 1584.03 1479.15 1586.65 1478.26 1589.28 1477.37 1591.32 1475.89 1593.37 1473.82 1595.41 1471.75 1596.87 1469.38 1598.33 1466.12 1599.5 1463.16 1600.08 1459.31 1600.08 1455.17L1600.08 1422 1603 1422 1603 1457.53C1603 1461.68 1602.12 1465.53 1600.66 1468.79 1599.21 1472.04 1597.16 1474.71 1594.54 1476.78 1591.91 1478.85 1588.99 1480.63 1585.78 1481.52 1582.57 1482.7 1579.36 1483 1575.85 1483 1572.64 1483 1569.14 1482.41 1565.93 1481.52 1562.72 1480.34 1559.8 1478.85 1557.46 1476.78 1554.84 1474.71 1552.79 1472.04 1551.33 1468.79 1549.88 1465.53 1549 1461.98 1549 1457.53L1549 1422 1557.76 1422Z" fill="#23275D" fill-rule="evenodd" fill-opacity="1"/><path d="M1613 1480.7 1613 1438.59 1619.2 1438.59 1620.98 1443.63C1621.86 1442.74 1622.75 1441.85 1624.23 1441.26 1625.41 1440.67 1626.89 1440.08 1628.07 1439.48 1629.55 1438.89 1630.73 1438.59 1632.21 1438.3 1633.68 1438 1634.87 1438 1636.05 1438 1638.12 1438 1640.48 1438.3 1642.55 1438.89 1644.62 1439.48 1646.39 1440.67 1648.16 1441.85 1649.93 1443.34 1651.12 1445.12 1652 1447.79 1652.89 1450.16 1653.18 1453.12 1652.89 1456.98L1652.89 1480.7 1644.62 1480.7 1644.62 1456.68C1644.62 1453.72 1644.32 1451.34 1643.73 1449.57 1643.14 1447.49 1642.25 1446.01 1641.37 1444.82 1640.48 1443.63 1639.3 1442.74 1637.82 1442.15 1636.64 1441.56 1635.16 1441.26 1633.98 1440.97 1632.8 1440.97 1631.91 1440.97 1630.43 1441.26 1629.25 1441.56 1628.07 1441.85 1626.89 1442.45 1625.71 1443.04 1624.52 1443.34 1623.64 1444.23 1622.75 1444.82 1621.86 1445.71 1620.98 1446.6L1620.98 1481 1613 1481Z" fill="#23275D" fill-rule="evenodd" fill-opacity="1"/><path d="M1660 1460C1660 1456.55 1660.59 1453.67 1661.76 1451.08 1662.93 1448.49 1664.39 1446.19 1666.44 1444.47 1668.49 1442.74 1670.54 1441.3 1673.18 1440.44 1675.52 1439.58 1678.16 1439 1680.79 1439 1682.84 1439 1684.89 1439.29 1687.24 1439.86 1689.29 1440.44 1691.34 1441.3 1693.09 1442.45 1694.85 1443.6 1696.61 1445.04 1697.78 1447.05 1699.24 1449.07 1700.12 1451.37 1700.71 1453.96 1700.71 1454.53 1701 1455.11 1701 1455.97 1701 1456.84 1701 1457.41 1701 1458.27 1701 1459.14 1701 1459.71 1701 1460.29 1701 1460.86 1701 1461.44 1700.71 1462.01L1669.37 1462.01C1669.37 1464.31 1669.96 1466.62 1670.84 1468.34 1671.71 1470.36 1672.89 1472.08 1674.35 1473.52 1675.81 1474.96 1677.28 1476.11 1679.33 1476.97 1681.09 1477.84 1683.14 1478.12 1684.89 1478.12 1686.06 1478.12 1687.24 1477.84 1688.41 1477.55 1689.58 1477.26 1690.75 1476.68 1691.92 1476.11 1693.09 1475.53 1694.26 1474.96 1695.14 1474.1 1696.02 1473.23 1696.9 1472.37 1697.49 1471.51L1699.24 1472.66C1696.9 1475.53 1694.26 1477.55 1691.04 1478.99 1687.82 1480.42 1684.6 1481 1681.09 1481 1678.45 1481 1675.81 1480.71 1673.47 1479.85 1670.84 1478.99 1668.79 1477.84 1666.74 1476.11 1664.69 1474.38 1663.22 1472.37 1662.05 1469.78 1660.29 1466.62 1660 1463.45 1660 1460ZM1692.51 1459.14C1692.8 1456.26 1692.51 1453.67 1691.92 1451.37 1691.34 1449.07 1690.46 1447.34 1689.29 1445.62 1688.11 1444.18 1686.65 1443.03 1685.19 1442.16 1683.72 1441.3 1681.96 1441.01 1680.5 1441.01 1679.04 1441.01 1677.28 1441.3 1675.81 1442.16 1674.35 1443.03 1672.89 1444.18 1672.01 1445.9 1670.84 1447.34 1669.96 1449.36 1669.37 1451.66 1668.79 1453.96 1668.49 1456.55 1668.79 1459.42L1692.51 1459.42Z" fill="#23275D" fill-rule="evenodd" fill-opacity="1"/><path d="M1715.58 1424 1715.58 1438.55 1725.6 1438.55 1725.6 1441.81 1715.58 1441.81 1715.58 1462.3C1715.58 1467.94 1716.19 1472.09 1717.4 1474.77 1718.62 1477.44 1721.04 1478.92 1724.38 1478.92 1727.72 1478.92 1730.45 1477.73 1732.88 1475.06L1735 1477.14C1733.48 1478.63 1731.66 1479.52 1729.84 1480.11 1728.02 1480.7 1725.9 1481 1723.78 1481 1721.96 1481 1719.83 1480.7 1718.01 1480.11 1716.19 1479.52 1714.37 1478.63 1712.85 1477.14 1711.34 1475.66 1710.12 1473.88 1709.21 1471.5 1708.3 1469.12 1708 1466.16 1708 1462.3L1708 1424 1715.58 1424Z" fill="#23275D" fill-rule="evenodd" fill-opacity="1"/><path d="M1793.3 1423.75C1789.47 1423.75 1785.93 1424.62 1782.99 1426.08 1780.04 1427.83 1777.68 1429.86 1775.62 1432.49 1773.56 1435.11 1772.08 1438.02 1771.2 1441.51 1770.31 1445.01 1769.72 1448.21 1769.72 1451.71 1769.72 1455.2 1770.31 1458.7 1771.2 1461.9 1772.08 1465.4 1773.56 1468.31 1775.62 1470.93 1777.68 1473.55 1780.04 1475.59 1782.99 1477.34 1785.93 1479.09 1789.47 1479.67 1793.3 1479.67 1795.95 1479.67 1798.6 1479.38 1800.96 1478.8 1803.61 1478.21 1805.97 1477.34 1808.33 1476.47 1810.69 1475.3 1812.75 1474.14 1814.52 1472.68 1816.29 1471.22 1818.05 1469.18 1819.23 1467.15L1821 1468.31C1818.35 1472.39 1814.81 1475.59 1810.1 1478.21 1805.38 1480.84 1799.78 1482 1793 1482 1787.41 1482 1782.69 1481.13 1778.57 1479.38 1774.44 1477.63 1770.9 1475.3 1768.25 1472.68 1765.6 1469.77 1763.54 1466.56 1762.06 1463.07 1760.59 1459.57 1760 1455.79 1760 1452 1760 1448.21 1760.59 1444.43 1762.06 1440.93 1763.54 1437.44 1765.6 1433.94 1768.25 1431.32 1770.9 1428.41 1774.44 1426.08 1778.57 1424.62 1782.69 1422.87 1787.41 1422 1793 1422 1799.78 1422 1805.38 1423.17 1810.1 1425.79 1814.81 1428.41 1818.35 1431.61 1821 1435.69L1818.94 1436.85C1817.46 1434.82 1815.99 1432.78 1813.93 1431.32 1811.86 1429.86 1809.8 1428.41 1807.44 1427.24 1805.09 1426.08 1802.73 1425.5 1800.37 1424.91 1798.01 1424.04 1795.66 1423.75 1793.3 1423.75Z" fill="#23275D" fill-rule="evenodd" fill-opacity="1"/><path d="M1849 1481C1846.05 1481 1843.4 1480.41 1840.74 1479.54 1838.09 1478.66 1835.44 1477.2 1833.37 1475.44 1831.31 1473.69 1829.54 1471.35 1828.06 1468.71 1826.59 1466.08 1826 1462.86 1826 1459.35 1826 1455.84 1826.59 1452.63 1828.06 1449.99 1829.54 1447.36 1831.31 1445.02 1833.37 1443.27 1835.44 1441.51 1838.09 1440.05 1840.74 1439.17 1843.4 1438.29 1846.35 1438 1849 1438 1851.95 1438 1854.6 1438.58 1857.26 1439.17 1859.91 1440.05 1862.56 1441.51 1864.63 1443.27 1866.69 1445.02 1868.46 1447.36 1869.94 1449.99 1871.41 1452.63 1872 1455.84 1872 1459.35 1872 1462.86 1871.41 1466.08 1869.94 1468.71 1868.46 1471.35 1866.69 1473.69 1864.63 1475.44 1862.56 1477.2 1859.91 1478.66 1857.26 1479.54 1854.6 1480.41 1851.65 1481 1849 1481ZM1849 1439.17C1846.64 1439.17 1844.58 1439.76 1842.81 1440.93 1841.04 1442.1 1839.56 1443.85 1838.38 1445.61 1837.21 1447.36 1836.32 1449.7 1835.73 1451.75 1835.14 1454.09 1834.85 1456.14 1834.85 1458.18 1834.85 1460.82 1835.14 1463.16 1835.73 1465.79 1836.32 1468.42 1837.21 1470.47 1838.38 1472.52 1839.56 1474.56 1841.04 1476.03 1842.81 1477.2 1844.58 1478.37 1846.64 1478.95 1848.71 1478.95 1850.77 1478.95 1852.83 1478.37 1854.6 1477.2 1856.37 1476.03 1857.85 1474.27 1859.03 1472.52 1860.21 1470.47 1861.09 1468.42 1861.97 1465.79 1862.56 1463.16 1862.86 1460.82 1862.86 1458.18 1862.86 1456.14 1862.56 1454.09 1861.97 1451.75 1861.38 1449.41 1860.5 1447.36 1859.62 1445.61 1858.44 1443.85 1856.96 1442.1 1855.19 1440.93 1853.72 1440.05 1851.36 1439.17 1849 1439.17Z" fill="#23275D" fill-rule="evenodd" fill-opacity="1"/><path d="M1880 1480.7 1880 1438.59 1886.2 1438.59 1887.98 1443.63C1888.86 1442.74 1889.75 1441.85 1891.23 1441.26 1892.41 1440.67 1893.89 1440.08 1895.07 1439.48 1896.55 1438.89 1897.73 1438.59 1899.21 1438.3 1900.68 1438 1901.87 1438 1903.05 1438 1905.12 1438 1907.48 1438.3 1909.55 1438.89 1911.62 1439.48 1913.39 1440.67 1915.16 1441.85 1916.93 1443.34 1918.12 1445.12 1919 1447.79 1919.89 1450.16 1920.18 1453.12 1919.89 1456.98L1919.89 1480.7 1911.62 1480.7 1911.62 1456.68C1911.62 1453.72 1911.32 1451.34 1910.73 1449.57 1910.14 1447.49 1909.25 1446.01 1908.37 1444.82 1907.48 1443.63 1906.3 1442.74 1904.82 1442.15 1903.64 1441.56 1902.16 1441.26 1900.98 1440.97 1899.8 1440.97 1898.91 1440.97 1897.43 1441.26 1896.25 1441.56 1895.07 1441.85 1893.89 1442.45 1892.71 1443.04 1891.52 1443.34 1890.64 1444.23 1889.75 1444.82 1888.86 1445.71 1887.98 1446.6L1887.98 1481 1880 1481Z" fill="#23275D" fill-rule="evenodd" fill-opacity="1"/><path d="M1927.88 1472.99C1928.76 1473.57 1929.64 1474.16 1930.81 1474.74 1931.98 1475.32 1933.45 1475.9 1934.62 1476.19 1936.09 1476.77 1937.55 1477.06 1939.02 1477.35 1940.48 1477.64 1942.24 1477.64 1943.71 1477.64 1945.47 1477.64 1947.22 1477.35 1948.69 1477.06 1950.16 1476.77 1951.62 1475.9 1952.5 1475.03 1952.79 1474.74 1953.09 1474.45 1953.38 1473.86 1953.67 1473.28 1953.67 1472.7 1953.97 1472.12 1953.97 1471.54 1953.97 1470.67 1953.67 1470.09 1953.38 1469.51 1953.09 1468.64 1952.5 1468.34 1951.33 1467.18 1949.86 1466.31 1948.4 1465.73 1946.93 1465.15 1945.17 1464.57 1943.41 1463.99 1941.66 1463.41 1940.19 1462.82 1938.43 1462.53 1936.67 1461.95 1935.21 1461.37 1933.74 1460.5 1931.4 1459.34 1929.64 1457.59 1928.76 1455.56 1927.88 1453.53 1927.29 1451.78 1927.59 1449.75 1927.88 1447.72 1928.47 1445.97 1929.64 1444.23 1930.81 1442.49 1932.57 1441.32 1934.62 1440.45 1935.79 1439.87 1937.26 1439.58 1938.72 1439.29 1940.19 1439 1941.66 1439 1943.41 1439 1946.35 1439 1949.28 1439.29 1952.21 1440.16 1955.14 1441.03 1957.19 1442.2 1958.66 1443.65L1957.19 1445.39C1955.14 1443.94 1953.09 1442.78 1950.74 1442.2 1948.4 1441.61 1946.05 1441.32 1943.41 1441.32 1941.07 1441.32 1939.02 1441.91 1937.55 1442.78 1935.79 1443.65 1934.91 1444.81 1934.33 1446.26 1933.74 1447.72 1934.03 1449.17 1934.91 1450.62 1935.79 1452.07 1937.55 1453.53 1940.19 1454.4 1941.66 1454.98 1942.83 1455.27 1944.29 1455.85 1945.47 1456.14 1946.64 1456.43 1947.81 1457.01 1948.98 1457.3 1950.16 1457.59 1951.03 1457.89 1952.21 1458.18 1953.09 1458.47 1953.97 1459.05 1956.6 1460.21 1958.36 1461.95 1959.53 1463.99 1960.71 1466.02 1961 1468.05 1961 1470.09 1961 1472.12 1960.12 1473.86 1958.95 1475.9 1957.78 1477.64 1956.31 1479.09 1954.55 1479.97 1953.09 1480.55 1951.33 1481.13 1949.57 1481.42 1947.81 1481.71 1946.05 1482 1944.29 1482 1941.07 1482 1937.84 1481.42 1934.62 1480.55 1931.4 1479.39 1928.76 1477.93 1927 1476.19L1927.88 1472.99Z" fill="#23275D" fill-rule="evenodd" fill-opacity="1"/><path d="M1967 1461.97 1967 1439.29 1975.53 1439.29 1975.53 1462.26C1975.53 1464.88 1975.82 1467.21 1976.41 1469.24 1977 1471.28 1977.88 1472.73 1979.06 1473.89 1980.24 1475.06 1981.41 1475.93 1982.88 1476.51 1984.35 1477.09 1985.82 1477.38 1987.29 1477.38 1989.35 1477.38 1991.41 1476.8 1993.47 1475.93 1995.53 1475.06 1997.29 1473.89 1998.76 1472.15L1998.76 1439 2007 1439 2007 1479.71 2000.82 1479.71 1999.06 1474.48C1997.29 1476.22 1995.24 1477.67 1992.59 1478.55 1989.94 1479.42 1987.59 1480 1984.94 1480 1982.59 1480 1980.24 1479.71 1978.18 1478.84 1976.12 1477.96 1974.06 1477.09 1972.29 1475.35 1970.53 1473.89 1969.35 1471.86 1968.18 1469.53 1967.29 1467.79 1967 1465.17 1967 1461.97Z" fill="#23275D" fill-rule="evenodd" fill-opacity="1"/><path d="M2018 1420 2026 1420 2026 1480 2018 1480 2018 1420Z" fill="#23275D" fill-rule="evenodd" fill-opacity="1"/><path d="M2042.8 1424 2042.8 1438.55 2052.7 1438.55 2052.7 1441.81 2042.8 1441.81 2042.8 1462.3C2042.8 1467.94 2043.4 1472.09 2044.6 1474.77 2045.8 1477.44 2048.2 1478.92 2051.5 1478.92 2054.8 1478.92 2057.5 1477.73 2059.9 1475.06L2062 1477.14C2060.5 1478.63 2058.7 1479.52 2056.9 1480.11 2055.1 1480.7 2053 1481 2050.9 1481 2049.1 1481 2047 1480.7 2045.2 1480.11 2043.4 1479.52 2041.6 1478.63 2040.1 1477.14 2038.6 1475.66 2037.4 1473.88 2036.5 1471.5 2035.6 1469.12 2035 1466.16 2035 1462.3L2035 1424 2042.8 1424Z" fill="#23275D" fill-rule="evenodd" fill-opacity="1"/><path d="M2077.53 1423.47C2078.41 1424.36 2079 1425.54 2079 1427.02 2079 1428.49 2078.41 1429.38 2077.53 1430.56 2076.65 1431.44 2075.47 1432.03 2074 1432.03 2072.53 1432.03 2071.35 1431.44 2070.47 1430.56 2069.59 1429.67 2069 1428.49 2069 1427.02 2069 1425.54 2069.59 1424.36 2070.47 1423.47 2071.35 1422.59 2072.53 1422 2074 1422 2075.47 1422 2076.65 1422.59 2077.53 1423.47ZM2077.82 1439.41 2070.47 1439.41 2070.47 1481 2077.82 1481 2077.82 1439.41Z" fill="#23275D" fill-rule="evenodd" fill-opacity="1"/><path d="M2088 1480.7 2088 1438.59 2094.18 1438.59 2095.94 1443.63C2096.82 1442.74 2097.71 1441.85 2099.18 1441.26 2100.35 1440.67 2101.82 1440.08 2103 1439.48 2104.47 1438.89 2105.65 1438.59 2107.12 1438.3 2108.59 1438 2109.76 1438 2110.94 1438 2113 1438 2115.35 1438.3 2117.41 1438.89 2119.47 1439.48 2121.24 1440.67 2123 1441.85 2124.77 1443.34 2125.94 1445.12 2126.82 1447.79 2127.71 1450.16 2128 1453.12 2128 1456.98L2128 1480.7 2119.76 1480.7 2119.76 1456.68C2119.76 1453.72 2119.47 1451.34 2118.88 1449.57 2118.29 1447.49 2117.41 1446.01 2116.53 1444.82 2115.65 1443.63 2114.47 1442.74 2113 1442.15 2111.82 1441.56 2110.35 1441.26 2109.18 1440.97 2108 1440.97 2107.12 1440.97 2105.65 1441.26 2104.47 1441.56 2103.29 1441.85 2102.12 1442.45 2100.94 1443.04 2099.76 1443.34 2098.88 1444.23 2098 1444.82 2097.12 1445.71 2096.24 1446.6L2096.24 1481 2088 1481Z" fill="#23275D" fill-rule="evenodd" fill-opacity="1"/><path d="M2177 1442 2177 1479.98C2177 1485.28 2176.42 1489.4 2175.55 1492.64 2174.68 1495.87 2173.24 1498.52 2171.5 1500.29 2169.76 1502.06 2167.74 1503.23 2165.13 1504.12 2162.53 1504.71 2159.92 1505 2156.74 1505 2154.42 1505 2152.11 1504.71 2149.79 1503.82 2147.47 1502.94 2145.74 1501.47 2144 1499.7L2145.74 1498.23C2146.61 1499.11 2147.47 1500 2148.63 1500.58 2149.5 1501.17 2150.66 1501.47 2151.53 1502.06 2152.39 1502.35 2153.55 1502.65 2154.42 1502.65 2155.29 1502.65 2156.16 1502.94 2156.74 1502.94 2158.76 1502.94 2160.5 1502.65 2162.24 1501.76 2163.68 1500.88 2165.13 1499.7 2166 1497.93 2166.87 1496.17 2167.74 1493.81 2168.32 1490.87 2168.89 1487.93 2169.18 1484.39 2169.18 1480.27L2169.18 1442.29 2177 1442.29Z" fill="#23275D" fill-rule="evenodd" fill-opacity="1"/><path d="M2136 1459.82C2136 1456.28 2136.58 1453.04 2137.74 1450.38 2138.91 1447.73 2140.36 1445.37 2142.4 1443.6 2144.43 1441.83 2146.47 1440.36 2148.79 1439.47 2151.12 1438.59 2153.74 1438 2156.35 1438 2158.68 1438 2161.01 1438.29 2163.33 1439.18 2165.66 1440.06 2167.7 1440.95 2169.44 1442.72L2170.89 1439.77 2177 1439.77 2177 1484 2168.86 1484 2168.86 1476.33C2167.4 1477.81 2165.37 1478.99 2163.04 1479.87 2160.72 1480.76 2158.39 1481.05 2155.77 1481.05 2153.45 1481.05 2150.83 1480.76 2148.5 1479.87 2146.18 1478.99 2144.14 1477.81 2142.11 1476.04 2140.07 1474.27 2138.62 1472.21 2137.45 1469.55 2136.58 1466.9 2136 1463.65 2136 1459.82ZM2168.86 1472.8 2168.86 1445.08C2167.99 1443.9 2166.53 1442.72 2165.08 1442.13 2163.62 1441.54 2161.88 1441.24 2160.13 1441.24 2158.39 1441.24 2156.65 1441.54 2154.9 1442.13 2153.16 1442.72 2151.41 1443.9 2150.25 1445.08 2148.79 1446.55 2147.63 1448.03 2146.76 1450.09 2145.89 1452.15 2145.31 1454.51 2145.31 1457.46 2145.31 1461.29 2145.6 1464.24 2146.47 1466.9 2147.34 1469.55 2148.5 1471.62 2149.67 1473.09 2151.12 1474.56 2152.57 1475.74 2154.03 1476.63 2155.48 1477.51 2157.52 1477.81 2158.97 1477.81 2161.01 1477.81 2162.75 1477.22 2164.5 1476.33 2166.53 1475.45 2167.99 1474.27 2168.86 1472.8Z" fill="#23275D" fill-rule="evenodd" fill-opacity="1"/></g></g></svg>