<svg width="2723" height="605" xmlns="http://www.w3.org/2000/svg" xmlns:xlink="http://www.w3.org/1999/xlink" xml:space="preserve" overflow="hidden"><g transform="translate(-797 -902)"><g><path d="M818.73 1373.04C823.263 1373.04 827.929 1371.37 831.661 1367.61L869.855 1329.36 993.368 1452.83C1027.53 1486.91 1072.22 1504 1116.91 1504 1161.61 1504 1206.37 1486.91 1240.53 1452.83L1396 1297.88 1332.61 1297.88 1210.8 1419.18C1187.1 1442.93 1155.57 1457.83 1122.01 1459.09 1085.49 1460.49 1050.82 1446.83 1025.06 1421.15L901.55 1297.68 869.855 1266.06 844.826 1291.08 844.826 1180.84 955.174 1180.84 930.078 1205.86 1085.29 1361.01 1116.98 1392.63 1148.61 1360.94 1212.06 1297.85 1171.14 1297.85C1156.71 1297.85 1142.88 1303.54 1132.61 1313.7L1116.91 1329.3 993.468 1205.83 1031.66 1167.65C1043.33 1155.96 1035.06 1136 1018.56 1136L827.329 1136C812.231 1136 800 1148.23 800 1163.32L800 1354.45C800 1365.58 809.132 1372.97 818.697 1372.97Z" fill="#ED3035" fill-rule="evenodd" fill-opacity="1"/><path d="M1415.3 1038.32C1410.77 1038.32 1406.1 1039.99 1402.37 1043.76L1364.17 1082.11 1240.66 958.311C1206.49 924.137 1161.8 907 1117.1 907 1072.41 907 1027.65 924.137 993.483 958.311L838 1113.72 901.393 1113.72 1023.21 992.051C1046.91 968.233 1078.44 953.301 1112 952.031 1148.53 950.628 1183.19 964.325 1208.96 990.08L1332.48 1113.88 1364.17 1145.58 1389.21 1120.5 1389.21 1231.04 1278.85 1231.04 1303.95 1205.95 1148.73 1050.38 1117.04 1018.68 1085.41 1050.44 1021.95 1113.72 1062.87 1113.72C1077.31 1113.72 1091.14 1108 1101.4 1097.81L1117.1 1082.18 1240.56 1205.98 1202.36 1244.26C1190.69 1255.99 1198.96 1276 1215.46 1276L1406.67 1276C1421.77 1276 1434 1263.74 1434 1248.61L1434 1056.96C1434 1045.8 1424.87 1038.39 1415.3 1038.39Z" fill="#034EA1" fill-rule="evenodd" fill-opacity="1"/><path d="M3234.33 1187.55 3234.33 1361 3150.35 1361 3150.35 1180.36C3150.35 1151.61 3124.37 1124.8 3092.32 1124.8L3048.28 1124.8 3048.28 1361 2964.2 1361 2964.2 1051.03 3097.75 1051.03C3173.17 1051.03 3234.3 1112.15 3234.3 1187.55ZM2680.13 1187.48 2680.13 1224.45C2680.13 1299.85 2741.26 1360.97 2816.68 1360.97L2925.85 1360.97 2925.85 1287.13 2822.15 1287.13C2794.43 1287.13 2771.28 1267.71 2765.51 1241.7L2866.19 1241.7 2866.19 1170.36 2834.71 1170.36C2811.75 1170.36 2790.9 1183.72 2781.3 1204.53L2765.11 1239.6C2764.48 1236.21 2764.11 1232.68 2764.11 1229.11L2764.11 1182.89C2764.11 1150.78 2790.13 1124.87 2822.15 1124.87L2925.85 1124.87 2925.85 1051.03 2816.68 1051.03C2741.26 1051.03 2680.13 1112.15 2680.13 1187.55ZM2244.89 1263.68 2252.39 1280.74 2299.79 1360.97 2209.18 1360.97 2165.87 1280.74 2112.04 1280.74 2112.04 1360.97 2028.05 1360.97 2028.05 1051 2184.93 1051C2248.29 1051 2299.79 1102.46 2299.79 1165.83 2299.79 1207.27 2277.77 1243.47 2244.89 1263.68ZM2215.81 1165.83C2215.81 1141.86 2196.29 1124.8 2172.33 1124.8L2112.04 1124.8 2112.04 1209.43 2172.33 1209.43C2196.32 1209.43 2215.81 1189.91 2215.81 1165.87ZM2568.96 1231.64C2568.96 1260.39 2542.98 1287.2 2510.93 1287.2L2466.89 1287.2 2466.89 1051 2382.81 1051 2382.81 1360.97 2516.36 1360.97C2591.78 1360.97 2652.91 1299.85 2652.91 1224.45L2652.91 1051 2568.93 1051 2568.93 1231.64ZM1560 1187.52 1560 1360.97 1643.98 1360.97 1643.98 1182.82C1643.98 1150.78 1669.97 1124.8 1702.02 1124.8L1746.02 1124.8 1746.02 1209.43 1714.54 1209.43C1691.59 1209.43 1670.73 1222.79 1661.14 1243.6L1643.98 1280.77 1746.02 1280.77 1746.02 1361 1830.11 1361 1830.11 1051.03 1696.55 1051.03C1621.13 1051.03 1560 1112.15 1560 1187.55ZM1887.1 1360.97 1971.09 1360.97 1971.09 1051.07 1887.1 1051.07 1887.1 1360.97ZM3516 1051.03 3425.12 1051.03C3425.12 1051.03 3341.14 1051.03 3341.14 1051.03 3341.14 1051.03 3250.26 1051.03 3250.26 1051.03L3250.26 1124.8 3341.14 1124.8 3341.14 1360.93 3425.12 1360.93 3425.12 1124.8 3516 1124.8 3516 1051.03Z" fill="#034EA1" fill-rule="evenodd" fill-opacity="1"/></g></g></svg>