<svg xmlns="http://www.w3.org/2000/svg" width="176" height="48" viewBox="0 0 176 48" fill="none"><path d="M60.7381 15.4866H59.3777L57.7954 12.872L56.2227 15.4866H54.8527L57.1008 11.8589L55.1521 8.7334H56.5124L57.7954 10.8753L59.1462 8.7334H60.4387L58.5187 11.811L60.7381 15.4866Z" fill="url(#paint0_linear_4968_772)"></path><path d="M66.3617 15.4866L65.6863 13.7214H63.0813L62.4059 15.4866H61.0455L63.7758 8.7334H64.9917L67.722 15.4866H66.3617ZM63.5163 12.5822H65.2527L64.6356 10.9616C64.539 10.7205 64.3849 10.2287 64.3849 10.2287C64.3849 10.2287 64.2212 10.7205 64.1342 10.9616L63.5163 12.5822Z" fill="url(#paint1_linear_4968_772)"></path><path d="M68.2234 15.4866V8.7334H69.4968V11.4541H72.449V8.7334H73.7224V15.4866H72.449V12.6309H69.4968V15.4866H68.2234Z" fill="url(#paint2_linear_4968_772)"></path><path d="M75.0533 15.4866V8.7334H79.7803V9.85266H76.3266V11.3H77.8898C79.2693 11.3 80.2632 12.0624 80.2632 13.3837C80.2632 14.705 79.2693 15.4866 77.8898 15.4866H75.0533ZM76.3274 14.3481H77.7939C78.6138 14.3481 78.9899 13.9817 78.9899 13.3837C78.9899 12.7857 78.6138 12.4193 77.7939 12.4193H76.3274V14.3481Z" fill="url(#paint3_linear_4968_772)"></path><path d="M80.9283 12.11C80.9283 10.0934 82.414 8.59814 84.4011 8.59814C86.3882 8.59814 87.8739 10.0934 87.8739 12.11C87.8739 14.1266 86.3882 15.6219 84.4011 15.6219C82.414 15.6219 80.9283 14.1266 80.9283 12.11ZM86.5821 12.11C86.5821 10.6531 85.6273 9.77565 84.4018 9.77565C83.1764 9.77565 82.2216 10.6538 82.2216 12.11C82.2216 13.5663 83.1764 14.4444 84.4018 14.4444C85.6273 14.4444 86.5821 13.567 86.5821 12.11Z" fill="url(#paint4_linear_4968_772)"></path><path d="M88.8103 15.4866V8.7334H93.4702V9.87183H90.0837V15.4866H88.8103Z" fill="url(#paint5_linear_4968_772)"></path><path d="M93.0743 16.7019V14.3093H93.6531C94.0483 13.499 94.2319 12.7757 94.3093 11.4441L94.4634 8.73291H98.9685V14.3093H99.9041V16.7019H98.7178V15.4861H94.2606V16.7019H93.0743ZM97.6959 14.3093V9.87134H95.6409L95.5539 11.4153C95.4765 12.7469 95.3416 13.4511 94.9943 14.3093H97.6959Z" fill="url(#paint6_linear_4968_772)"></path><path d="M100.734 15.4866V8.7334H102.008V11.1644H103.58C105.057 11.1644 106.051 11.8781 106.051 13.3159C106.051 14.7537 105.057 15.4866 103.58 15.4866H100.734ZM102.008 14.3481H103.484C104.352 14.3481 104.776 13.9721 104.776 13.3159C104.776 12.6597 104.352 12.2836 103.484 12.2836H102.008V14.3481ZM106.812 15.4866V8.7334H108.086V15.4866H106.812Z" fill="url(#paint7_linear_4968_772)"></path><path d="M109.416 15.4866V8.7334H110.69V11.4541H113.642V8.7334H114.915V15.4866H113.642V12.6309H110.69V15.4866H109.416Z" fill="url(#paint8_linear_4968_772)"></path><path d="M60.7381 25.9377H59.3777L57.7954 23.3232L56.2227 25.9377H54.8527L57.1008 22.3101L55.1521 19.1846H56.5124L57.7954 21.3265L59.1462 19.1846H60.4387L58.5187 22.2622L60.7381 25.9377Z" fill="url(#paint9_linear_4968_772)"></path><path d="M68.6194 25.9377V19.1846H73.2793V20.323H69.8927V25.9377H68.6194Z" fill="url(#paint10_linear_4968_772)"></path><path d="M80.0516 22.3588L83.0813 25.9377H81.499L79.4345 23.4876L78.9331 22.9088V25.9377H77.6597V22.9088L77.1583 23.4876L75.0938 25.9377H73.5115L76.5405 22.3588L73.6464 19.1846H75.2863L77.1289 21.2874C77.2734 21.4511 77.5248 21.7601 77.6597 21.9436V19.1846H78.9331V21.9436C79.068 21.7601 79.3187 21.4519 79.464 21.2874L81.3065 19.1846H82.9464L80.0516 22.3588Z" fill="url(#paint11_linear_4968_772)"></path><path d="M83.447 25.9375V24.7511C83.5628 24.7895 83.7073 24.8094 83.8717 24.8094C84.2477 24.8094 84.4793 24.6162 84.5471 23.6326C84.6149 22.6874 84.6245 22.012 84.6916 20.8057L84.7786 19.1851H89.5255V25.9382H88.2522V20.3235H85.9082L85.8794 20.864C85.8116 22.0606 85.7924 22.7552 85.7158 23.8641C85.6 25.4656 84.9829 26.0061 84.0855 26.0061C83.8326 26.0046 83.6203 25.9758 83.447 25.9375Z" fill="url(#paint12_linear_4968_772)"></path><path d="M90.8557 25.9375V19.1843H92.0907V24.1429C92.1777 23.9497 92.2743 23.786 92.3805 23.612L95.1108 19.1836H96.4033V25.9368H95.1683V20.9488C95.0717 21.1419 94.9847 21.3056 94.8785 21.4796L92.1482 25.9368H90.8557V25.9375Z" fill="url(#paint13_linear_4968_772)"></path><path d="M97.7342 25.9376V19.1845H98.9692V24.143C99.0562 23.9498 99.1528 23.7861 99.259 23.6121L101.989 19.1837H103.282V25.9369H102.047V20.9489C101.95 21.1421 101.863 21.3058 101.758 21.4798L99.0275 25.9369H97.7342V25.9376ZM99.4131 17.4385H100.146C100.146 17.67 100.281 17.8536 100.512 17.8536C100.744 17.8536 100.879 17.67 100.879 17.4385H101.612C101.612 18.0652 101.168 18.529 100.512 18.529C99.8555 18.529 99.4131 18.0652 99.4131 17.4385Z" fill="url(#paint14_linear_4968_772)"></path><path d="M104.613 25.9377V19.1846H105.886V21.9053H108.838V19.1846H110.112V25.9377H108.838V23.0821H105.886V25.9377H104.613Z" fill="url(#paint15_linear_4968_772)"></path><path d="M119.208 25.9377H117.848L116.265 23.3232L114.693 25.9377H113.323L115.571 22.3101L113.622 19.1846H114.982L116.265 21.3265L117.616 19.1846H118.909L116.989 22.2622L119.208 25.9377Z" fill="url(#paint16_linear_4968_772)"></path><path d="M123.819 19.1846H125.208L122.729 24.6644C122.247 25.735 121.745 26.0727 120.944 26.0727C120.5 26.0727 120.133 25.9857 119.921 25.8987V24.5095C120.23 24.6636 120.548 24.7602 120.905 24.7602C121.205 24.7602 121.407 24.6541 121.571 24.2876L121.697 24.0082L119.246 19.1846H120.684L122.354 22.5129L123.819 19.1846Z" fill="url(#paint17_linear_4968_772)"></path><path d="M125.71 25.9377V19.1846H128.778C130.302 19.1846 131.305 19.9661 131.305 21.384C131.305 22.8019 130.302 23.5835 128.778 23.5835H126.983V25.9377H125.71ZM126.983 22.445H128.739C129.627 22.445 130.031 22.0203 130.031 21.384C130.031 20.7477 129.626 20.323 128.739 20.323H126.983V22.445Z" fill="url(#paint18_linear_4968_772)"></path><path d="M130.987 27.1536V24.761H131.566C131.961 23.9507 132.145 23.2273 132.222 21.8957L132.376 19.1846H136.881V24.761H137.817V27.1536H136.63V25.9377H132.173V27.1536H130.987ZM135.608 24.761V20.323H133.554L133.467 21.867C133.389 23.1986 133.254 23.9027 132.907 24.761H135.608Z" fill="url(#paint19_linear_4968_772)"></path><path d="M143.547 25.9377L142.872 24.1726H140.268L139.592 25.9377H138.232L140.962 19.1846H142.178L144.908 25.9377H143.547ZM140.701 23.0334H142.438L141.82 21.4128C141.724 21.1717 141.57 20.6799 141.57 20.6799C141.57 20.6799 141.406 21.1717 141.319 21.4128L140.701 23.0334Z" fill="url(#paint20_linear_4968_772)"></path><path d="M144.898 22.5607C144.898 20.4579 146.422 19.0488 148.4 19.0488C149.751 19.0488 150.793 19.6859 151.227 20.5633L150.195 21.3065C149.819 20.612 149.24 20.2263 148.362 20.2263C147.176 20.2263 146.191 21.1237 146.191 22.5607C146.191 23.9498 147.156 24.8951 148.362 24.8951C149.153 24.8951 149.77 24.5382 150.195 23.8628L151.189 24.5766C150.485 25.5992 149.703 26.0719 148.352 26.0719C146.365 26.0726 144.898 24.6643 144.898 22.5607Z" fill="url(#paint21_linear_4968_772)"></path><path d="M152.094 25.9377V19.1846H156.754V20.323H153.368V25.9377H152.094Z" fill="url(#paint22_linear_4968_772)"></path><path d="M161.867 19.1846H163.256L160.776 24.6644C160.294 25.735 159.792 26.0727 158.991 26.0727C158.547 26.0727 158.181 25.9857 157.969 25.8987V24.5095C158.278 24.6636 158.595 24.7602 158.953 24.7602C159.252 24.7602 159.454 24.6541 159.619 24.2876L159.744 24.0082L157.294 19.1846H158.732L160.401 22.5129L161.867 19.1846Z" fill="url(#paint23_linear_4968_772)"></path><path d="M167.906 19.1846H169.295L166.816 24.6644C166.334 25.735 165.832 26.0727 165.031 26.0727C164.587 26.0727 164.22 25.9857 164.008 25.8987V24.5095C164.317 24.6636 164.635 24.7602 164.992 24.7602C165.292 24.7602 165.494 24.6541 165.658 24.2876L165.784 24.0082L163.333 19.1846H164.771L166.441 22.5129L167.906 19.1846Z" fill="url(#paint24_linear_4968_772)"></path><path d="M169.797 25.9377V19.1846H172.865C174.389 19.1846 175.392 19.9661 175.392 21.384C175.392 22.8019 174.389 23.5835 172.865 23.5835H171.07V25.9377H169.797ZM171.07 22.445H172.826C173.714 22.445 174.118 22.0203 174.118 21.384C174.118 20.7477 173.713 20.323 172.826 20.323H171.07V22.445Z" fill="url(#paint25_linear_4968_772)"></path><path d="M55.2678 33.0124C55.2678 30.9958 56.7535 29.5005 58.7406 29.5005C60.7277 29.5005 62.2134 30.9958 62.2134 33.0124C62.2134 35.029 60.7277 36.5243 58.7406 36.5243C56.7535 36.5235 55.2678 35.0282 55.2678 33.0124ZM60.9209 33.0124C60.9209 31.5554 59.9661 30.678 58.7406 30.678C57.5152 30.678 56.5604 31.5562 56.5604 33.0124C56.5604 34.4693 57.5152 35.3475 58.7406 35.3475C59.9661 35.3475 60.9209 34.4686 60.9209 33.0124Z" fill="url(#paint26_linear_4968_772)"></path><path d="M71.8326 33.0121C71.8326 35.0287 70.4044 36.524 68.4947 36.524C66.7679 36.524 65.4459 35.3178 65.1952 33.6005H64.4232V36.3884H63.1499V29.6352H64.4232V32.423H65.1952C65.4459 30.7058 66.7679 29.4995 68.4947 29.4995C70.4044 29.5002 71.8326 30.9955 71.8326 33.0121ZM70.5394 33.0121C70.5394 31.6038 69.6708 30.6778 68.494 30.6778C67.3172 30.6778 66.4487 31.6038 66.4487 33.0121C66.4487 34.4204 67.3172 35.3473 68.494 35.3473C69.642 35.3465 70.5394 34.4204 70.5394 33.0121Z" fill="url(#paint27_linear_4968_772)"></path><path d="M76.4431 29.6353H77.8323L75.3526 35.1151C74.8704 36.1857 74.3683 36.5234 73.5676 36.5234C73.1237 36.5234 72.7572 36.4364 72.5449 36.3494V34.9602C72.8538 35.1143 73.1716 35.2109 73.5292 35.2109C73.8286 35.2109 74.0306 35.1047 74.195 34.7383L74.3204 34.4588L71.8702 29.6353H73.308L74.9773 32.9635L76.4431 29.6353Z" fill="url(#paint28_linear_4968_772)"></path><path d="M82.5976 36.3884V30.812H80.5331V29.6353H85.9355V30.812H83.871V36.3884H82.5976Z" fill="url(#paint29_linear_4968_772)"></path><path d="M86.0129 33.0124C86.0129 30.9958 87.4986 29.5005 89.4857 29.5005C91.4728 29.5005 92.9585 30.9958 92.9585 33.0124C92.9585 35.029 91.4728 36.5243 89.4857 36.5243C87.4986 36.5243 86.0129 35.0282 86.0129 33.0124ZM91.666 33.0124C91.666 31.5554 90.7112 30.678 89.4857 30.678C88.2603 30.678 87.3054 31.5562 87.3054 33.0124C87.3054 34.4693 88.2603 35.3475 89.4857 35.3475C90.7112 35.3475 91.666 34.4686 91.666 33.0124Z" fill="url(#paint30_linear_4968_772)"></path><path d="M93.123 36.3887V35.2023C93.2387 35.2407 93.3832 35.2606 93.5477 35.2606C93.9237 35.2606 94.1552 35.0674 94.2231 34.0838C94.2909 33.1385 94.3005 32.4631 94.3676 31.2569L94.4546 29.6362H99.2015V36.3894H97.9281V30.7739H95.5834L95.5547 31.3144C95.4868 32.5103 95.4677 33.2056 95.391 34.3146C95.2752 35.916 94.6581 36.4565 93.7607 36.4565C93.5086 36.4565 93.2962 36.427 93.123 36.3887Z" fill="url(#paint31_linear_4968_772)"></path><path d="M100.532 36.3884V29.6353H105.192V30.7737H101.805V36.3884H100.532Z" fill="url(#paint32_linear_4968_772)"></path><path d="M105.268 33.0124C105.268 30.9958 106.754 29.5005 108.741 29.5005C110.728 29.5005 112.214 30.9958 112.214 33.0124C112.214 35.029 110.728 36.5243 108.741 36.5243C106.754 36.5235 105.268 35.0282 105.268 33.0124ZM110.922 33.0124C110.922 31.5554 109.967 30.678 108.742 30.678C107.516 30.678 106.561 31.5562 106.561 33.0124C106.561 34.4693 107.516 35.3475 108.742 35.3475C109.967 35.3475 110.922 34.4686 110.922 33.0124Z" fill="url(#paint33_linear_4968_772)"></path><path d="M113.15 36.3883V29.6352H114.385V34.5937C114.472 34.4005 114.569 34.2368 114.675 34.0628L117.405 29.6344H118.698V36.3876H117.463V31.4003C117.366 31.5935 117.279 31.7572 117.173 31.9312L114.443 36.3883H113.15ZM114.829 27.8892H115.562C115.562 28.1207 115.697 28.3043 115.928 28.3043C116.16 28.3043 116.295 28.1207 116.295 27.8892H117.028C117.028 28.5159 116.584 28.9797 115.928 28.9797C115.272 28.9797 114.829 28.5159 114.829 27.8892Z" fill="url(#paint34_linear_4968_772)"></path><path d="M120.029 36.3884V29.6353H121.302V32.356H124.254V29.6353H125.528V36.3884H124.254V33.5328H121.302V36.3884H120.029Z" fill="url(#paint35_linear_4968_772)"></path><path d="M129.154 33.0124C129.154 30.9095 130.678 29.5005 132.656 29.5005C134.007 29.5005 135.049 30.1375 135.483 31.015L134.451 31.7574C134.075 31.0629 133.496 30.6773 132.618 30.6773C131.432 30.6773 130.447 31.5746 130.447 33.0116C130.447 34.4008 131.412 35.3468 132.618 35.3468C133.409 35.3468 134.026 34.9899 134.451 34.3145L135.445 35.0282C134.741 36.0509 133.959 36.5235 132.608 36.5235C130.62 36.5235 129.154 35.1152 129.154 33.0124Z" fill="url(#paint36_linear_4968_772)"></path><path d="M141.001 36.3884L140.326 34.6233H137.721L137.046 36.3884H135.685L138.415 29.6353H139.631L142.362 36.3884H141.001ZM138.155 33.4848H139.892L139.274 31.8642C139.178 31.6231 139.024 31.1313 139.024 31.1313C139.024 31.1313 138.86 31.6231 138.773 31.8642L138.155 33.4848Z" fill="url(#paint37_linear_4968_772)"></path><path d="M142.863 36.3884V29.6353H144.136V32.356H147.089V29.6353H148.362V36.3884H147.089V33.5328H144.136V36.3884H142.863Z" fill="url(#paint38_linear_4968_772)"></path><path d="M23.9631 0.875945C36.7137 0.875945 47.0503 11.2125 47.0503 23.9631C47.0503 36.7137 36.7137 47.0503 23.9631 47.0503C11.2125 47.0503 0.875945 36.7137 0.875945 23.9631C0.875945 11.2125 11.2125 0.875945 23.9631 0.875945ZM23.9631 0C17.5624 0 11.5443 2.4929 7.01862 7.01862C2.4929 11.5443 0 17.5624 0 23.9631C0 37.1768 10.7495 47.9263 23.9631 47.9263C37.1768 47.9263 47.9263 37.1768 47.9263 23.9631C47.9263 10.7495 37.1768 0 23.9631 0Z" fill="url(#paint39_linear_4968_772)"></path><path d="M13.0241 11.8454C12.1165 11.5335 11.1875 11.4612 10.2452 11.5298C9.50267 11.5844 8.78009 11.7458 8.08332 12.0209C8.37456 11.9604 8.66433 11.8955 8.95705 11.8417C9.69512 11.7053 10.4376 11.605 11.1897 11.6286C11.7655 11.6463 12.3333 11.723 12.8641 11.97C13.1259 12.0916 13.1347 12.1189 12.9541 12.3394C12.2448 13.2057 11.3512 13.7373 10.2194 13.8089C9.66046 13.8443 9.11705 13.7329 8.59429 13.5324C7.92553 13.2765 7.25235 13.0354 6.54231 12.916C6.25696 12.868 5.9694 12.8902 5.68701 12.899C5.6671 12.8341 5.7047 12.8083 5.73125 12.7803C6.53346 11.9375 7.44627 11.2585 8.55816 10.8765C10.1065 10.3449 11.5082 10.6561 12.7948 11.6183C12.8782 11.6809 12.9777 11.7296 13.0241 11.8454Z" fill="url(#paint40_linear_4968_772)"></path><path d="M16.0848 6.25151C17.0249 6.44543 17.9502 6.69022 18.8085 7.13778C19.1749 7.32875 19.5185 7.55658 19.7876 7.8788C19.9462 8.06903 19.9395 8.09041 19.7272 8.20101C18.4855 8.84543 17.0912 8.64193 16.0841 7.65907C15.6925 7.27714 15.3062 6.89078 14.8697 6.55898C14.6175 6.36654 14.3469 6.20949 14.0122 6.12027C14.0586 6.07898 14.0748 6.05612 14.0962 6.04727C15.0687 5.65428 16.0671 5.43677 17.1222 5.59603C18.2334 5.76414 19.0687 6.34958 19.6756 7.28156C19.7913 7.45926 19.9145 7.63327 19.9594 7.85446C19.2995 7.23511 18.5224 6.83105 17.673 6.55751C17.1569 6.39087 16.6267 6.29428 16.0848 6.25151Z" fill="url(#paint41_linear_4968_772)"></path><path d="M36.6599 11.9529C37.1104 11.7863 37.5653 11.6455 38.0512 11.6167C39.0665 11.5562 39.9137 11.9308 40.6481 12.5988C41.1583 13.0626 41.5499 13.6193 41.8691 14.2276C41.9001 14.2858 41.9178 14.3507 41.9613 14.4643C41.7386 14.3802 41.5572 14.302 41.3618 14.274C40.8037 14.1937 40.2426 14.2077 39.6844 14.2526C38.2865 14.3647 37.1465 13.6643 36.6223 12.3437C36.5545 12.1719 36.6326 12.1299 36.7794 12.1085C37.3301 12.0289 37.8536 12.1491 38.3705 12.3179C38.9242 12.4993 39.4544 12.7338 39.9587 13.0265C40.0096 13.056 40.0649 13.0773 40.1246 13.0914C39.9454 12.9299 39.736 12.8149 39.5259 12.705C38.689 12.2685 37.8109 11.9795 36.8524 12.0009C36.7845 12.0023 36.7167 12.0001 36.6607 11.9522L36.6599 11.9529Z" fill="url(#paint42_linear_4968_772)"></path><path d="M28.1755 4.36651C28.3465 4.96079 28.5073 5.55287 28.5847 6.16485C28.6459 6.65148 28.6503 7.13443 28.5065 7.60927C28.4284 7.86734 28.3827 7.88282 28.1593 7.72946C27.4013 7.20817 26.9545 6.50033 26.8992 5.57277C26.8793 5.23582 26.9375 4.90107 27.0253 4.57222C27.1654 4.04356 27.3091 3.51489 27.2988 2.95969C27.2959 2.79305 27.2848 2.62789 27.2516 2.46715C27.3047 2.44872 27.3298 2.47526 27.3556 2.49517C28.191 3.13296 28.8494 3.90641 29.1532 4.9313C29.4584 5.96429 29.2011 6.89849 28.598 7.76337C28.6931 7.18531 28.7204 6.60724 28.6488 6.02697C28.5773 5.44817 28.4203 4.89296 28.1755 4.36651Z" fill="url(#paint43_linear_4968_772)"></path><path d="M26.2024 14.8316C26.3712 14.6922 26.543 14.6502 26.7067 14.5941C27.5923 14.2889 28.4925 14.1746 29.4142 14.4135C30.3123 14.6465 31.1786 15.4104 31.4809 16.2524C30.5799 15.4841 29.527 15.0911 28.362 14.9783C28.525 15.0188 28.6887 15.0579 28.8516 15.0992C29.0219 15.142 29.1923 15.1818 29.3604 15.2319C29.9325 15.4008 30.4841 15.6168 30.9751 15.967C31.1189 16.0695 31.2406 16.1956 31.3652 16.3195C31.4765 16.4293 31.4699 16.509 31.3283 16.582C30.5224 16.9971 29.6995 17.09 28.8531 16.7103C28.4844 16.5451 28.1718 16.2996 27.8887 16.0157C27.5399 15.6655 27.1705 15.3418 26.751 15.0771C26.5902 14.9753 26.4184 14.9031 26.2024 14.8316Z" fill="url(#paint44_linear_4968_772)"></path><path d="M18.1523 14.965C18.3521 14.8426 18.5615 14.8544 18.7546 14.8382C19.4603 14.7807 20.1585 14.8138 20.8317 15.0675C21.9082 15.4723 22.5246 16.2752 22.8188 17.3569C22.8232 17.3746 22.8173 17.3945 22.8129 17.4719C22.1427 16.537 21.2675 15.953 20.2256 15.6072C20.3045 15.6441 20.3834 15.6795 20.4616 15.7171C20.5405 15.7554 20.6186 15.7945 20.6968 15.835C21.1915 16.0879 21.6627 16.3762 22.0837 16.7419C22.3255 16.9513 22.5298 17.1917 22.6853 17.4726C22.7539 17.5972 22.737 17.668 22.5895 17.7056C21.4673 17.988 20.3856 17.7064 19.6645 16.7036C19.3335 16.2435 19.0437 15.7547 18.644 15.3447C18.5025 15.1987 18.3307 15.0962 18.1523 14.965Z" fill="url(#paint45_linear_4968_772)"></path><path d="M43.9661 20.6785C44.1961 21.0191 44.4269 21.3568 44.5515 21.7572C44.8177 22.6125 44.8 23.4715 44.609 24.3356C44.6039 24.3592 44.5854 24.3798 44.5641 24.4197C44.435 24.2626 44.3569 24.0915 44.2271 23.9559C43.8835 23.5983 43.4957 23.2967 43.0887 23.0173C42.3277 22.4952 41.8883 21.7874 41.8588 20.8532C41.8492 20.5354 41.9075 20.2221 42.0055 19.9175C42.0527 19.7723 42.1309 19.7671 42.2496 19.8379C42.5947 20.0414 42.8512 20.3363 43.085 20.6519C43.4935 21.2042 43.7825 21.8213 44.0376 22.4547C44.0494 22.4849 44.0619 22.5144 44.0877 22.5373C43.7574 21.4335 43.2155 20.4639 42.2688 19.7339C42.6013 19.7074 43.2111 20.0303 43.8304 20.5428C43.8761 20.5885 43.9211 20.6335 43.9661 20.6785Z" fill="url(#paint46_linear_4968_772)"></path><path d="M1.55797 23.1325C1.67963 22.8361 1.86248 22.6282 2.03723 22.4181C2.58212 21.7611 3.22359 21.2384 4.06709 21.012C4.90248 20.7871 5.67889 20.9655 6.42507 21.3836C5.33087 21.2841 4.32073 21.5466 3.36884 22.0619C3.70212 21.9432 4.0317 21.8113 4.3694 21.7073C4.96442 21.5244 5.56387 21.3644 6.19871 21.4699C6.56368 21.5303 6.58359 21.5628 6.40589 21.8813C5.84626 22.8841 4.80294 23.3663 3.6247 23.1724C3.05253 23.078 2.47963 22.9755 1.89566 23.0655C1.79686 23.0802 1.69953 23.1038 1.55797 23.1325Z" fill="url(#paint47_linear_4968_772)"></path><path d="M11.3054 7.94729C11.4824 8.98619 11.8879 9.91817 12.6665 10.7196C12.4549 10.6828 12.3215 10.5965 12.1888 10.5161C10.9928 9.78914 10.5593 8.69715 10.6846 7.34342C10.7237 6.91798 10.8203 6.50361 10.9648 6.10176C10.9862 6.0413 10.9869 5.9661 11.0702 5.9248C11.29 6.53457 11.7604 6.94821 12.2079 7.37586C12.5537 7.70619 12.8634 8.05715 13.0352 8.51209C13.2903 9.18821 13.2291 9.8496 12.9453 10.5014C12.8774 10.657 12.8015 10.6894 12.6592 10.5729C12.2308 10.2242 11.9853 9.75227 11.767 9.26342C11.576 8.83798 11.4441 8.39116 11.3054 7.94729Z" fill="url(#paint48_linear_4968_772)"></path><path d="M41.8595 27.4839C41.5543 26.515 41.0529 25.6745 40.247 25.0264C41.0396 25.2203 41.6804 25.6361 42.0874 26.3462C42.6381 27.3069 42.6263 28.3318 42.372 29.4304C42.004 28.7838 41.4511 28.4181 40.9143 28.0354C40.0059 27.3873 39.6372 26.3211 39.9639 25.2844C40.0332 25.064 40.059 25.0514 40.2558 25.1746C40.7417 25.4783 41.0448 25.9407 41.3272 26.4207C41.5292 26.7628 41.6929 27.1248 41.8595 27.4839Z" fill="url(#paint49_linear_4968_772)"></path><path d="M17.8256 2.4585C18.9265 2.58605 19.9078 2.94439 20.5751 3.88227C20.9681 4.4338 21.0787 5.06642 21.0079 5.73813C20.7108 4.90642 20.202 4.23472 19.5207 3.68762C19.7132 3.89702 19.9093 4.10274 20.0966 4.3173C20.4417 4.71177 20.7366 5.13721 20.8708 5.65407C20.932 5.89002 20.8966 5.92836 20.6496 5.92098C19.8017 5.89518 18.9633 5.30679 18.661 4.51269C18.5725 4.27969 18.5062 4.03785 18.4369 3.79822C18.3668 3.55785 18.2872 3.32191 18.1891 3.09186C18.0947 2.86771 17.9738 2.66126 17.8256 2.4585Z" fill="url(#paint50_linear_4968_772)"></path><path d="M9.16645 16.0907C9.20921 16.0782 9.25198 16.0656 9.29474 16.0538C9.54322 16.0273 9.78654 15.944 10.0512 15.9934C9.22101 16.3716 8.59944 16.9689 8.12387 17.7268C8.26617 17.5764 8.39299 17.4105 8.53014 17.2542C8.90101 16.831 9.29548 16.4343 9.81456 16.1902C10.2053 16.0066 10.2665 16.0553 10.2511 16.48C10.2334 16.9615 10.0667 17.3877 9.82341 17.7917L9.82488 17.7888C9.42156 18.2526 8.89216 18.504 8.32884 18.7178C7.94617 18.8631 7.56571 19.0334 7.27521 19.3445C7.2494 19.3718 7.2258 19.4197 7.17714 19.3954C7.13511 19.3733 7.14396 19.3246 7.14617 19.2863C7.21622 18.0579 7.65861 16.6267 9.13179 16.1114C9.14433 16.1069 9.15539 16.0973 9.16645 16.0907Z" fill="url(#paint51_linear_4968_772)"></path><path d="M32.7639 10.9222C33.5159 10.4901 34.0549 9.90612 34.4184 9.16069C34.3344 9.28603 34.2511 9.41285 34.1648 9.53746C33.864 9.9747 33.5152 10.367 33.075 10.6685C32.9482 10.7555 32.7963 10.8905 32.6577 10.8256C32.508 10.7555 32.5611 10.5505 32.5559 10.4001C32.5198 9.40695 32.9851 8.7146 33.8477 8.26557C34.3388 8.00972 34.8409 7.77082 35.2081 7.33359C35.228 7.31 35.2487 7.27018 35.2885 7.29599C35.3342 7.32622 35.3253 7.38004 35.3268 7.42576C35.3475 7.94852 35.3091 8.46391 35.1572 8.96824C34.8299 10.0529 34.108 10.701 33.0005 10.9244C32.9541 10.934 32.9076 10.9391 32.8605 10.9428C32.8413 10.945 32.8221 10.9354 32.7639 10.9222Z" fill="url(#paint52_linear_4968_772)"></path><path d="M12.2514 18.2622C13.2387 17.1879 15.7648 17.4194 16.2241 18.6073C16.1747 18.6405 16.1386 18.5807 16.0929 18.5881C16.0708 18.6102 16.0914 18.622 16.1054 18.6346C16.2831 18.7887 16.2824 18.8041 16.0914 18.9398C15.2944 19.5053 14.4169 19.4906 13.5897 18.9081C13.1863 18.6242 12.7631 18.375 12.2514 18.2622Z" fill="url(#paint53_linear_4968_772)"></path><path d="M22.3115 4.25093C22.271 4.36301 22.2304 4.47508 22.1825 4.60854C21.8463 3.20688 23.0422 1.89001 24.7093 1.72559C24.3642 2.17904 24.2802 2.71582 24.1482 3.23711C23.9417 4.04964 23.4182 4.53923 22.6013 4.71471C22.2651 4.78697 22.2105 4.72503 22.3027 4.38807C22.3152 4.34383 22.327 4.2996 22.3395 4.25462C22.3292 4.25388 22.3204 4.25241 22.3115 4.25093Z" fill="url(#paint54_linear_4968_772)"></path><path d="M37.179 15.8563C37.0699 15.8371 36.9615 15.818 36.8472 15.7981C37.0286 15.6226 37.7254 15.5724 38.1862 15.6948C39.0076 15.9131 39.7936 16.747 40.0708 17.7055C39.9477 17.7136 39.8599 17.6266 39.7545 17.6008C39.3851 17.5094 39.0112 17.4755 38.6315 17.4666C38.184 17.4556 37.7659 17.3465 37.4024 17.0655C37.0684 16.8075 36.8686 16.4646 36.7359 16.0723C36.6835 15.9175 36.7359 15.8578 36.8944 15.8674C36.988 15.8733 37.0824 15.8681 37.176 15.8681C37.1775 15.8652 37.1783 15.8607 37.179 15.8563Z" fill="url(#paint55_linear_4968_772)"></path><path d="M37.3117 20.5953C36.7159 20.3609 36.0951 20.2665 35.402 20.3778C36.6518 19.4842 38.2112 20.0807 39.0415 21.4646C38.9375 21.5074 38.8439 21.4462 38.7495 21.4425C38.3749 21.427 38.0107 21.4853 37.645 21.5568C37.0942 21.6652 36.5545 21.6615 36.0678 21.3282C35.8083 21.1505 35.5982 20.9257 35.4337 20.6558C35.3489 20.5164 35.3865 20.4457 35.5347 20.4125C35.8289 20.3469 36.1261 20.3594 36.4203 20.3963C36.7218 20.4346 37.0146 20.5179 37.3117 20.5953Z" fill="url(#paint56_linear_4968_772)"></path><path d="M30.0321 5.80377C29.993 5.85686 29.9539 5.90994 29.9148 5.96303C29.8993 5.95492 29.8846 5.94607 29.8691 5.93796C29.9598 5.41225 30.2002 4.96395 30.6094 4.60561C31.2405 4.05188 32.393 3.91842 33.0617 4.10275C32.5891 4.45298 32.351 4.96616 32.0361 5.42183C31.5841 6.07584 30.9515 6.3199 30.1729 6.20709C29.9111 6.16948 29.8927 6.13188 30.0166 5.90109C30.0321 5.87308 30.0475 5.84506 30.063 5.81704C30.0534 5.81261 30.0424 5.80819 30.0321 5.80377Z" fill="url(#paint57_linear_4968_772)"></path><path d="M25.7349 6.46387C26.0564 6.71235 26.2791 6.97852 26.4811 7.26239C27.099 8.1317 27.127 9.13447 26.5593 9.96543C26.3956 10.2051 26.2496 10.222 26.0306 10.0259C25.3884 9.45299 25.2048 8.75843 25.4717 7.94C25.6214 7.4799 25.7865 7.02055 25.7349 6.46387Z" fill="url(#paint58_linear_4968_772)"></path><path d="M18.8888 12.0554C18.7982 11.9875 18.8439 11.8629 18.7768 11.7833C18.7701 11.7966 18.7591 11.8076 18.7606 11.8157C18.8321 12.2264 18.7945 12.2581 18.3875 12.135C17.6103 11.8991 17.1724 11.3697 17.0345 10.5792C16.9814 10.2733 16.929 9.968 16.8354 9.67012C16.7808 9.49537 16.6938 9.33906 16.5913 9.18201C17.9178 9.12376 19.3858 10.9708 18.8888 12.0554Z" fill="url(#paint59_linear_4968_772)"></path><path d="M11.2641 22.9623C11.2929 23.0301 11.3076 23.0648 11.3416 23.1466C10.9692 22.9417 10.6994 22.688 10.4914 22.3739C10.0837 21.7553 10.066 21.0829 10.2474 20.389C10.3159 20.1273 10.4096 19.8744 10.5335 19.6333C10.5548 19.592 10.5644 19.533 10.6175 19.5286C10.6669 19.5242 10.6706 19.578 10.6831 19.6156C10.8195 20.0285 11.0835 20.361 11.3622 20.684C11.9447 21.3586 12.0413 22.1763 11.624 22.9159C11.503 23.1282 11.4846 23.1326 11.2641 22.9623Z" fill="url(#paint60_linear_4968_772)"></path><path d="M2.47004 27.4921C2.17585 26.4406 2.45161 24.9092 3.86433 24.4381C3.97272 24.4019 3.97198 24.4005 4.087 24.4838C4.09511 24.4897 4.11428 24.4897 4.12387 24.4845C4.34728 24.3673 4.34212 24.5582 4.3635 24.6755C4.4999 25.4312 4.25806 26.0425 3.63723 26.4974C3.37106 26.6921 3.07981 26.8528 2.83281 27.074C2.70304 27.1905 2.58212 27.3151 2.47004 27.4921Z" fill="url(#paint61_linear_4968_772)"></path><path d="M31.3305 26.8146C31.4013 26.2092 31.6159 25.6695 32.0111 25.2042C32.4704 24.6623 33.0662 24.4551 33.7585 24.4794C33.9849 24.4876 34.1021 24.6328 34.0608 24.8606C33.9222 25.6164 33.4923 26.1119 32.7454 26.3198C32.6157 26.3559 32.4815 26.3773 32.351 26.4112C31.9993 26.5027 31.6468 26.5956 31.3305 26.8146Z" fill="url(#paint62_linear_4968_772)"></path><path d="M42.6153 18.3648C42.5969 17.769 42.8689 17.3148 43.3276 16.9639C43.6807 16.6933 44.0538 16.4463 44.2957 16.0569C44.3598 15.9537 44.4033 16.0009 44.4225 16.0857C44.6842 17.2168 44.4697 18.5801 43.0769 19.1021C43.0135 19.1257 43.0135 19.1257 42.9323 19.0512C42.9279 19.0475 42.9235 19.0387 42.9205 19.0394C42.5128 19.1286 42.7089 18.7688 42.6219 18.6236C42.5829 18.5594 42.6153 18.4525 42.6153 18.3648Z" fill="url(#paint63_linear_4968_772)"></path><path d="M19.7611 12.7559C20.2256 12.7632 20.7852 13.0154 21.3095 13.3664C21.336 13.3841 21.367 13.4128 21.3707 13.4408C21.3766 13.4814 21.3338 13.4888 21.2999 13.4932C20.8693 13.5441 20.5198 13.78 20.1629 13.9961C19.4234 14.4451 18.7023 14.4193 18.0306 13.9127C17.8875 13.8051 17.8676 13.6385 17.9804 13.502C18.3653 13.0375 18.9736 12.7537 19.7611 12.7559Z" fill="url(#paint64_linear_4968_772)"></path><path d="M38.1626 9.1437C38.1405 9.88546 37.9805 10.5778 37.4068 11.105C37.1104 11.3771 36.7491 11.5231 36.3591 11.5997C36.1939 11.6322 36.0774 11.5349 36.0487 11.3631C35.9263 10.6331 36.2595 9.9437 36.915 9.56914C37.1723 9.42168 37.4393 9.29043 37.6818 9.11716C37.7924 9.03827 37.892 8.94905 37.9871 8.85246C38.0254 8.81338 38.0439 8.72195 38.1176 8.7544C38.1795 8.78168 38.1589 8.86205 38.1618 8.92029C38.1655 8.9955 38.1626 9.06997 38.1626 9.1437Z" fill="url(#paint65_linear_4968_772)"></path><path d="M5.16866 15.1132C6.41695 14.6383 7.90635 14.9487 8.34211 16.3364C8.20128 16.2804 8.1423 16.1462 7.97935 16.0577C8.07446 16.1602 8.13566 16.2236 8.19391 16.2892C8.34727 16.4632 8.33769 16.5052 8.12755 16.5827C7.44626 16.8326 6.72958 16.6475 6.23557 16.0813C5.92589 15.7266 5.64939 15.3388 5.16866 15.1132Z" fill="url(#paint66_linear_4968_772)"></path><path d="M24.177 6.96191C24.0376 7.41684 24.1143 7.86145 24.1526 8.30238C24.2131 8.9962 23.854 9.64136 23.2258 9.93629C23.1358 9.97832 23.0746 10.0233 22.984 9.88689C22.7672 9.56099 22.675 9.37887 22.6735 9.03233C22.6721 8.67325 22.7642 8.33703 22.9515 8.03104C23.2479 7.54883 23.6601 7.19786 24.177 6.96191Z" fill="url(#paint67_linear_4968_772)"></path><path d="M31.6822 7.64019C31.6608 8.29936 31.5134 8.90839 30.998 9.37217C30.7399 9.60443 30.4288 9.72904 30.0962 9.80203C29.9207 9.84037 29.7806 9.72682 29.7674 9.53438C29.7224 8.90249 29.948 8.39963 30.4951 8.0612C30.7583 7.89825 31.0496 7.78249 31.2995 7.59742C31.3806 7.5377 31.4529 7.46691 31.5303 7.40203C31.5642 7.37401 31.5834 7.3106 31.6402 7.33272C31.6947 7.35337 31.6778 7.41309 31.6807 7.45807C31.6859 7.51853 31.6822 7.57973 31.6822 7.64019Z" fill="url(#paint68_linear_4968_772)"></path><path d="M35.6601 12.8982C35.6638 13.5028 35.4094 13.9769 34.9242 14.3308C34.7487 14.4591 34.6204 14.4303 34.5165 14.2423C34.195 13.662 34.2326 13.1054 34.6293 12.5745C34.8468 12.2832 35.0931 12.0097 35.1963 11.6484C35.2029 11.6255 35.2236 11.5924 35.2413 11.5894C35.3025 11.5798 35.315 11.6388 35.3357 11.6772C35.5362 12.0584 35.6623 12.4602 35.6601 12.8982Z" fill="url(#paint69_linear_4968_772)"></path><path d="M44.1224 24.9007C43.7803 25.1366 43.4441 25.2664 43.0842 25.321C42.3919 25.4249 41.8042 25.2318 41.3604 24.667C41.2004 24.4635 41.2232 24.3477 41.4533 24.2231C42.0041 23.9245 42.5386 23.9466 43.0547 24.3049C43.3792 24.5306 43.6859 24.7871 44.1224 24.9007Z" fill="url(#paint70_linear_4968_772)"></path><path d="M24.4918 5.05811C24.8811 5.07506 25.3073 5.20926 25.6995 5.4511C25.7364 5.47396 25.7983 5.4887 25.7806 5.54916C25.7747 5.57055 25.7283 5.58751 25.6981 5.5934C25.3618 5.65976 25.1001 5.86843 24.8302 6.05718C24.2787 6.44207 23.6741 6.46271 23.1491 6.09995C22.9913 5.99156 22.9722 5.87359 23.0857 5.71433C23.3615 5.32797 23.9086 5.05811 24.4918 5.05811Z" fill="url(#paint71_linear_4968_772)"></path><path d="M38.0063 27.3145C38.0063 27.3345 38.0085 27.3551 38.0055 27.375C37.9974 27.4384 38.035 27.5262 37.9598 27.5549C37.8964 27.5792 37.864 27.4945 37.8197 27.4583C37.5565 27.2408 37.2431 27.1125 36.9452 26.9562C36.4158 26.6782 36.1703 26.2277 36.1711 25.6386C36.1711 25.3864 36.2861 25.3039 36.5346 25.3555C37.3117 25.5155 37.8212 26.064 37.9598 26.8928C37.9834 27.0321 37.9959 27.173 38.0144 27.3131C38.0122 27.3138 38.0092 27.3138 38.0063 27.3145Z" fill="url(#paint72_linear_4968_772)"></path><path d="M8.67686 28.1649C8.66359 27.5013 8.92755 27.0301 9.43778 26.6902C9.63612 26.5582 9.75705 26.5885 9.85437 26.7986C10.1235 27.3804 10.0063 27.9031 9.59557 28.3706C9.38101 28.6139 9.15612 28.8462 9.03152 29.1529C9.01898 29.1831 9.01087 29.2244 8.96884 29.2222C8.9106 29.2193 8.89954 29.1632 8.88331 29.1219C8.75723 28.8005 8.66064 28.4716 8.67686 28.1649Z" fill="url(#paint73_linear_4968_772)"></path><path d="M15.3718 8.08191C15.3762 8.24265 15.2686 8.34219 15.11 8.33039C14.5106 8.28468 14.1316 7.96099 13.934 7.40431C13.8374 7.1315 13.7482 6.85426 13.558 6.62569C13.4953 6.55048 13.5248 6.50993 13.6111 6.51878C14.5231 6.6161 15.2988 7.06219 15.3718 8.08191Z" fill="url(#paint74_linear_4968_772)"></path><path d="M33.4687 14.4424C33.8345 15.2667 33.7017 16.3056 32.8059 16.7576C32.6179 16.852 32.5242 16.8262 32.4505 16.6241C32.2684 16.1264 32.3605 15.6752 32.7299 15.3006C32.9873 15.0374 33.2866 14.814 33.4687 14.4424Z" fill="url(#paint75_linear_4968_772)"></path><path d="M43.9661 20.6787C43.9211 20.6337 43.8761 20.5888 43.8311 20.543C43.7817 20.4324 43.7279 20.3233 43.6829 20.2112C43.5996 20.0018 43.6453 19.9207 43.8702 19.8669C44.435 19.732 44.9098 19.9016 45.3073 20.3064C45.5122 20.515 45.6612 20.765 45.7755 21.0348C45.7924 21.0747 45.8271 21.1255 45.7784 21.1646C45.743 21.1926 45.7025 21.1631 45.6649 21.1491C45.4334 21.0643 45.193 21.0415 44.9489 21.0385C44.5795 21.0334 44.2426 20.9375 43.9661 20.6787Z" fill="url(#paint76_linear_4968_772)"></path><path d="M25.0573 12.8392C25.1974 12.8437 25.3994 12.7928 25.454 12.9056C25.5071 13.0162 25.3051 13.0936 25.2232 13.1924C25.1008 13.3384 25.0123 13.5043 24.904 13.6584C24.6068 14.0801 24.2116 14.2873 23.6888 14.204C23.4558 14.1672 23.4057 14.0772 23.478 13.8516C23.6645 13.2647 24.2035 12.8739 24.8759 12.8392C24.9357 12.8363 24.9969 12.8392 25.0573 12.8392Z" fill="url(#paint77_linear_4968_772)"></path><path d="M39.8651 22.3333C39.7677 22.2772 39.6704 22.2212 39.5731 22.1651C39.2147 21.837 39.2332 21.7213 39.6815 21.5045C40.014 21.3438 40.3517 21.3452 40.6776 21.5067C40.9733 21.6534 41.2638 21.8061 41.6465 21.8665C41.0949 22.3185 40.5375 22.5404 39.8651 22.3333Z" fill="url(#paint78_linear_4968_772)"></path><path d="M20.7727 10.4069C20.6002 10.6561 20.5537 10.9363 20.4933 11.2121C20.3849 11.7061 20.0944 12.0246 19.593 12.1352C19.4182 12.1735 19.3113 12.0947 19.301 11.9155C19.2723 11.4377 19.4411 11.0469 19.823 10.752C20.0509 10.5758 20.3097 10.4666 20.5854 10.3929C20.64 10.3782 20.699 10.3435 20.7727 10.4069Z" fill="url(#paint79_linear_4968_772)"></path><path d="M28.0671 10.0166C27.8267 10.0159 27.753 9.93182 27.7825 9.73201C27.8533 9.2579 28.1239 8.93569 28.5596 8.75357C28.7462 8.67542 28.9408 8.62012 29.1465 8.62012C29.2365 8.62012 29.2822 8.65403 29.2151 8.7403C29.0536 8.94602 28.9954 9.20039 28.8863 9.43044C28.7123 9.7991 28.4203 9.99228 28.0671 10.0166Z" fill="url(#paint80_linear_4968_772)"></path><path d="M34.0159 26.3399C34.0136 26.1976 34.0601 26.0442 34.1419 25.9005C34.2577 25.6962 34.3499 25.6807 34.5217 25.8371C34.8896 26.1725 34.9744 26.5869 34.8601 27.0559C34.8424 27.1281 34.8217 27.2004 34.7923 27.2675C34.7414 27.3832 34.7163 27.5624 34.5998 27.5779C34.5069 27.5904 34.5076 27.3965 34.4435 27.3058C34.3698 27.2011 34.3049 27.0898 34.2334 26.9836C34.1058 26.7971 34.0129 26.5972 34.0159 26.3399Z" fill="url(#paint81_linear_4968_772)"></path><path d="M9.41935 25.0952C9.9141 25.2773 10.4258 25.2677 10.9788 25.2087C9.77769 26.0898 8.2529 25.5413 7.42931 24.2192C7.53179 24.178 7.62838 24.2266 7.7235 24.2303C8.11281 24.2451 8.48737 24.1566 8.86341 24.0769C9.72534 23.8948 10.47 24.1787 10.8999 24.8489C11.0533 25.0878 11.0363 25.1357 10.7539 25.1881C10.4111 25.2522 10.0682 25.2198 9.72829 25.1571C9.62507 25.1387 9.52258 25.1158 9.41935 25.0952Z" fill="url(#paint82_linear_4968_772)"></path><path d="M17.6951 33.3569C15.9366 33.4019 14.3823 33.3082 12.9408 33.0664C12.8818 33.0568 12.8324 33.0701 12.7528 33.1195C11.7744 33.7263 10.8697 34.1982 9.98636 34.5639C8.77567 35.0645 7.50378 35.4295 6.27318 35.782L5.67226 35.9552C5.66489 35.9574 5.65825 35.9597 5.65088 35.9611C6.47447 36.2841 7.34599 36.5444 8.31115 36.7604C9.33456 36.9897 10.3624 37.1637 11.3659 37.2773C12.2042 37.3724 13.1783 37.4741 14.1324 37.4815L14.5998 37.4859C15.492 37.4948 16.4159 37.5036 17.322 37.4535C17.9849 37.4173 18.8586 37.3643 19.736 37.2765C20.3215 37.2183 20.9158 37.1357 21.4901 37.0561C22.1051 36.9713 22.7414 36.8828 23.3718 36.8231C24.3193 36.7331 25.1156 36.6682 25.9252 36.6446C26.2525 36.635 26.5711 36.6306 26.8815 36.6306C27.6004 36.6306 28.2787 36.6557 28.9379 36.7066C30.2098 36.8054 31.3342 36.9934 32.376 37.2832C33.2704 37.5316 33.9738 37.8133 34.5902 38.1702C34.6374 38.1974 34.6839 38.2269 34.7296 38.2572C34.4767 37.8524 34.1368 37.497 33.6981 37.1755C32.9814 36.6513 32.1276 36.2494 31.0887 35.9479C30.0977 35.6603 29.0006 35.4804 27.7346 35.3971C27.4522 35.3786 27.169 35.3624 26.8866 35.3462C26.1899 35.3064 25.4695 35.2658 24.7609 35.1862C23.5163 35.0468 22.0498 34.8345 20.6112 34.3161C20.014 34.1008 19.3865 33.8516 18.8697 33.382C18.7694 33.2913 18.6625 33.2655 18.4774 33.2891C18.2282 33.32 17.962 33.3502 17.6951 33.3569Z" fill="url(#paint83_linear_4968_772)"></path><path d="M18.5128 42.9615C17.8765 43.572 17.2719 44.229 16.7137 44.9162C18.0829 45.3372 19.3504 45.6174 20.5884 45.7737C21.76 45.9219 22.7738 45.9949 23.7795 46.0044C24.6636 45.9875 25.5182 45.9337 26.3211 45.8444C27.5694 45.7066 28.699 45.4743 29.7747 45.1351C29.906 45.0938 29.9908 45.0194 30.0579 44.8852C30.4737 44.055 30.7052 43.1952 30.7458 42.3318C30.7488 42.2714 30.7377 42.2456 30.7185 42.2227C30.6116 42.0959 30.4855 41.9506 30.3469 41.8223C29.6523 41.1801 28.769 40.7185 27.5679 40.3698C26.4332 40.0409 25.2018 39.875 23.6918 39.8478C23.593 39.8463 23.4876 39.8596 23.3799 39.8898C22.8431 40.0402 22.3174 40.2503 21.8168 40.5143C20.6916 41.1071 19.6114 41.9071 18.5128 42.9615Z" fill="url(#paint84_linear_4968_772)"></path><path d="M27.4529 37.9776C26.2422 37.6495 24.9217 37.519 23.1683 37.5603C22.1582 37.5832 21.1392 37.7019 20.1541 37.8162C19.8688 37.8493 19.5827 37.8825 19.2966 37.9135C18.0395 38.0499 16.755 38.1008 15.6505 38.1376C15.0754 38.1576 14.4936 38.1266 13.9311 38.0971C13.7519 38.0875 13.572 38.0779 13.3928 38.0705C12.5242 38.0329 11.5834 37.9371 10.518 37.7786C8.77788 37.519 7.37033 37.174 6.08738 36.691C6.00775 36.6608 5.92664 36.6328 5.84332 36.604C5.9001 36.7131 5.9613 36.8127 6.02323 36.9115C6.84461 38.2158 7.93954 39.2812 8.90249 40.1513C9.68332 40.8569 10.4988 41.4881 11.4079 42.1819C11.4795 42.2364 11.5163 42.2431 11.5952 42.2106C12.1032 42.0042 12.6149 41.8088 13.1281 41.6149C14.372 41.1437 15.7058 40.7109 17.2048 40.2906C18.2872 39.9869 19.3563 39.7472 20.3819 39.5791C22.0269 39.3085 23.3954 39.2075 24.685 39.2606C26.3152 39.3277 27.6247 39.5939 28.8059 40.0982C29.6642 40.4647 30.3388 40.9247 30.8638 41.5013C30.9029 40.7308 30.6455 40.0554 30.0793 39.4398C29.4533 38.7585 28.6194 38.2947 27.4529 37.9776Z" fill="url(#paint85_linear_4968_772)"></path><path d="M40.8199 38.0846C41.496 37.3053 42.1338 36.4153 42.7701 35.3639C43.096 34.8249 43.3843 34.3132 43.6483 33.8029C43.5473 33.8081 43.4499 33.8022 43.3637 33.7948C42.6241 33.7329 41.8514 33.5788 40.932 33.3112C40.8295 33.2817 40.7366 33.2787 40.6385 33.3016C39.3504 33.6098 37.948 33.769 36.2264 33.8022C34.9604 33.8265 33.9878 33.8052 33.0728 33.7307L32.7558 33.7056C32.1032 33.654 31.4293 33.6002 30.7672 33.508C29.0846 33.2735 27.5812 33.1231 26.1714 33.0472L26.0122 33.0383C25.0455 32.986 24.0464 32.9314 23.0068 32.9602H23.0002H22.9935C22.4663 32.9329 21.9229 32.9639 21.3471 32.9963C21.0123 33.0155 20.6746 33.0347 20.3362 33.0428C20.1172 33.0479 19.8916 33.07 19.6734 33.0922C19.6254 33.0966 19.5775 33.1018 19.5288 33.1062C19.5797 33.1453 19.6343 33.1806 19.6881 33.2146C20.3288 33.6223 21.0477 33.8464 21.6029 33.9961C23.7139 34.5661 25.8986 34.6944 27.7803 34.7696C28.0059 34.7784 28.2315 34.7858 28.4579 34.7932C29.0396 34.8116 29.6413 34.8308 30.2341 34.8831C31.1631 34.965 32.1113 35.1169 33.1333 35.3462C34.5327 35.661 35.8835 36.1395 37.1495 36.7685C38.341 37.3606 39.3231 38.0205 40.1526 38.7858C40.1563 38.7895 40.1607 38.7924 40.1637 38.7954C40.2706 38.6804 40.3598 38.5838 40.4498 38.4879C40.5751 38.3559 40.6997 38.2225 40.8199 38.0846Z" fill="url(#paint86_linear_4968_772)"></path><path d="M30.8734 44.8314C31.8857 44.5593 32.9062 44.125 34.1832 43.4231C34.6876 43.1458 35.1292 42.8767 35.534 42.5987C35.6048 42.5508 35.6343 42.4992 35.6505 42.3952C35.7803 41.5783 35.7065 40.7473 35.4241 39.8551C35.3335 39.5683 35.231 39.3471 35.0245 39.196C34.5224 38.828 34.0844 38.5715 33.6464 38.3871C31.8747 37.641 29.9856 37.4124 28.3716 37.2878C28.1534 37.2708 27.9351 37.2671 27.7169 37.2627C27.4831 37.2583 27.2494 37.2539 27.0164 37.2347C26.9744 37.231 26.9323 37.228 26.8903 37.2251C28.0147 37.4529 28.8612 37.7751 29.6007 38.2537C30.8638 39.0706 31.5045 40.2725 31.5052 41.826C31.5052 42.758 31.2774 43.721 30.8077 44.7694C30.793 44.8033 30.7716 44.8395 30.7502 44.8763C30.7923 44.8586 30.8343 44.8417 30.8734 44.8314Z" fill="url(#paint87_linear_4968_772)"></path><path d="M12.741 42.4047C12.5486 42.4769 12.3561 42.5492 12.1637 42.62L12.2057 42.6451C12.2957 42.6996 12.3849 42.7542 12.4778 42.8036C13.7607 43.4945 14.8453 44.0615 15.9683 44.5835C16.0715 44.6314 16.1681 44.6764 16.1969 44.6771C16.2109 44.6653 16.2758 44.5724 16.3384 44.4832C16.9969 43.5453 17.802 42.6878 18.8011 41.8613C19.7862 41.0458 20.7779 40.4095 21.8205 39.9243C20.1983 40.1168 18.6418 40.5179 17.4511 40.8511C16.1298 41.2213 14.7915 41.6526 13.4739 42.1326C13.2284 42.2211 12.9851 42.3133 12.741 42.4047Z" fill="url(#paint88_linear_4968_772)"></path><path d="M37.0721 41.6573C37.8514 41.0741 38.6138 40.3847 39.5429 39.4225L39.6402 39.3237C39.6689 39.2942 39.7006 39.2632 39.7235 39.2381C39.6955 39.2123 39.6535 39.1777 39.6129 39.1437L39.5296 39.0737C38.2289 37.9736 36.6938 37.0918 34.967 36.4525C34.1154 36.1369 33.2048 35.8855 32.2522 35.7026C33.7408 36.2888 34.8203 37.1876 35.5465 38.4433C35.9462 39.1334 36.2028 39.9165 36.3318 40.8366C36.3923 41.265 36.3915 41.6905 36.3819 42.124C36.6208 41.9721 36.8523 41.8217 37.0721 41.6573Z" fill="url(#paint89_linear_4968_772)"></path><path d="M5.20037 35.518C5.31687 35.4796 5.43631 35.4494 5.55576 35.4192C5.61622 35.4037 5.67668 35.3889 5.73641 35.372C7.32682 34.937 9.16645 34.4046 10.8653 33.5936C11.2656 33.4026 11.652 33.205 11.9683 32.9034C11.93 32.8997 11.8916 32.8968 11.8525 32.8931C11.7515 32.8842 11.6505 32.8754 11.5502 32.8636C10.3182 32.7213 9.14802 32.6571 7.96977 32.6689H7.9624C7.34378 32.6476 6.61899 32.6763 5.8094 32.7559C5.04922 32.8304 4.38046 32.9639 3.76479 33.1637C3.74415 33.1703 3.7294 33.1762 3.71761 33.1806C3.72129 33.188 3.72571 33.1969 3.73235 33.2079C3.83115 33.3805 3.92258 33.5582 4.01401 33.7351C4.06267 33.8295 4.1106 33.9239 4.16074 34.0175C4.46894 34.5978 4.72774 35.0321 4.99982 35.4251C5.07871 35.543 5.12221 35.5438 5.20037 35.518Z" fill="url(#paint90_linear_4968_772)"></path><path d="M44.6326 19.6545C44.2566 19.5063 43.8599 19.4665 43.461 19.4473C42.9589 19.4238 42.4995 19.2822 42.1331 18.9283C41.743 18.5515 41.3029 18.2684 40.7911 18.0826C40.3428 17.9203 39.9351 17.972 39.5333 18.2175C39.1882 18.4284 38.9139 18.7159 38.63 18.9954C38.3617 19.2593 38.1781 19.2844 37.8839 19.0507C37.6818 18.8899 37.4872 18.8759 37.263 18.9622C37.0772 19.0337 36.8826 19.0846 36.6887 19.0249C36.4505 18.9519 36.2219 18.9673 35.9934 19.0448C35.8975 19.0772 35.8267 19.0625 35.7589 18.9865C35.6188 18.8295 35.4389 18.7189 35.2767 18.5876C34.925 18.3015 34.5755 18.3436 34.2046 18.5441C33.8898 18.7144 33.6383 18.9555 33.3928 19.2077C33.3552 19.2461 33.3124 19.2903 33.2527 19.2704C33.19 19.249 33.2144 19.1908 33.221 19.148C33.3021 18.6215 33.2424 18.0973 33.193 17.5731C33.1731 17.3578 33.2498 17.2383 33.4584 17.1852C33.5889 17.152 33.7231 17.1336 33.8558 17.1071C33.9908 17.0798 34.0844 17.0031 34.1478 16.88C34.3115 16.5637 34.4826 16.4951 34.8218 16.6131C35.0068 16.6772 35.1919 16.7428 35.3688 16.8254C35.5849 16.9257 35.7589 16.8726 35.9241 16.7222C36.1821 16.487 36.3701 16.1979 36.5486 15.903C36.6621 15.715 36.8192 15.6118 37.0271 15.5631C37.2608 15.5085 37.4975 15.5137 37.7327 15.5285C37.9347 15.5402 38.0984 15.4813 38.254 15.3544C38.504 15.1509 38.6558 14.8523 38.9382 14.6768C38.7333 14.6813 38.5394 14.7255 38.3889 14.8449C37.9827 15.1679 37.5226 15.263 37.0197 15.2328C36.7816 15.218 36.5736 15.2969 36.3782 15.4378C36.1231 15.6228 35.9786 15.8912 35.8002 16.136C35.6387 16.3579 35.4485 16.4029 35.2457 16.2429C34.9884 16.0394 34.6957 16.0011 34.3867 16.0085C34.1788 16.0129 34.1279 15.9532 34.1751 15.7438C34.2326 15.4894 34.372 15.2859 34.5762 15.1281C34.8675 14.9032 35.1897 14.7425 35.5451 14.6363C36.0398 14.4881 36.1209 14.3605 36.1394 13.8555C36.1534 13.4713 36.1762 13.0864 36.2632 12.7097C36.3296 12.4228 36.4402 12.1574 36.6599 11.9502L36.6592 11.9517C36.7587 11.8249 36.8951 11.7555 37.0411 11.6958C37.1812 11.6391 37.3309 11.6339 37.4754 11.6014C37.5145 11.5926 37.5617 11.5793 37.5624 11.5307C37.5624 11.4636 37.5034 11.4658 37.4584 11.465C37.398 11.4636 37.3368 11.4658 37.2771 11.4739C36.6547 11.5646 36.2573 11.9288 36.0332 12.5025C35.8865 12.8792 35.8127 13.273 35.8326 13.6726C35.8488 13.9992 35.6778 14.1732 35.4256 14.3074C35.2037 14.4254 34.9626 14.4932 34.7229 14.564C34.1169 14.7439 33.7725 15.1701 33.7902 15.7791C33.7969 16.0166 33.7784 16.2179 33.6457 16.4199C33.5764 16.5261 33.5167 16.5954 33.3876 16.6094C33.1016 16.6396 32.8826 16.7885 32.7182 17.0201C32.5899 17.2007 32.4999 17.2103 32.3406 17.0503C32.2168 16.9257 32.1534 16.7701 32.1305 16.5991C32.1091 16.4391 32.0988 16.2768 32.0841 16.1161C32.0428 15.6774 31.9314 15.2748 31.5148 15.0352C31.391 14.9644 31.4522 14.9187 31.5207 14.859C32.1246 14.3428 32.3178 13.7095 32.0612 12.95C31.93 12.56 31.7773 12.1758 31.7921 11.7519C31.7965 11.6214 31.7198 11.6391 31.6542 11.7084C31.5244 11.8455 31.3902 11.9812 31.2767 12.1308C30.6743 12.9235 30.4995 13.8459 31.0953 14.7218C31.11 14.7439 31.1248 14.7683 31.0982 14.7933C30.8313 14.7248 30.6898 14.5272 30.6706 14.1895C30.664 14.0752 30.6662 13.9602 30.6573 13.8459C30.6536 13.7979 30.6271 13.753 30.5696 13.7508C30.5312 13.7493 30.5099 13.7788 30.4995 13.8127C30.4111 14.1135 30.3543 14.5707 30.6839 14.8449C30.8144 14.9533 30.9523 15.0499 31.0901 15.1465C31.3947 15.3581 31.6247 15.6228 31.6896 16.0011C31.7264 16.2156 31.7279 16.4324 31.6844 16.6462C31.6387 16.8719 31.6866 17.0518 31.868 17.2066C32.0472 17.36 32.2065 17.5369 32.3753 17.7021C32.4365 17.7618 32.4778 17.8223 32.4527 17.9159C32.3679 18.2308 32.3967 18.5456 32.466 18.859C32.4881 18.9592 32.4719 19.0433 32.3959 19.1178C32.1357 19.3758 31.8356 19.538 31.4588 19.527C31.1631 19.5189 30.8888 19.4238 30.6212 19.308C30.2864 19.1635 29.9591 19.002 29.6206 18.8663C29.0241 18.6274 28.5382 18.7624 28.1482 19.2645C27.8444 19.6553 27.4404 19.8477 26.9552 19.8455C26.5165 19.8433 26.1147 19.9554 25.732 20.1544C25.6649 20.1891 25.6007 20.2179 25.5211 20.2083C25.0138 20.1463 24.5508 19.6973 24.463 19.1952C24.3959 18.8132 24.4925 18.4564 24.6083 18.1039C24.7204 17.7626 24.8177 17.4197 24.8464 17.0599C24.8811 16.633 24.8428 16.2333 24.4498 15.9583C24.4092 15.9296 24.3746 15.8765 24.3606 15.8278C24.1851 15.2446 23.8422 14.7653 23.4382 14.3214C23.1838 14.042 23.186 13.6873 23.4411 13.4064C23.5311 13.3076 23.6343 13.2169 23.7434 13.138C24.0096 12.9456 24.2337 12.7178 24.4188 12.4464C24.6724 12.0748 24.842 11.6641 25.0042 11.2483C25.106 10.988 25.1878 10.9401 25.4621 10.9393C25.6457 10.9386 25.8256 10.9725 26.0033 11.0116C26.4671 11.1133 26.8925 11.0204 27.27 10.7432C27.4898 10.5817 27.7021 10.5832 27.9336 10.6908C28.2374 10.8332 28.4512 11.0838 28.657 11.3309C28.9858 11.7261 29.2675 11.6066 29.5152 11.367C29.7379 11.1509 29.9443 10.9172 30.1441 10.6805C30.4811 10.2816 30.7746 10.247 31.1919 10.5611C31.4898 10.7852 31.7523 11.0477 32.0265 11.2977C32.4527 11.687 32.8737 11.7452 33.3862 11.4931C33.6074 11.3839 33.8028 11.2424 33.9709 11.0639C34.2909 10.7248 34.6536 10.654 35.0702 10.87C35.1123 10.8914 35.1565 10.9091 35.2007 10.9253C35.2428 10.9408 35.2936 10.985 35.329 10.9364C35.3733 10.8759 35.3062 10.8398 35.2737 10.8029C35.0326 10.536 34.6337 10.4601 34.2429 10.6038C33.9746 10.7034 33.7335 10.8509 33.5071 11.0241C33.224 11.2409 32.9165 11.2866 32.5958 11.1251C32.452 11.0529 32.3185 10.957 32.1902 10.8597C31.8761 10.6223 31.6217 10.3214 31.3423 10.0479C31.009 9.722 30.6625 9.67481 30.2547 9.89454C29.8315 10.1231 29.5403 10.4829 29.2748 10.87C29.2151 10.957 29.1775 11.0861 29.0507 11.0779C28.9231 11.0691 28.8649 10.9504 28.8192 10.8457C28.7366 10.6532 28.6149 10.4955 28.4417 10.3812C28.2477 10.2529 28.0332 10.1703 27.8017 10.1415C27.677 10.1261 27.6276 10.0767 27.6505 9.94172C27.6793 9.77509 27.6653 9.6055 27.6431 9.43666C27.5753 8.92421 27.7943 8.58799 28.2964 8.45527C28.5375 8.39186 28.7867 8.35795 29.0293 8.29896C29.3655 8.21712 29.5867 8.00993 29.6782 7.67076C29.7379 7.44735 29.7725 7.2173 29.7556 6.98947C29.7239 6.56403 29.7246 6.13933 29.7327 5.71389C29.7364 5.50154 29.777 5.2973 29.9443 5.14172C29.9886 5.10043 30.0417 5.04514 29.9937 4.98541C29.9443 4.92421 29.878 4.97656 29.8286 5.00237C29.7084 5.06578 29.6457 5.1808 29.6066 5.30467C29.5558 5.46615 29.5248 5.63057 29.5218 5.80237C29.5159 6.20716 29.5248 6.61196 29.4865 7.01675C29.4253 7.66855 29.1723 7.96569 28.5338 8.09177C28.3023 8.13749 28.0686 8.17435 27.8363 8.21785C27.5266 8.2761 27.3386 8.46412 27.2435 8.76126C27.1572 9.02965 27.1617 9.30836 27.1351 9.58265C27.085 10.0966 26.8903 10.3251 26.3823 10.4107C25.9746 10.4792 25.5609 10.4586 25.1502 10.4851C24.8096 10.5073 24.6039 10.6614 24.4844 10.9814C24.3598 11.3161 24.3156 11.6796 24.1335 11.9937C24.0044 12.2164 23.84 12.4007 23.565 12.498C23.7147 11.8986 23.5311 11.3935 23.2641 10.9017C23.0636 10.5316 22.8129 10.1976 22.56 9.86357C21.9834 9.10117 21.9753 8.15223 22.5792 7.43629C22.8815 7.07795 22.9685 6.70928 22.894 6.2573C22.7775 5.55094 22.9301 5.31057 23.5974 5.04514C23.767 4.97804 23.9395 4.91758 24.1076 4.84827C24.7971 4.56292 25.0558 3.77914 24.6761 3.13103C24.6562 3.09712 24.64 3.04698 24.5913 3.06246C24.5346 3.0809 24.5397 3.13914 24.5486 3.18412C24.584 3.36477 24.5758 3.54689 24.581 3.72974C24.5891 4.01878 24.4468 4.21712 24.2064 4.35426C24.1128 4.40735 24.014 4.45232 23.9145 4.49361C23.6402 4.6079 23.357 4.70302 23.0909 4.83352C22.5276 5.11076 22.2894 5.57306 22.4929 6.15039C22.6485 6.59279 22.546 6.90689 22.2371 7.20477C22.1884 7.25122 22.15 7.30873 22.1021 7.35518C21.8374 7.61251 21.7106 7.93325 21.6715 8.29306C21.6479 8.51057 21.6811 8.72587 21.7194 8.93749C21.7703 9.21398 21.8404 9.48679 21.9075 9.7832C21.6162 9.69767 21.3611 9.58117 21.1237 9.43002C20.6179 9.10633 20.5235 8.80845 20.7469 8.24661C20.8369 8.02099 20.9452 7.80274 21.0359 7.57712C21.2063 7.1502 21.0691 6.71371 20.6909 6.45491C20.3488 6.22044 19.9661 6.07076 19.5598 6.04274C19.0533 6.00735 18.8269 5.69472 18.6728 5.28108C18.6212 5.14246 18.5983 4.99352 18.5578 4.85122C18.5452 4.8055 18.5629 4.73841 18.4767 4.72071C18.445 4.8903 18.4523 5.05767 18.4612 5.22431C18.4973 5.92993 18.8144 6.29638 19.5052 6.44679C19.7161 6.49251 19.927 6.54117 20.1349 6.6009C20.6488 6.74836 20.8029 7.04845 20.6334 7.55573C20.525 7.87868 20.3325 8.15961 20.1747 8.45749C20.028 8.73472 20.042 9.00385 20.2293 9.25159C20.4158 9.49712 20.6511 9.68514 20.9054 9.85546C21.3051 10.1231 21.7607 10.2905 22.1596 10.5581C22.8682 11.0344 23.085 11.7991 22.7517 12.5806C22.6219 12.8844 22.4214 13.1373 22.2275 13.3961C21.7054 14.0921 21.6214 14.8051 22.1169 15.5543C22.3145 15.8529 22.5076 16.1544 22.6868 16.4641C23.0149 17.0304 23.0695 17.5959 22.6441 18.1482C22.4877 18.3509 22.3336 18.5567 22.1943 18.772C21.9974 19.0765 22.0166 19.2593 22.2474 19.5432C22.4981 19.8529 22.7996 20.1168 23.0356 20.4405C23.1816 20.6418 23.1904 20.7509 23.0422 20.95C22.9943 21.0149 22.9382 21.0739 22.8829 21.1336C22.6278 21.4064 22.4243 21.705 22.4324 22.098C22.4383 22.4055 22.5003 22.7049 22.6367 22.9799C22.7458 23.2003 22.6971 23.3581 22.5224 23.5144C22.3019 23.7113 22.1353 23.6752 22.0424 23.3935C21.9775 23.1967 21.9915 22.9932 21.9841 22.7911C21.9488 21.851 21.6029 21.458 20.6783 21.3157C20.3782 21.2693 20.0737 21.2479 19.7766 21.1919C19.3312 21.1078 19.0746 20.8387 18.9994 20.3948C18.9596 20.1552 18.936 19.9133 18.9132 19.6715C18.8645 19.1546 18.6625 18.9025 18.1641 18.7631C17.9827 18.7122 17.833 18.6215 17.7054 18.4829C17.3692 18.1187 17.0979 17.708 16.845 17.284C16.8044 17.2162 16.7801 17.1351 16.7653 17.0562C16.6872 16.6344 16.8789 16.2967 17.1488 16.0136C17.5447 15.5985 17.7755 15.1266 17.8079 14.553C17.8241 14.2617 17.7888 13.9734 17.7799 13.6837C17.76 13.0481 18.0328 12.762 18.6662 12.734C19.113 12.7141 19.3327 12.4545 19.2619 12.0158C19.2037 11.6553 19.1624 11.294 19.1506 10.929C19.1491 10.8833 19.1668 10.8221 19.0688 10.7941C19.0688 11.1576 19.071 11.5071 19.068 11.8566C19.0658 12.1331 18.9928 12.2348 18.7237 12.3012C18.5276 12.3498 18.327 12.3823 18.1265 12.4096C17.7998 12.4538 17.6074 12.6411 17.5108 12.9471C17.3965 13.3076 17.3972 13.68 17.4046 14.0508C17.4135 14.5235 17.2247 14.9039 16.8752 15.207C16.595 15.4503 16.3053 15.6826 16.0184 15.9192C15.8208 16.0822 15.6947 16.0778 15.5023 15.9074C15.4153 15.8308 15.346 15.7415 15.2936 15.6368C15.1167 15.2873 15.1137 14.9069 15.099 14.5301C15.0761 13.952 14.8579 13.4956 14.2732 13.3165C13.9384 13.214 13.802 13.0496 13.8588 12.5821C13.8898 12.3277 13.9362 12.0748 13.9723 11.8212C14.0232 11.4687 14.1758 11.3235 14.5335 11.3109C14.7628 11.3028 14.9928 11.3109 15.2221 11.3102C15.4699 11.3087 15.5517 11.2018 15.4868 10.9629C15.4455 10.8103 15.3585 10.6791 15.2723 10.5515C15.1639 10.3922 15.1307 10.2219 15.1359 10.0339C15.1469 9.63942 15.2826 9.28182 15.4522 8.93306C15.5709 8.68901 15.6652 8.43758 15.6947 8.16477C15.7264 7.86541 15.5952 7.48274 15.4138 7.35666C15.6549 8.0173 15.5473 8.44053 15.0046 8.90357C14.7871 9.08864 14.6942 9.31647 14.6831 9.59444C14.6699 9.92329 14.7274 10.2396 14.8129 10.5537C14.8335 10.6289 14.8756 10.7344 14.7274 10.7122C14.3049 10.6481 13.9937 10.8324 13.7408 11.145C13.6686 11.235 13.6022 11.2483 13.4982 11.2011C13.1893 11.0625 12.8664 10.9637 12.5368 10.887C11.8805 10.7344 11.346 10.39 10.9228 9.86947C10.7694 9.68071 10.6227 9.48606 10.4575 9.27371C10.4509 9.4138 10.49 9.51408 10.5253 9.61435C10.6839 10.0641 10.9869 10.404 11.3637 10.6798C11.8658 11.0477 12.4439 11.2601 13.0241 11.465C13.4157 11.6029 13.485 11.7452 13.3537 12.1412C13.277 12.372 13.1989 12.602 13.1746 12.8461C13.1517 13.0776 13.2188 13.2649 13.4017 13.4204C13.5558 13.5509 13.7379 13.6203 13.9163 13.6969C14.4523 13.9277 14.6426 14.2381 14.3919 14.8921C14.257 15.2446 14.2584 15.5602 14.4096 15.8868C14.487 16.0549 14.417 16.0925 14.2673 16.0837C13.9753 16.0674 13.7452 15.9119 13.5226 15.7452C13.2697 15.5557 12.9895 15.4879 12.682 15.5388C12.4955 15.5697 12.3089 15.6051 12.1276 15.6553C11.9218 15.7128 11.7213 15.7895 11.5178 15.8573C11.5878 15.774 11.579 15.6803 11.5805 15.5889C11.5856 15.0934 11.3593 14.7366 10.925 14.5102C10.6684 14.376 10.3904 14.2809 10.1655 14.0892C10.1323 14.0604 10.0999 14.0037 10.0476 14.0354C10.0026 14.0626 10.0181 14.1209 10.0188 14.1666C10.0276 14.6628 10.1567 15.1133 10.5165 15.4768C10.5489 15.5093 10.6072 15.5358 10.5821 15.6206C10.4479 15.5085 10.3248 15.4053 10.2009 15.3036C9.9517 15.0993 9.72534 15.092 9.46875 15.2925C9.31981 15.409 9.18709 15.5454 9.03963 15.6626C8.7823 15.8676 8.53014 15.8064 8.37603 15.5144C8.27944 15.3308 8.28239 15.1391 8.30894 14.9415C8.34212 14.6938 8.28903 14.4704 8.09585 14.2971C8.05825 14.2632 8.00958 14.2035 7.96018 14.2617C7.92184 14.3074 7.98083 14.348 8.01474 14.3753C8.23963 14.5522 8.23225 14.7749 8.14967 15.016C8.11723 15.1119 8.08626 15.2092 8.06488 15.3073C8.00737 15.5697 8.11428 15.7917 8.3517 15.9133C8.60829 16.0446 8.87299 16.1375 9.16792 16.0932C9.21069 16.0807 9.25345 16.0682 9.29622 16.0564C9.4282 15.9414 9.58378 15.8544 9.69954 15.7194C9.7718 15.6354 9.85806 15.6538 9.93769 15.7032C10.2592 15.8993 10.5165 16.1692 10.7547 16.4538C10.8505 16.5681 10.8321 16.7362 10.8276 16.8851C10.8225 17.0614 10.8195 17.2376 10.8918 17.4035C10.9582 17.5554 10.8999 17.6203 10.7473 17.6254C10.6662 17.6284 10.5851 17.6313 10.504 17.6298C10.2629 17.6254 10.0343 17.6674 9.82562 17.7943C9.76147 17.9771 9.66857 18.1511 9.65825 18.3517C9.6494 18.5242 9.57935 18.6746 9.49751 18.8258C9.39428 19.016 9.19594 19.1052 9.05585 19.2652C9.48497 19.3707 9.78359 19.1568 9.8846 18.6872C9.9753 18.2647 10.0763 18.16 10.4995 18.0885C10.6986 18.0545 10.9006 18.0391 11.1027 18.0214C11.3121 18.0029 11.4116 17.8872 11.4367 17.6837C11.4669 17.4411 11.3954 17.2147 11.3394 16.9861C11.2582 16.6566 11.2944 16.5762 11.6077 16.4413C11.8245 16.3476 12.0501 16.2717 12.2603 16.1655C12.4453 16.0719 12.6201 16.0704 12.8059 16.1404C13.005 16.2156 13.1945 16.3189 13.3338 16.4722C13.5794 16.7443 13.8772 16.7664 14.2039 16.7214C14.501 16.6809 14.7967 16.6964 15.0901 16.7583C15.3025 16.8033 15.4603 16.9146 15.5465 17.1189C15.7633 17.6313 16.07 18.0936 16.3657 18.5611C16.4394 18.6776 16.4594 18.7823 16.4343 18.9209C16.2979 19.6796 16.3952 20.3963 16.8295 21.0547C16.9799 21.2826 17.1893 21.458 17.3346 21.6866C17.4496 21.868 17.471 22.0708 17.4326 22.2728C17.4024 22.4298 17.2291 22.3686 17.1281 22.4232C16.6326 22.6894 16.1017 22.7705 15.5414 22.7402C14.9065 22.7056 14.3285 22.901 13.8035 23.2512C13.7091 23.3139 13.656 23.3294 13.5705 23.2306C13.2203 22.8302 12.7926 22.7395 12.2883 22.9452C12.0885 23.0271 11.8916 23.1163 11.6925 23.2003C11.4028 23.322 11.1381 23.2881 10.908 23.0654C10.7967 22.957 10.6927 22.8427 10.5991 22.7174C10.4509 22.5168 10.3123 22.3045 10.1375 22.1283C9.78949 21.778 9.35373 21.7596 8.91133 21.8909C8.70931 21.9506 8.56479 21.9255 8.39152 21.8024C7.79723 21.3791 7.18378 20.9861 6.49364 20.7296C6.03944 20.5607 5.92442 20.3874 5.94138 19.906C5.95023 19.6575 5.99668 19.4105 6.01511 19.1613C6.03355 18.9091 5.92295 18.7152 5.70912 18.5847C5.5823 18.508 5.44811 18.4438 5.31834 18.3723C5.27852 18.3502 5.22322 18.3296 5.2505 18.2669C5.27557 18.2094 5.31613 18.2477 5.35225 18.2573C5.42967 18.2787 5.46138 18.2153 5.49603 18.1696C5.75041 17.8297 5.88903 17.4551 5.87428 17.0215C5.86101 16.6315 5.69659 16.3071 5.49308 15.9915C5.29548 15.6855 5.0905 15.3817 5.01161 15.0167C5.00129 14.9688 5.02414 14.8929 4.95115 14.8848C4.90027 14.8789 4.88184 14.9423 4.85677 14.9806C4.56921 15.4245 4.38046 15.903 4.34064 16.4346C4.33622 16.4936 4.3517 16.571 4.28977 16.6005C4.14894 16.6661 4.15557 16.7944 4.15115 16.9109C4.13862 17.2494 4.26912 17.5443 4.45272 17.8179C4.68276 18.1607 4.99465 18.4158 5.33677 18.6392C5.70543 18.8803 5.77622 19.0735 5.65456 19.4945C5.59852 19.6877 5.59336 19.8787 5.63244 20.0748C5.64497 20.1367 5.68479 20.2002 5.63908 20.2791C5.4341 20.1552 5.31834 19.9583 5.17972 19.7791C5.08608 19.6582 5.12958 19.6265 5.24608 19.5897C5.36258 19.5528 5.55797 19.5543 5.41198 19.3382C5.40608 19.3301 5.40903 19.3043 5.40977 19.3043C5.62654 19.28 5.46064 19.1642 5.44 19.1207C5.00424 18.1954 4.10322 17.753 3.01493 17.9255C2.79815 17.9602 2.57696 17.9815 2.34249 18.101C2.68756 18.2639 2.93087 18.5065 3.14617 18.7734C3.48313 19.1922 3.84811 19.5609 4.46451 19.6715C4.17843 19.7732 3.94396 19.8367 3.72719 19.9377C3.34304 20.1161 2.96774 20.2732 2.56442 19.9944C2.54746 19.9826 2.50765 19.9826 2.49216 19.9952C2.46046 20.021 2.47963 20.0556 2.49585 20.0859C2.58654 20.2547 2.72295 20.369 2.90507 20.4273C3.09603 20.4885 3.29069 20.4803 3.48682 20.4545C3.8776 20.4029 4.24258 20.2488 4.62599 20.1692C4.86783 20.1191 4.96221 20.1736 4.99318 20.4088C5.01382 20.5673 5.09566 20.6647 5.22543 20.7414C5.41419 20.8534 5.62285 20.9117 5.83226 20.9618C6.16479 21.0414 6.47299 21.1616 6.73253 21.3976C6.88811 21.5391 7.08055 21.6276 7.27963 21.6991C7.51336 21.7832 7.71539 21.9108 7.85696 22.1238C7.91815 22.216 7.91447 22.2691 7.79576 22.2934C7.69032 22.3148 7.58414 22.3377 7.48166 22.3716C7.0105 22.5279 6.76645 22.9025 6.57696 23.3257C6.45014 23.6088 6.3329 23.8971 6.20534 24.1803C6.07631 24.4656 5.8529 24.5939 5.53806 24.5637C5.40903 24.5511 5.2859 24.5224 5.16424 24.4781C4.80737 24.3461 4.48737 24.1426 4.15779 23.9583C3.76553 23.7386 3.58488 23.7504 3.23907 24.032C2.8247 24.3705 2.53493 24.8107 2.24663 25.2516C2.21345 25.3025 2.14857 25.3482 2.18765 25.4544C2.57843 25.1041 2.98248 24.79 3.30838 24.3919C3.59299 24.0438 3.94765 24.0033 4.29567 24.2805C4.61862 24.5371 4.95115 24.7782 5.36258 24.8844C5.53954 24.9301 5.57493 25.0193 5.47244 25.1668C5.21585 25.5362 5.13401 25.9403 5.20332 26.379C5.22249 26.4984 5.2011 26.5744 5.06027 26.5861C4.98285 26.5928 4.91207 26.6274 5.02267 26.7049C5.34709 26.9312 5.55281 27.2579 5.76737 27.5779C5.95391 27.8558 6.17216 28.0984 6.47963 28.2518C6.90875 28.4649 7.3482 28.459 7.79649 28.3366C7.56792 28.5113 7.27668 28.4759 6.9965 28.5497C7.46249 28.7672 7.9388 28.647 8.22193 28.2518C8.46525 27.9119 8.56258 27.5174 8.61198 27.1133C8.67834 26.5744 8.74691 26.4984 9.28885 26.4785C9.45769 26.4726 9.62654 26.48 9.79539 26.4726C9.88903 26.4682 9.98267 26.449 10.0741 26.4291C10.1582 26.4107 10.2253 26.3598 10.2488 26.2757C10.3631 25.8658 10.7288 25.7375 11.0518 25.5672C11.1587 25.5104 11.2745 25.5318 11.3585 25.6431C11.4382 25.7485 11.4514 25.8348 11.3519 25.9447C11.1123 26.2094 10.8579 26.4697 10.7561 26.8265C10.6743 27.1133 10.6905 27.3906 10.8829 27.6486C10.9478 27.5749 10.9117 27.5159 10.9006 27.4599C10.8394 27.1281 10.9382 26.8634 11.2177 26.6658C11.3777 26.553 11.5266 26.4247 11.6888 26.3155C11.8916 26.1784 11.9683 26.0007 11.9226 25.7596C11.871 25.4875 11.8437 25.211 11.8629 24.9331C11.8783 24.7001 11.9602 24.6108 12.1873 24.5637C12.2861 24.543 12.393 24.5371 12.4815 24.4936C12.7322 24.3712 12.9858 24.3948 13.2313 24.4789C13.4334 24.5482 13.6155 24.5253 13.7637 24.3948C13.965 24.2179 14.1921 24.192 14.4413 24.1994C15.1624 24.2215 15.8842 24.2835 16.6053 24.2031C16.6776 24.195 16.7572 24.2031 16.8251 24.226C17.5145 24.4597 17.9355 24.964 18.212 25.6121C18.4155 26.0885 18.2319 26.5095 18.0269 26.9283C17.9945 26.9946 17.9539 27.0573 17.9185 27.1229C17.7924 27.3544 17.6627 27.583 17.6 27.8433C17.4282 28.5548 17.5277 29.2413 17.8109 29.9026C17.9141 30.1438 17.8839 30.3465 17.7511 30.5522C17.5314 30.8944 17.2424 31.1657 16.8833 31.3537C16.0273 31.802 15.099 32.049 14.1766 32.3122C13.9583 32.3749 13.7416 32.4435 13.5248 32.5113C14.3078 32.5828 15.6859 32.6905 16.6481 32.6691C18.0623 32.6381 20.7189 32.1662 21.5897 32.181C22.4605 32.1957 24.5604 32.2238 25.7888 32.352C27.0171 32.4803 29.3169 32.7517 30.0018 32.7664C30.2599 32.7716 30.6426 32.7731 31.0194 32.7731C31.0053 32.7082 30.953 32.6558 30.8977 32.6145C30.1618 32.0697 29.3707 31.6722 28.4225 31.6914C28.031 31.6995 27.6394 31.7061 27.2494 31.6567C26.6389 31.5801 26.1486 31.3626 25.9598 30.7026C25.8522 30.3273 25.614 30.0132 25.2711 29.8319C24.786 29.5753 24.4217 29.1911 24.0649 28.7974C23.6829 28.3764 23.3327 27.9303 23.1403 27.3817C23.0024 26.9887 23.1056 26.7004 23.4625 26.4829C23.7449 26.3111 24.0656 26.2499 24.3768 26.1622C24.7705 26.0516 25.0588 25.8186 25.2527 25.4625C25.3862 25.2177 25.4769 24.9567 25.5646 24.6942C25.7467 24.15 25.9001 23.5948 26.1773 23.0875C26.4133 22.6562 26.7716 22.4217 27.2745 22.4173C27.6748 22.4136 28.0472 22.5227 28.4173 22.6569C28.7477 22.7764 29.064 22.929 29.3994 23.0359C29.9524 23.2121 30.487 23.1974 31.0142 22.9401C31.2944 22.8029 31.5606 22.6437 31.812 22.4608C32.4033 22.0317 32.8855 22.1069 33.3744 22.7041C33.6302 23.016 33.7836 23.3854 33.8868 23.7747C33.9554 24.0343 34.0719 24.268 34.2599 24.4612C34.3344 24.5371 34.3558 24.6175 34.3322 24.7185C34.3123 24.804 34.3012 24.891 34.2887 24.978C34.2311 25.388 34.4251 25.7323 34.807 25.8842C35.0341 25.9742 35.2494 26.0848 35.4573 26.2123C35.5053 26.2418 35.5473 26.2986 35.6394 26.2639C35.5967 26.1113 35.4743 26.0243 35.3659 25.9321C35.1808 25.7744 34.9847 25.632 34.7694 25.5148C34.6006 25.4234 34.5445 25.2781 34.6057 25.0857C34.6684 24.8881 34.7937 24.8202 34.9913 24.8579C35.1506 24.8881 35.3099 24.9168 35.4706 24.9382C36.0472 25.0134 36.6201 25.0945 37.1244 25.4241C37.3618 25.579 37.6111 25.7161 37.8374 25.8879C37.9672 25.9867 38.1065 26.0088 38.2577 25.972C38.442 25.9262 38.619 25.8599 38.7819 25.7618C39.2582 25.475 39.7014 25.1432 40.0981 24.7539C40.2647 24.5902 40.4335 24.5732 40.6304 24.6661C40.7462 24.7207 40.856 24.7863 40.9607 24.8615C41.3316 25.127 41.6295 25.4706 41.9539 25.7854C42.1338 25.9594 42.3499 26.0317 42.5902 26.0508C42.3005 25.8016 42.0181 25.5532 41.7475 25.2907C41.4717 25.0223 41.1827 24.7664 40.9135 24.4921C40.7115 24.2864 40.4918 24.2466 40.2308 24.3439C39.924 24.459 39.6505 24.6315 39.3873 24.8217C39.1624 24.9839 38.936 25.1425 38.6905 25.2722C38.4877 25.3791 38.2776 25.4529 38.0092 25.36C39.2236 25.2066 39.6852 24.2761 39.75 23.3331C39.753 23.2873 39.767 23.2284 39.7242 23.2003C39.6734 23.1672 39.6409 23.2247 39.6055 23.2512C39.3659 23.4333 39.0946 23.5565 38.8151 23.656C38.1338 23.8971 37.7666 24.3638 37.746 25.0931C37.7445 25.138 37.7593 25.2037 37.701 25.2125C37.6627 25.2177 37.6103 25.1867 37.5771 25.1565C37.4267 25.0193 37.2756 24.8859 37.0898 24.7981C37.0116 24.7613 37.0175 24.7045 37.0337 24.6293C37.0772 24.4317 37.1333 24.2326 37.1399 24.0328C37.1524 23.6486 37.3154 23.5513 37.6686 23.4488C37.7335 23.4304 37.7998 23.4142 37.8669 23.409C38.0358 23.3957 38.1375 23.2984 38.2039 23.1546C38.3034 22.9401 38.3926 22.7226 38.4634 22.4962C38.574 22.1438 38.7163 22.0781 39.0562 22.2241C39.2671 22.3141 39.4647 22.4335 39.6741 22.5272C39.882 22.6208 40.0929 22.6215 40.2964 22.5021C40.1511 22.4424 39.9897 22.4446 39.8673 22.3414C39.77 22.2853 39.6726 22.2293 39.5753 22.1732C39.3688 22.1172 39.2111 21.9705 39.023 21.8798C38.776 21.7603 38.5939 21.7861 38.4007 21.9808C38.2208 22.1614 38.0955 22.379 38.0048 22.612C37.9207 22.828 37.7615 22.9261 37.5535 22.9732C37.4614 22.9939 37.3677 23.0116 37.2741 23.0212C37.0507 23.0433 36.9032 23.1657 36.8022 23.3581C36.6776 23.597 36.6356 23.8566 36.6179 24.1205C36.5972 24.425 36.4896 24.5415 36.1821 24.5607C36.0546 24.5688 35.9248 24.5688 35.798 24.5541C35.0584 24.4685 34.7185 24.1596 34.5615 23.4311C34.4501 22.9143 34.4081 22.3908 34.403 21.8628C34.4 21.5259 34.2415 21.3364 33.906 21.2914C33.7666 21.273 33.6229 21.2796 33.4813 21.2781C33.2719 21.2759 33.2535 21.2523 33.3441 21.0584C33.5897 20.5342 34.0048 20.265 34.5829 20.2783C34.9987 20.2879 35.3371 20.1471 35.6483 19.872C35.9572 19.5985 36.3303 19.4982 36.7388 19.642C36.9873 19.729 37.2343 19.8241 37.4931 19.875C37.8367 19.9436 38.1825 19.9627 38.4929 19.7607C38.6182 19.6789 38.6898 19.6988 38.7753 19.8123C38.8712 19.9384 39.0002 20.0667 39.169 19.9908C39.4603 19.8595 39.708 19.9767 39.9646 20.0792C40.0605 20.1176 40.1504 20.178 40.2654 20.1559C39.9764 19.9023 39.7419 19.5402 39.2612 19.6862C39.1476 19.7209 39.0872 19.6604 39.1064 19.5469C39.1469 19.3109 39.2162 19.0897 39.4219 18.9334C39.6601 18.752 39.9344 18.6341 40.1865 18.477C40.3532 18.3731 40.5213 18.3532 40.7093 18.4077C41.2151 18.5537 41.6317 18.8538 42.0262 19.1812C42.3617 19.4599 42.7148 19.6715 43.1609 19.7098C43.4912 19.7379 43.8216 19.7703 44.1511 19.7504C44.497 19.7297 44.8074 19.7976 45.0765 20.0232C45.0802 20.0261 45.0979 20.0136 45.12 20.0033C45.0116 19.7968 44.8184 19.7275 44.6326 19.6545ZM11.2029 25.0164C11.1027 25.2767 10.8903 25.4175 10.6411 25.5052C10.3602 25.6033 10.0844 25.7095 9.82414 25.854C9.6317 25.9609 9.41567 26.0044 9.20037 26.0088C8.7764 26.0169 8.53161 26.2485 8.37603 26.6142C8.19981 27.0278 8.11871 27.4658 8.03613 27.903C8.00368 28.0726 7.95723 28.2311 7.79871 28.3285C7.90193 27.8057 7.60405 27.4414 7.2811 27.1074C6.90654 26.7203 6.41327 26.5773 5.88829 26.5404C5.7541 26.5308 5.61769 26.5308 5.4835 26.5382C5.34562 26.5456 5.29253 26.4925 5.28811 26.3524C5.27189 25.899 5.55944 25.385 6.01216 25.2346C6.42433 25.0975 6.59244 24.8365 6.63078 24.4383C6.647 24.2739 6.7259 24.1382 6.82544 24.0026C7.06507 23.6767 7.28627 23.3375 7.51041 22.9998C7.58783 22.8826 7.68295 22.8273 7.82672 22.8228C8.16884 22.8118 8.48516 22.6857 8.80737 22.5861C8.9364 22.5463 9.06396 22.4999 9.19594 22.4741C9.53954 22.407 9.82931 22.5471 9.98414 22.8626C10.0734 23.044 10.1478 23.2328 10.2149 23.4238C10.4398 24.0652 10.7126 24.24 11.3888 24.1596C11.5082 24.1456 11.6262 24.1205 11.8002 24.091C11.4758 24.3587 11.3312 24.6824 11.2029 25.0164Z" fill="url(#paint91_linear_4968_772)"></path><path d="M9.82341 17.7915C9.82341 17.7915 9.82415 17.7915 9.82415 17.7908C9.82415 17.79 9.82488 17.7893 9.82488 17.7886L9.82341 17.7915Z" fill="url(#paint92_linear_4968_772)"></path><path d="M23.9631 0.875945C36.7137 0.875945 47.0503 11.2125 47.0503 23.9631C47.0503 36.7137 36.7137 47.0503 23.9631 47.0503C11.2125 47.0503 0.875945 36.7137 0.875945 23.9631C0.875945 11.2125 11.2125 0.875945 23.9631 0.875945ZM23.9631 0C17.5624 0 11.5443 2.4929 7.01862 7.01862C2.4929 11.5443 0 17.5624 0 23.9631C0 37.1768 10.7495 47.9263 23.9631 47.9263C37.1768 47.9263 47.9263 37.1768 47.9263 23.9631C47.9263 10.7495 37.1768 0 23.9631 0Z" fill="url(#paint93_linear_4968_772)"></path><path d="M64.2109 19.0498C62.2238 19.0498 60.7381 20.5451 60.7381 22.5617C60.7381 24.5783 62.2238 26.0736 64.2109 26.0736C66.198 26.0736 67.6837 24.5783 67.6837 22.5617C67.6837 20.5451 66.198 19.0498 64.2109 19.0498ZM64.2109 20.2266C65.266 20.2266 66.1206 20.8784 66.3373 21.9903H62.0844C62.3012 20.8784 63.155 20.2266 64.2109 20.2266ZM64.2109 24.8961C63.1558 24.8961 62.3012 24.2443 62.0844 23.1324H66.3373C66.1206 24.2443 65.266 24.8961 64.2109 24.8961Z" fill="url(#paint94_linear_4968_772)"></path><defs><linearGradient id="paint0_linear_4968_772" x1="54.8527" y1="12.11" x2="60.7381" y2="12.11" gradientUnits="userSpaceOnUse"><stop offset="0.31373" stop-color="#739F3E"></stop><stop offset="1" stop-color="#3A6B00"></stop></linearGradient><linearGradient id="paint1_linear_4968_772" x1="61.0455" y1="12.11" x2="67.722" y2="12.11" gradientUnits="userSpaceOnUse"><stop offset="0.31373" stop-color="#739F3E"></stop><stop offset="1" stop-color="#3A6B00"></stop></linearGradient><linearGradient id="paint2_linear_4968_772" x1="68.2234" y1="12.11" x2="73.7224" y2="12.11" gradientUnits="userSpaceOnUse"><stop offset="0.31373" stop-color="#739F3E"></stop><stop offset="1" stop-color="#3A6B00"></stop></linearGradient><linearGradient id="paint3_linear_4968_772" x1="75.0533" y1="12.11" x2="80.2632" y2="12.11" gradientUnits="userSpaceOnUse"><stop offset="0.31373" stop-color="#739F3E"></stop><stop offset="1" stop-color="#3A6B00"></stop></linearGradient><linearGradient id="paint4_linear_4968_772" x1="80.9283" y1="12.11" x2="87.8739" y2="12.11" gradientUnits="userSpaceOnUse"><stop offset="0.31373" stop-color="#739F3E"></stop><stop offset="1" stop-color="#3A6B00"></stop></linearGradient><linearGradient id="paint5_linear_4968_772" x1="88.8103" y1="12.11" x2="93.4702" y2="12.11" gradientUnits="userSpaceOnUse"><stop offset="0.31373" stop-color="#739F3E"></stop><stop offset="1" stop-color="#3A6B00"></stop></linearGradient><linearGradient id="paint6_linear_4968_772" x1="93.0743" y1="12.7174" x2="99.9041" y2="12.7174" gradientUnits="userSpaceOnUse"><stop offset="0.31373" stop-color="#739F3E"></stop><stop offset="1" stop-color="#3A6B00"></stop></linearGradient><linearGradient id="paint7_linear_4968_772" x1="100.734" y1="12.11" x2="108.086" y2="12.11" gradientUnits="userSpaceOnUse"><stop offset="0.31373" stop-color="#739F3E"></stop><stop offset="1" stop-color="#3A6B00"></stop></linearGradient><linearGradient id="paint8_linear_4968_772" x1="109.416" y1="12.11" x2="114.915" y2="12.11" gradientUnits="userSpaceOnUse"><stop offset="0.31373" stop-color="#739F3E"></stop><stop offset="1" stop-color="#3A6B00"></stop></linearGradient><linearGradient id="paint9_linear_4968_772" x1="54.8527" y1="22.5612" x2="60.7381" y2="22.5612" gradientUnits="userSpaceOnUse"><stop offset="0.31373" stop-color="#739F3E"></stop><stop offset="1" stop-color="#3A6B00"></stop></linearGradient><linearGradient id="paint10_linear_4968_772" x1="68.6194" y1="22.5612" x2="73.2793" y2="22.5612" gradientUnits="userSpaceOnUse"><stop offset="0.31373" stop-color="#739F3E"></stop><stop offset="1" stop-color="#3A6B00"></stop></linearGradient><linearGradient id="paint11_linear_4968_772" x1="73.5115" y1="22.5612" x2="83.0813" y2="22.5612" gradientUnits="userSpaceOnUse"><stop offset="0.31373" stop-color="#739F3E"></stop><stop offset="1" stop-color="#3A6B00"></stop></linearGradient><linearGradient id="paint12_linear_4968_772" x1="83.447" y1="22.5956" x2="89.5255" y2="22.5956" gradientUnits="userSpaceOnUse"><stop offset="0.31373" stop-color="#739F3E"></stop><stop offset="1" stop-color="#3A6B00"></stop></linearGradient><linearGradient id="paint13_linear_4968_772" x1="90.8557" y1="22.5606" x2="96.4033" y2="22.5606" gradientUnits="userSpaceOnUse"><stop offset="0.31373" stop-color="#739F3E"></stop><stop offset="1" stop-color="#3A6B00"></stop></linearGradient><linearGradient id="paint14_linear_4968_772" x1="97.7342" y1="21.6881" x2="103.282" y2="21.6881" gradientUnits="userSpaceOnUse"><stop offset="0.31373" stop-color="#739F3E"></stop><stop offset="1" stop-color="#3A6B00"></stop></linearGradient><linearGradient id="paint15_linear_4968_772" x1="104.613" y1="22.5612" x2="110.112" y2="22.5612" gradientUnits="userSpaceOnUse"><stop offset="0.31373" stop-color="#739F3E"></stop><stop offset="1" stop-color="#3A6B00"></stop></linearGradient><linearGradient id="paint16_linear_4968_772" x1="113.323" y1="22.5612" x2="119.208" y2="22.5612" gradientUnits="userSpaceOnUse"><stop offset="0.31373" stop-color="#739F3E"></stop><stop offset="1" stop-color="#3A6B00"></stop></linearGradient><linearGradient id="paint17_linear_4968_772" x1="119.246" y1="22.6286" x2="125.208" y2="22.6286" gradientUnits="userSpaceOnUse"><stop offset="0.31373" stop-color="#739F3E"></stop><stop offset="1" stop-color="#3A6B00"></stop></linearGradient><linearGradient id="paint18_linear_4968_772" x1="125.71" y1="22.5612" x2="131.305" y2="22.5612" gradientUnits="userSpaceOnUse"><stop offset="0.31373" stop-color="#739F3E"></stop><stop offset="1" stop-color="#3A6B00"></stop></linearGradient><linearGradient id="paint19_linear_4968_772" x1="130.987" y1="23.1691" x2="137.817" y2="23.1691" gradientUnits="userSpaceOnUse"><stop offset="0.31373" stop-color="#739F3E"></stop><stop offset="1" stop-color="#3A6B00"></stop></linearGradient><linearGradient id="paint20_linear_4968_772" x1="138.232" y1="22.5612" x2="144.908" y2="22.5612" gradientUnits="userSpaceOnUse"><stop offset="0.31373" stop-color="#739F3E"></stop><stop offset="1" stop-color="#3A6B00"></stop></linearGradient><linearGradient id="paint21_linear_4968_772" x1="144.898" y1="22.5603" x2="151.227" y2="22.5603" gradientUnits="userSpaceOnUse"><stop offset="0.31373" stop-color="#739F3E"></stop><stop offset="1" stop-color="#3A6B00"></stop></linearGradient><linearGradient id="paint22_linear_4968_772" x1="152.094" y1="22.5612" x2="156.754" y2="22.5612" gradientUnits="userSpaceOnUse"><stop offset="0.31373" stop-color="#739F3E"></stop><stop offset="1" stop-color="#3A6B00"></stop></linearGradient><linearGradient id="paint23_linear_4968_772" x1="157.294" y1="22.6286" x2="163.256" y2="22.6286" gradientUnits="userSpaceOnUse"><stop offset="0.31373" stop-color="#739F3E"></stop><stop offset="1" stop-color="#3A6B00"></stop></linearGradient><linearGradient id="paint24_linear_4968_772" x1="163.333" y1="22.6286" x2="169.295" y2="22.6286" gradientUnits="userSpaceOnUse"><stop offset="0.31373" stop-color="#739F3E"></stop><stop offset="1" stop-color="#3A6B00"></stop></linearGradient><linearGradient id="paint25_linear_4968_772" x1="169.797" y1="22.5612" x2="175.392" y2="22.5612" gradientUnits="userSpaceOnUse"><stop offset="0.31373" stop-color="#739F3E"></stop><stop offset="1" stop-color="#3A6B00"></stop></linearGradient><linearGradient id="paint26_linear_4968_772" x1="55.2678" y1="33.0124" x2="62.2134" y2="33.0124" gradientUnits="userSpaceOnUse"><stop offset="0.31373" stop-color="#739F3E"></stop><stop offset="1" stop-color="#3A6B00"></stop></linearGradient><linearGradient id="paint27_linear_4968_772" x1="63.1499" y1="33.0118" x2="71.8326" y2="33.0118" gradientUnits="userSpaceOnUse"><stop offset="0.31373" stop-color="#739F3E"></stop><stop offset="1" stop-color="#3A6B00"></stop></linearGradient><linearGradient id="paint28_linear_4968_772" x1="71.8702" y1="33.0793" x2="77.8323" y2="33.0793" gradientUnits="userSpaceOnUse"><stop offset="0.31373" stop-color="#739F3E"></stop><stop offset="1" stop-color="#3A6B00"></stop></linearGradient><linearGradient id="paint29_linear_4968_772" x1="80.5331" y1="33.0118" x2="85.9355" y2="33.0118" gradientUnits="userSpaceOnUse"><stop offset="0.31373" stop-color="#739F3E"></stop><stop offset="1" stop-color="#3A6B00"></stop></linearGradient><linearGradient id="paint30_linear_4968_772" x1="86.0129" y1="33.0124" x2="92.9585" y2="33.0124" gradientUnits="userSpaceOnUse"><stop offset="0.31373" stop-color="#739F3E"></stop><stop offset="1" stop-color="#3A6B00"></stop></linearGradient><linearGradient id="paint31_linear_4968_772" x1="93.123" y1="33.0464" x2="99.2015" y2="33.0464" gradientUnits="userSpaceOnUse"><stop offset="0.31373" stop-color="#739F3E"></stop><stop offset="1" stop-color="#3A6B00"></stop></linearGradient><linearGradient id="paint32_linear_4968_772" x1="100.532" y1="33.0118" x2="105.192" y2="33.0118" gradientUnits="userSpaceOnUse"><stop offset="0.31373" stop-color="#739F3E"></stop><stop offset="1" stop-color="#3A6B00"></stop></linearGradient><linearGradient id="paint33_linear_4968_772" x1="105.268" y1="33.0124" x2="112.214" y2="33.0124" gradientUnits="userSpaceOnUse"><stop offset="0.31373" stop-color="#739F3E"></stop><stop offset="1" stop-color="#3A6B00"></stop></linearGradient><linearGradient id="paint34_linear_4968_772" x1="113.15" y1="32.1387" x2="118.698" y2="32.1387" gradientUnits="userSpaceOnUse"><stop offset="0.31373" stop-color="#739F3E"></stop><stop offset="1" stop-color="#3A6B00"></stop></linearGradient><linearGradient id="paint35_linear_4968_772" x1="120.029" y1="33.0118" x2="125.528" y2="33.0118" gradientUnits="userSpaceOnUse"><stop offset="0.31373" stop-color="#739F3E"></stop><stop offset="1" stop-color="#3A6B00"></stop></linearGradient><linearGradient id="paint36_linear_4968_772" x1="129.154" y1="33.012" x2="135.483" y2="33.012" gradientUnits="userSpaceOnUse"><stop offset="0.31373" stop-color="#739F3E"></stop><stop offset="1" stop-color="#3A6B00"></stop></linearGradient><linearGradient id="paint37_linear_4968_772" x1="135.685" y1="33.0118" x2="142.362" y2="33.0118" gradientUnits="userSpaceOnUse"><stop offset="0.31373" stop-color="#739F3E"></stop><stop offset="1" stop-color="#3A6B00"></stop></linearGradient><linearGradient id="paint38_linear_4968_772" x1="142.863" y1="33.0118" x2="148.362" y2="33.0118" gradientUnits="userSpaceOnUse"><stop offset="0.31373" stop-color="#739F3E"></stop><stop offset="1" stop-color="#3A6B00"></stop></linearGradient><linearGradient id="paint39_linear_4968_772" x1="0" y1="23.9631" x2="47.9263" y2="23.9631" gradientUnits="userSpaceOnUse"><stop offset="0.31373" stop-color="#739F3E"></stop><stop offset="1" stop-color="#3A6B00"></stop></linearGradient><linearGradient id="paint40_linear_4968_772" x1="5.68141" y1="12.217" x2="13.0771" y2="12.217" gradientUnits="userSpaceOnUse"><stop offset="0.31373" stop-color="#739F3E"></stop><stop offset="1" stop-color="#3A6B00"></stop></linearGradient><linearGradient id="paint41_linear_4968_772" x1="14.0122" y1="7.05782" x2="19.9594" y2="7.05782" gradientUnits="userSpaceOnUse"><stop offset="0.31373" stop-color="#739F3E"></stop><stop offset="1" stop-color="#3A6B00"></stop></linearGradient><linearGradient id="paint42_linear_4968_772" x1="36.5976" y1="13.0373" x2="41.9613" y2="13.0373" gradientUnits="userSpaceOnUse"><stop offset="0.31373" stop-color="#739F3E"></stop><stop offset="1" stop-color="#3A6B00"></stop></linearGradient><linearGradient id="paint43_linear_4968_772" x1="26.8953" y1="5.14441" x2="29.2821" y2="5.14441" gradientUnits="userSpaceOnUse"><stop offset="0.31373" stop-color="#739F3E"></stop><stop offset="1" stop-color="#3A6B00"></stop></linearGradient><linearGradient id="paint44_linear_4968_772" x1="26.2024" y1="15.6175" x2="31.4809" y2="15.6175" gradientUnits="userSpaceOnUse"><stop offset="0.31373" stop-color="#739F3E"></stop><stop offset="1" stop-color="#3A6B00"></stop></linearGradient><linearGradient id="paint45_linear_4968_772" x1="18.1523" y1="16.3116" x2="22.8204" y2="16.3116" gradientUnits="userSpaceOnUse"><stop offset="0.31373" stop-color="#739F3E"></stop><stop offset="1" stop-color="#3A6B00"></stop></linearGradient><linearGradient id="paint46_linear_4968_772" x1="41.8578" y1="22.076" x2="44.752" y2="22.076" gradientUnits="userSpaceOnUse"><stop offset="0.31373" stop-color="#739F3E"></stop><stop offset="1" stop-color="#3A6B00"></stop></linearGradient><linearGradient id="paint47_linear_4968_772" x1="1.55797" y1="22.0643" x2="6.51489" y2="22.0643" gradientUnits="userSpaceOnUse"><stop offset="0.31373" stop-color="#739F3E"></stop><stop offset="1" stop-color="#3A6B00"></stop></linearGradient><linearGradient id="paint48_linear_4968_772" x1="10.6638" y1="8.32222" x2="13.1963" y2="8.32222" gradientUnits="userSpaceOnUse"><stop offset="0.31373" stop-color="#739F3E"></stop><stop offset="1" stop-color="#3A6B00"></stop></linearGradient><linearGradient id="paint49_linear_4968_772" x1="39.8467" y1="27.2284" x2="42.5405" y2="27.2284" gradientUnits="userSpaceOnUse"><stop offset="0.31373" stop-color="#739F3E"></stop><stop offset="1" stop-color="#3A6B00"></stop></linearGradient><linearGradient id="paint50_linear_4968_772" x1="17.8256" y1="4.19015" x2="21.0279" y2="4.19015" gradientUnits="userSpaceOnUse"><stop offset="0.31373" stop-color="#739F3E"></stop><stop offset="1" stop-color="#3A6B00"></stop></linearGradient><linearGradient id="paint51_linear_4968_772" x1="7.14388" y1="17.6901" x2="10.2532" y2="17.6901" gradientUnits="userSpaceOnUse"><stop offset="0.31373" stop-color="#739F3E"></stop><stop offset="1" stop-color="#3A6B00"></stop></linearGradient><linearGradient id="paint52_linear_4968_772" x1="32.5509" y1="9.11536" x2="35.332" y2="9.11536" gradientUnits="userSpaceOnUse"><stop offset="0.31373" stop-color="#739F3E"></stop><stop offset="1" stop-color="#3A6B00"></stop></linearGradient><linearGradient id="paint53_linear_4968_772" x1="12.2514" y1="18.4637" x2="16.2367" y2="18.4637" gradientUnits="userSpaceOnUse"><stop offset="0.31373" stop-color="#739F3E"></stop><stop offset="1" stop-color="#3A6B00"></stop></linearGradient><linearGradient id="paint54_linear_4968_772" x1="22.1257" y1="3.23359" x2="24.7093" y2="3.23359" gradientUnits="userSpaceOnUse"><stop offset="0.31373" stop-color="#739F3E"></stop><stop offset="1" stop-color="#3A6B00"></stop></linearGradient><linearGradient id="paint55_linear_4968_772" x1="36.7162" y1="16.6668" x2="40.0708" y2="16.6668" gradientUnits="userSpaceOnUse"><stop offset="0.31373" stop-color="#739F3E"></stop><stop offset="1" stop-color="#3A6B00"></stop></linearGradient><linearGradient id="paint56_linear_4968_772" x1="35.3892" y1="20.7874" x2="39.0415" y2="20.7874" gradientUnits="userSpaceOnUse"><stop offset="0.31373" stop-color="#739F3E"></stop><stop offset="1" stop-color="#3A6B00"></stop></linearGradient><linearGradient id="paint57_linear_4968_772" x1="29.8691" y1="5.12926" x2="33.0617" y2="5.12926" gradientUnits="userSpaceOnUse"><stop offset="0.31373" stop-color="#739F3E"></stop><stop offset="1" stop-color="#3A6B00"></stop></linearGradient><linearGradient id="paint58_linear_4968_772" x1="25.3533" y1="8.31212" x2="26.9657" y2="8.31212" gradientUnits="userSpaceOnUse"><stop offset="0.31373" stop-color="#739F3E"></stop><stop offset="1" stop-color="#3A6B00"></stop></linearGradient><linearGradient id="paint59_linear_4968_772" x1="16.5913" y1="10.6895" x2="18.9879" y2="10.6895" gradientUnits="userSpaceOnUse"><stop offset="0.31373" stop-color="#739F3E"></stop><stop offset="1" stop-color="#3A6B00"></stop></linearGradient><linearGradient id="paint60_linear_4968_772" x1="10.1373" y1="21.3375" x2="11.88" y2="21.3375" gradientUnits="userSpaceOnUse"><stop offset="0.31373" stop-color="#739F3E"></stop><stop offset="1" stop-color="#3A6B00"></stop></linearGradient><linearGradient id="paint61_linear_4968_772" x1="2.3644" y1="25.9533" x2="4.40039" y2="25.9533" gradientUnits="userSpaceOnUse"><stop offset="0.31373" stop-color="#739F3E"></stop><stop offset="1" stop-color="#3A6B00"></stop></linearGradient><linearGradient id="paint62_linear_4968_772" x1="31.3305" y1="25.646" x2="34.069" y2="25.646" gradientUnits="userSpaceOnUse"><stop offset="0.31373" stop-color="#739F3E"></stop><stop offset="1" stop-color="#3A6B00"></stop></linearGradient><linearGradient id="paint63_linear_4968_772" x1="42.6027" y1="17.557" x2="44.519" y2="17.557" gradientUnits="userSpaceOnUse"><stop offset="0.31373" stop-color="#739F3E"></stop><stop offset="1" stop-color="#3A6B00"></stop></linearGradient><linearGradient id="paint64_linear_4968_772" x1="17.9078" y1="13.5349" x2="21.3712" y2="13.5349" gradientUnits="userSpaceOnUse"><stop offset="0.31373" stop-color="#739F3E"></stop><stop offset="1" stop-color="#3A6B00"></stop></linearGradient><linearGradient id="paint65_linear_4968_772" x1="36.0237" y1="10.1767" x2="38.1637" y2="10.1767" gradientUnits="userSpaceOnUse"><stop offset="0.31373" stop-color="#739F3E"></stop><stop offset="1" stop-color="#3A6B00"></stop></linearGradient><linearGradient id="paint66_linear_4968_772" x1="5.16866" y1="15.7985" x2="8.34211" y2="15.7985" gradientUnits="userSpaceOnUse"><stop offset="0.31373" stop-color="#739F3E"></stop><stop offset="1" stop-color="#3A6B00"></stop></linearGradient><linearGradient id="paint67_linear_4968_772" x1="22.6735" y1="8.47021" x2="24.177" y2="8.47021" gradientUnits="userSpaceOnUse"><stop offset="0.31373" stop-color="#739F3E"></stop><stop offset="1" stop-color="#3A6B00"></stop></linearGradient><linearGradient id="paint68_linear_4968_772" x1="29.7618" y1="8.56878" x2="31.6835" y2="8.56878" gradientUnits="userSpaceOnUse"><stop offset="0.31373" stop-color="#739F3E"></stop><stop offset="1" stop-color="#3A6B00"></stop></linearGradient><linearGradient id="paint69_linear_4968_772" x1="34.3006" y1="12.9988" x2="35.6601" y2="12.9988" gradientUnits="userSpaceOnUse"><stop offset="0.31373" stop-color="#739F3E"></stop><stop offset="1" stop-color="#3A6B00"></stop></linearGradient><linearGradient id="paint70_linear_4968_772" x1="41.2573" y1="24.682" x2="44.1224" y2="24.682" gradientUnits="userSpaceOnUse"><stop offset="0.31373" stop-color="#739F3E"></stop><stop offset="1" stop-color="#3A6B00"></stop></linearGradient><linearGradient id="paint71_linear_4968_772" x1="23.0133" y1="5.70877" x2="25.7838" y2="5.70877" gradientUnits="userSpaceOnUse"><stop offset="0.31373" stop-color="#739F3E"></stop><stop offset="1" stop-color="#3A6B00"></stop></linearGradient><linearGradient id="paint72_linear_4968_772" x1="36.1711" y1="26.45" x2="38.0144" y2="26.45" gradientUnits="userSpaceOnUse"><stop offset="0.31373" stop-color="#739F3E"></stop><stop offset="1" stop-color="#3A6B00"></stop></linearGradient><linearGradient id="paint73_linear_4968_772" x1="8.67508" y1="27.9166" x2="9.99916" y2="27.9166" gradientUnits="userSpaceOnUse"><stop offset="0.31373" stop-color="#739F3E"></stop><stop offset="1" stop-color="#3A6B00"></stop></linearGradient><linearGradient id="paint74_linear_4968_772" x1="13.5245" y1="7.42446" x2="15.3719" y2="7.42446" gradientUnits="userSpaceOnUse"><stop offset="0.31373" stop-color="#739F3E"></stop><stop offset="1" stop-color="#3A6B00"></stop></linearGradient><linearGradient id="paint75_linear_4968_772" x1="32.3599" y1="15.6263" x2="33.6585" y2="15.6263" gradientUnits="userSpaceOnUse"><stop offset="0.31373" stop-color="#739F3E"></stop><stop offset="1" stop-color="#3A6B00"></stop></linearGradient><linearGradient id="paint76_linear_4968_772" x1="43.6441" y1="20.4988" x2="45.8033" y2="20.4988" gradientUnits="userSpaceOnUse"><stop offset="0.31373" stop-color="#739F3E"></stop><stop offset="1" stop-color="#3A6B00"></stop></linearGradient><linearGradient id="paint77_linear_4968_772" x1="23.4474" y1="13.5269" x2="25.4628" y2="13.5269" gradientUnits="userSpaceOnUse"><stop offset="0.31373" stop-color="#739F3E"></stop><stop offset="1" stop-color="#3A6B00"></stop></linearGradient><linearGradient id="paint78_linear_4968_772" x1="39.3229" y1="21.8981" x2="41.6465" y2="21.8981" gradientUnits="userSpaceOnUse"><stop offset="0.31373" stop-color="#739F3E"></stop><stop offset="1" stop-color="#3A6B00"></stop></linearGradient><linearGradient id="paint79_linear_4968_772" x1="19.2979" y1="11.2574" x2="20.7727" y2="11.2574" gradientUnits="userSpaceOnUse"><stop offset="0.31373" stop-color="#739F3E"></stop><stop offset="1" stop-color="#3A6B00"></stop></linearGradient><linearGradient id="paint80_linear_4968_772" x1="27.7763" y1="9.31837" x2="29.2471" y2="9.31837" gradientUnits="userSpaceOnUse"><stop offset="0.31373" stop-color="#739F3E"></stop><stop offset="1" stop-color="#3A6B00"></stop></linearGradient><linearGradient id="paint81_linear_4968_772" x1="34.0158" y1="26.6552" x2="34.9075" y2="26.6552" gradientUnits="userSpaceOnUse"><stop offset="0.31373" stop-color="#739F3E"></stop><stop offset="1" stop-color="#3A6B00"></stop></linearGradient><linearGradient id="paint82_linear_4968_772" x1="7.42931" y1="24.8303" x2="10.9961" y2="24.8303" gradientUnits="userSpaceOnUse"><stop offset="0.31373" stop-color="#739F3E"></stop><stop offset="1" stop-color="#3A6B00"></stop></linearGradient><linearGradient id="paint83_linear_4968_772" x1="5.65088" y1="35.6603" x2="34.7296" y2="35.6603" gradientUnits="userSpaceOnUse"><stop offset="0.31373" stop-color="#739F3E"></stop><stop offset="1" stop-color="#3A6B00"></stop></linearGradient><linearGradient id="paint84_linear_4968_772" x1="16.7137" y1="42.9261" x2="30.7463" y2="42.9261" gradientUnits="userSpaceOnUse"><stop offset="0.31373" stop-color="#739F3E"></stop><stop offset="1" stop-color="#3A6B00"></stop></linearGradient><linearGradient id="paint85_linear_4968_772" x1="5.84332" y1="39.4171" x2="30.8676" y2="39.4171" gradientUnits="userSpaceOnUse"><stop offset="0.31373" stop-color="#739F3E"></stop><stop offset="1" stop-color="#3A6B00"></stop></linearGradient><linearGradient id="paint86_linear_4968_772" x1="19.5288" y1="35.8725" x2="43.6483" y2="35.8725" gradientUnits="userSpaceOnUse"><stop offset="0.31373" stop-color="#739F3E"></stop><stop offset="1" stop-color="#3A6B00"></stop></linearGradient><linearGradient id="paint87_linear_4968_772" x1="26.8903" y1="41.0507" x2="35.7124" y2="41.0507" gradientUnits="userSpaceOnUse"><stop offset="0.31373" stop-color="#739F3E"></stop><stop offset="1" stop-color="#3A6B00"></stop></linearGradient><linearGradient id="paint88_linear_4968_772" x1="12.1637" y1="42.3007" x2="21.8205" y2="42.3007" gradientUnits="userSpaceOnUse"><stop offset="0.31373" stop-color="#739F3E"></stop><stop offset="1" stop-color="#3A6B00"></stop></linearGradient><linearGradient id="paint89_linear_4968_772" x1="32.2522" y1="38.9133" x2="39.7235" y2="38.9133" gradientUnits="userSpaceOnUse"><stop offset="0.31373" stop-color="#739F3E"></stop><stop offset="1" stop-color="#3A6B00"></stop></linearGradient><linearGradient id="paint90_linear_4968_772" x1="3.71761" y1="34.0969" x2="11.9683" y2="34.0969" gradientUnits="userSpaceOnUse"><stop offset="0.31373" stop-color="#739F3E"></stop><stop offset="1" stop-color="#3A6B00"></stop></linearGradient><linearGradient id="paint91_linear_4968_772" x1="2.17551" y1="17.9163" x2="45.12" y2="17.9163" gradientUnits="userSpaceOnUse"><stop offset="0.31373" stop-color="#739F3E"></stop><stop offset="1" stop-color="#3A6B00"></stop></linearGradient><linearGradient id="paint92_linear_4968_772" x1="9.82341" y1="17.79" x2="9.82488" y2="17.79" gradientUnits="userSpaceOnUse"><stop offset="0.31373" stop-color="#739F3E"></stop><stop offset="1" stop-color="#3A6B00"></stop></linearGradient><linearGradient id="paint93_linear_4968_772" x1="0" y1="23.9631" x2="47.9263" y2="23.9631" gradientUnits="userSpaceOnUse"><stop offset="0.31373" stop-color="#739F3E"></stop><stop offset="1" stop-color="#3A6B00"></stop></linearGradient><linearGradient id="paint94_linear_4968_772" x1="60.7381" y1="22.5617" x2="67.6837" y2="22.5617" gradientUnits="userSpaceOnUse"><stop offset="0.31373" stop-color="#739F3E"></stop><stop offset="1" stop-color="#3A6B00"></stop></linearGradient></defs></svg>