<svg xmlns="http://www.w3.org/2000/svg" xmlns:xlink="http://www.w3.org/1999/xlink" viewBox="0 0 4497.3 1834.7"><defs><linearGradient id="a" data-name="New Gradient Swatch 2" x1="125.4" y1="2175.8" x2="1838.7" y2="569" gradientUnits="userSpaceOnUse"><stop offset="0" stop-color="#008f8b"></stop><stop offset=".5" stop-color="#24af89"></stop><stop offset=".6" stop-color="#49b97d"></stop><stop offset=".8" stop-color="#a6d262"></stop><stop offset="1" stop-color="#f7e94a"></stop></linearGradient><linearGradient id="b" data-name="New Gradient Swatch 2" x1="-390.3" y1="1625.9" x2="1323" y2="19.1" xlink:href="#a"></linearGradient><linearGradient id="c" data-name="New Gradient Swatch 2" x1="-132.4" y1="1900.8" x2="1580.8" y2="294" xlink:href="#a"></linearGradient></defs><path class="logo-swap" d="M2331.4 1173.3l-30-102.1h-165.3l-29.6 102.1H1984L2153.3 649h130.9l169.7 524.3h-122.5zm-113.7-383.4l-54.4 187.7h111.3l-54.8-187.7h-2zm476.7 299.8v.4c24.8 0 43.5-4.9 56-14.6s18.8-23.4 18.8-41-5.8-31.4-17.4-41.4c-11.6-10-33.8-21-66.6-33-71-22.1-121.3-45.3-150.9-69.4-29.6-24.1-44.4-58-44.4-101.7s18.8-79 56.4-106.1c37.6-27.1 86-40.6 145.1-40.6s107.1 14.9 143.9 44.8c36.8 29.9 54.6 68.3 53.2 115.3l-.8 2.4h-118.1c0-21.6-7.1-38.8-21.4-51.6-14.3-12.8-33.6-19.2-58-19.2s-43.7 5.3-57.8 16c-14.1 10.7-21.2 23.7-21.2 39.2s6.7 27.9 20 37.2c13.3 9.3 40 21.2 80.1 35.6 62.4 18.4 108.1 40.7 136.9 66.8 28.8 26.2 43.2 61.8 43.2 106.9s-17.8 80.7-53.4 106.9c-35.6 26.2-83.5 39.2-143.5 39.2s-77.2-6.5-110.1-19.4c-32.8-12.9-59.2-32.8-79.1-59.6-19.9-26.8-29.4-58.5-28.6-95.1l.4-2H2596c0 29.6 7.9 51 23.8 64.2 15.9 13.2 40.8 19.8 74.6 19.8zm475.5-96.1H3079v179.7h-122.1V649h212.9c62.2 0 111.5 15.7 147.9 47.2 36.4 31.5 54.6 73.3 54.6 125.3s-18.2 93.7-54.6 125.1c-36.4 31.4-85.7 47-147.9 47zm-90.8-251v157.3h90.9c25.9 0 45.8-7.1 59.8-21.2s21-33.2 21-57-7-43-21-57.4c-14-14.4-34-21.6-59.8-21.6h-90.9zm475.6-93.6v524.3H3433V649h121.7zm212.5 523.5h-122.1V648.2h201.7c61.1 0 109.3 14 144.7 42 35.4 28 53 66.4 53 115.3s-28.3 92.9-84.9 117.7c31.5 9.1 54.4 24 68.8 44.8 14.4 20.8 21.6 47.6 21.6 80.5v32.8c0 16.5 2.3 33.1 6.8 49.6 4.5 16.6 11.5 28.3 20.8 35.2v7.2h-125.7c-15.5-12.3-23.2-43-23.2-92.1v-32c0-25.1-6.6-44.2-19.8-57.2-13.2-13.1-32.6-19.6-58.2-19.6l-83.7-.8v200.9zm0-429.9v136.1h80.1c24.5 0 43.3-5.5 56.2-16.6 12.9-11.1 19.4-27.4 19.4-48.8s-6.7-38.6-20-51.4c-13.3-12.8-32-19.2-56-19.2h-79.7zm692.9 112.5v93.7h-205.7v130.9h242.2v93.7h-364.2V649.1h365v93.7h-243v112.5h205.7z" fill="#132e53"></path><path d="M1684.9 769c-57.9-57.9-134.9-89.8-216.7-89.8-81.9 0-158.8 31.9-216.7 89.8l-367.9 367.9c-68.2 68.2-68.2 179 0 247.2l65.8-65.8c-31.9-31.9-31.9-83.8 0-115.7l367.9-367.9c40.3-40.3 93.9-62.5 151-62.5s110.6 22.2 151 62.5l81.7 81.7-81.7 81.7c-83.2 83.2-218.7 83.2-301.9 0l-22.9-22.9-65.8 65.8 22.9 22.9c57.9 57.9 134.9 89.8 216.7 89.8 81.9 0 158.8-31.9 216.7-89.8l147.5-147.5L1685 768.9z" fill="url(#a)"></path><path d="M948.8 697.8c68.2-68.2 68.2-179 0-247.2L883 516.4c31.9 31.9 31.9 83.8 0 115.7L515.1 1000c-83.2 83.2-218.7 83.2-301.9 0l-81.7-81.7 81.7-81.7c83.2-83.2 218.7-83.2 301.9 0l22.9 22.9 65.8-65.8-22.9-22.9C523 712.9 446 681 364.2 681c-81.9 0-158.8 31.9-216.7 89.8L0 918.2l147.5 147.5c57.9 57.9 134.9 89.8 216.7 89.8 81.9 0 158.8-31.9 216.7-89.8l367.9-367.9z" fill="url(#b)"></path><path d="M1162.2 1102.7l-65.8 65.8 25.2 25.2c83.9 83.9 84.5 219.9 1.2 303.1l-206.4 206.4-207.9-207.9c-83.9-83.9-84.5-219.9-1.2-303.1l483.6-483.7c29.3-29.3 51.9-63.5 67.3-101.6 14.8-36.8 22.3-75.7 22.1-115.6-.3-82-32.5-159.3-90.6-217.4L916 0 643.9 272.1c-29.3 29.3-51.9 63.5-67.3 101.6-14.8 36.8-22.3 75.7-22.1 115.6.3 82 32.5 159.3 90.6 217.4l25.2 25.2 65.8-65.8-25.2-25.2C627 557 626.4 421 709.7 337.8l206.4-206.4L1124 339.3c40.7 40.7 63.2 94.7 63.4 152 .2 57.2-21.9 110.9-62.2 151.2l-483.6 483.7c-29.3 29.3-51.9 63.5-67.3 101.6-14.8 36.8-22.3 75.7-22.1 115.6.3 82 32.5 159.3 90.6 217.4l273.7 273.7 272.1-272.1c29.3-29.3 51.9-63.5 67.3-101.6 14.8-36.8 22.3-75.7 22.1-115.6-.3-82-32.5-159.3-90.6-217.4l-25.2-25.2z" fill="url(#c)"></path></svg>