<svg width="2750" height="1036" xmlns="http://www.w3.org/2000/svg" xmlns:xlink="http://www.w3.org/1999/xlink" xml:space="preserve" overflow="hidden"><g transform="translate(-508 -540)"><g><path d="M1256.43 1348.05 1265.99 1373.61 1247.14 1373.61ZM1126.85 1348.04 1136.42 1373.6 1117.57 1373.6ZM653.427 1348.04 662.98 1373.59 644.143 1373.59ZM1312.8 1343.62 1319.49 1343.62C1324.49 1343.62 1327.8 1343.78 1329.45 1344.08 1331.7 1344.51 1333.54 1345.53 1335.02 1347.17 1336.47 1348.81 1337.21 1350.88 1337.21 1353.4 1337.21 1355.46 1336.68 1357.24 1335.63 1358.78 1334.59 1360.34 1333.15 1361.47 1331.31 1362.19 1329.47 1362.92 1325.83 1363.29 1320.38 1363.29L1312.8 1363.29ZM1298.87 1331.95 1298.87 1400.99 1312.81 1400.99 1312.81 1374.95 1321.84 1374.95C1328.11 1374.95 1332.9 1374.61 1336.22 1373.95 1338.65 1373.42 1341.05 1372.33 1343.41 1370.69 1345.76 1369.04 1347.69 1366.77 1349.23 1363.88 1350.76 1360.99 1351.53 1357.44 1351.53 1353.19 1351.53 1347.7 1350.2 1343.21 1347.54 1339.74 1344.88 1336.27 1341.58 1334.03 1337.64 1332.98 1335.08 1332.29 1329.59 1331.95 1321.15 1331.95ZM1249.19 1331.95 1222.48 1400.99 1237.22 1400.99 1242.93 1385.27 1270.51 1385.27 1276.45 1400.99 1291.46 1400.99 1263.91 1331.95ZM1119.61 1331.94 1092.9 1400.98 1107.63 1400.98 1113.34 1385.26 1140.94 1385.26 1146.87 1400.98 1161.88 1400.98 1134.33 1331.94ZM1052.18 1331.94 1052.18 1400.98 1066.11 1400.98 1066.11 1343.61 1098.78 1343.61 1098.78 1331.94ZM955.429 1331.94 955.429 1400.98 969.362 1400.98 969.362 1370.8 996.455 1370.8 996.455 1400.98 1010.39 1400.98 1010.39 1331.94 996.455 1331.94 996.455 1359.13 969.362 1359.13 969.362 1331.94ZM886.561 1331.94 886.561 1400.98 900.392 1400.98 928.256 1355.75 928.256 1400.98 941.23 1400.98 941.23 1331.94 927.396 1331.94 899.533 1377.91 899.533 1331.94ZM817.5 1331.94 817.5 1400.98 831.335 1400.98 859.198 1355.75 859.198 1400.98 872.172 1400.98 872.172 1331.94 858.338 1331.94 830.475 1377.91 830.475 1331.94ZM763.529 1331.94 763.529 1400.98 777.461 1400.98 777.461 1343.61 810.124 1343.61 810.124 1331.94ZM646.174 1331.93 619.467 1400.97 634.195 1400.97 639.907 1385.26 667.502 1385.26 673.439 1400.97 688.445 1400.97 660.895 1331.93ZM1190.38 1330.69C1176.74 1330.69 1168.46 1336.32 1165.55 1347.57L1179.1 1350.75C1180.71 1344.96 1184.43 1342.07 1190.24 1342.07 1193.63 1342.07 1196.24 1342.94 1198.06 1344.66 1199.89 1346.39 1200.8 1348.51 1200.8 1351.04 1200.8 1354.21 1199.68 1356.76 1197.43 1358.68 1195.19 1360.59 1191.94 1361.55 1187.69 1361.55L1186.11 1361.55 1186.11 1371.97 1189.26 1371.97C1193.82 1371.97 1197.25 1372.84 1199.5 1374.57 1201.78 1376.3 1202.91 1378.61 1202.91 1381.44 1202.91 1383.91 1201.91 1386.09 1199.91 1388 1197.89 1389.92 1194.69 1390.87 1190.3 1390.87 1187.1 1390.87 1184.41 1390.26 1182.23 1389.02 1180.06 1387.8 1178.29 1385.09 1176.98 1380.93L1164.3 1385.07C1166.39 1391.7 1169.52 1396.22 1173.68 1398.62 1177.85 1401.03 1183.53 1402.24 1190.72 1402.24 1199.55 1402.24 1206.17 1400.36 1210.6 1396.61 1215.03 1392.87 1217.24 1387.97 1217.24 1381.89 1217.24 1377.67 1216.1 1374.14 1213.83 1371.25 1211.56 1368.36 1208.13 1366.15 1203.59 1364.57 1207.33 1362.54 1210.15 1360.21 1212.02 1357.56 1213.89 1354.9 1214.84 1351.93 1214.84 1348.63 1214.84 1343.81 1212.79 1339.62 1208.67 1336.05 1204.55 1332.48 1198.46 1330.69 1190.38 1330.69ZM723.176 1330.69C713.533 1330.69 705.752 1333.88 699.843 1340.24 693.925 1346.6 690.969 1355.53 690.969 1367.02 690.969 1377.9 693.916 1386.46 699.789 1392.73 705.689 1399 713.201 1402.13 722.343 1402.13 729.72 1402.13 735.808 1400.28 740.609 1396.6 745.416 1392.91 748.854 1387.27 750.923 1379.67L737.474 1375.52C736.319 1380.58 734.403 1384.27 731.744 1386.64 729.084 1388.99 725.898 1390.17 722.2 1390.17 717.185 1390.17 713.121 1388.32 709.977 1384.61 706.862 1380.91 705.286 1374.7 705.286 1365.98 705.286 1357.76 706.872 1351.81 710.059 1348.14 713.228 1344.47 717.383 1342.64 722.486 1342.64 726.175 1342.64 729.308 1343.66 731.906 1345.74 734.483 1347.81 736.184 1350.64 736.999 1354.21L750.734 1350.93C749.158 1345.39 746.821 1341.14 743.688 1338.19 738.433 1333.19 731.6 1330.69 723.176 1330.69ZM587.377 1330.68C573.732 1330.68 565.45 1336.3 562.54 1347.55L576.087 1350.73C577.698 1344.95 581.414 1342.05 587.225 1342.05 590.618 1342.05 593.224 1342.92 595.05 1344.64 596.877 1346.38 597.79 1348.49 597.79 1351.02 597.79 1354.19 596.671 1356.74 594.415 1358.66 592.176 1360.57 588.926 1361.53 584.682 1361.53L583.097 1361.53 583.097 1371.95 586.249 1371.95C590.806 1371.95 594.235 1372.82 596.492 1374.55 598.766 1376.29 599.903 1378.59 599.903 1381.42 599.903 1383.89 598.9 1386.07 596.895 1387.99 594.88 1389.9 591.675 1390.85 587.287 1390.85 584.091 1390.85 581.396 1390.24 579.22 1389 577.045 1387.78 575.281 1385.07 573.965 1380.91L561.286 1385.06C563.382 1391.68 566.506 1396.2 570.67 1398.61 574.833 1401.02 580.519 1402.22 587.708 1402.22 596.536 1402.22 603.162 1400.34 607.585 1396.59 612.017 1392.86 614.229 1387.95 614.229 1381.88 614.229 1377.65 613.091 1374.12 610.817 1371.23 608.552 1368.34 605.123 1366.13 600.575 1364.55 604.317 1362.52 607.137 1360.19 609.009 1357.54 610.88 1354.88 611.829 1351.91 611.829 1348.61 611.829 1343.8 609.779 1339.6 605.66 1336.03 601.55 1332.47 595.453 1330.68 587.377 1330.68ZM899.282 1311.99C899.658 1316.25 901.163 1319.61 903.768 1322.03 906.382 1324.46 909.759 1325.68 913.923 1325.68 918.067 1325.68 921.443 1324.46 924.057 1322.03 926.671 1319.6 928.176 1316.25 928.542 1311.99L922.105 1311.99C921.882 1314.2 921.102 1315.89 919.759 1317.03 918.416 1318.17 916.464 1318.73 913.913 1318.73 911.352 1318.73 909.399 1318.17 908.057 1317.03 906.715 1315.89 905.945 1314.2 905.72 1311.99ZM1215.55 1263.45 1229.66 1263.45C1235.32 1263.45 1239.24 1264.2 1241.42 1265.73 1243.57 1267.26 1244.67 1269.56 1244.67 1272.61 1244.67 1274.76 1244 1276.58 1242.68 1278.08 1241.34 1279.57 1239.82 1280.54 1238.13 1280.95 1236.42 1281.37 1233.4 1281.58 1229.1 1281.58L1215.55 1281.58ZM872.467 1234.92C878.215 1234.92 882.809 1236.85 886.273 1240.76 889.747 1244.65 891.476 1250.56 891.476 1258.48 891.476 1266.5 889.693 1272.51 886.139 1276.53 882.566 1280.53 878.018 1282.54 872.467 1282.54 866.925 1282.54 862.339 1280.51 858.741 1276.49 855.133 1272.44 853.324 1266.51 853.324 1258.69 853.324 1250.73 855.097 1244.77 858.598 1240.82 862.108 1236.9 866.728 1234.92 872.467 1234.92ZM675.158 1234.92C680.897 1234.92 685.5 1236.85 688.955 1240.76 692.429 1244.65 694.157 1250.56 694.157 1258.48 694.157 1266.5 692.376 1272.51 688.829 1276.53 685.257 1280.53 680.709 1282.54 675.158 1282.54 669.616 1282.54 665.031 1280.51 661.431 1276.49 657.833 1272.44 656.024 1266.51 656.024 1258.69L656.014 1258.68C656.014 1250.72 657.779 1244.77 661.29 1240.82 664.798 1236.9 669.418 1234.92 675.158 1234.92ZM1295.29 1224.21 1295.29 1293.24 1309.22 1293.24 1309.22 1263.06 1336.31 1263.06 1336.31 1293.24 1350.25 1293.24 1350.25 1224.21 1336.31 1224.21 1336.31 1251.4 1309.22 1251.4 1309.22 1224.21ZM1266.95 1224.21 1266.95 1293.24 1280.88 1293.24 1280.88 1224.21ZM1201.62 1224.21 1201.63 1293.24 1234.08 1293.24C1239.83 1293.24 1244.2 1292.7 1247.18 1291.59 1250.17 1290.49 1252.88 1288.27 1255.33 1284.89 1257.76 1281.5 1258.97 1277.48 1258.97 1272.81 1258.97 1268.34 1257.81 1264.39 1255.47 1260.95 1253.12 1257.51 1250.19 1255.13 1246.68 1253.8 1243.17 1252.46 1238.98 1251.78 1234.11 1251.78L1215.55 1251.78 1215.55 1224.21ZM1001.28 1224.21 1026.59 1273.7C1025.32 1277.61 1023.98 1280.17 1022.6 1281.35 1021.21 1282.52 1018.9 1283.12 1015.71 1283.12 1014.11 1283.12 1012.34 1283.05 1010.37 1282.93L1010.37 1293.31C1012.67 1293.84 1015.88 1294.11 1019.98 1294.11 1024.13 1294.11 1027.52 1292.62 1030.14 1289.66 1032.77 1286.68 1035.34 1282.36 1037.87 1276.67L1061.14 1224.21 1046.65 1224.21 1032.94 1259.95 1016.92 1224.21ZM919.187 1224.21 919.187 1263.57 919.231 1275.43C919.231 1278.5 918.738 1280.43 917.727 1281.22 916.742 1282 914.772 1282.39 911.872 1282.39L908.764 1282.34 908.764 1293.15C913.062 1293.46 916.008 1293.62 917.638 1293.62 922.266 1293.62 925.66 1292.69 927.835 1290.83 930.002 1288.96 931.372 1286.34 931.927 1283 932.492 1279.67 932.778 1273.78 932.778 1265.34L932.778 1235.87 953.433 1235.87 953.433 1293.24 967.365 1293.24 967.365 1224.21ZM789.378 1224.21 789.378 1293.24 803.31 1293.24 803.31 1235.87 835.972 1235.87 835.972 1224.21ZM719.326 1224.21 719.326 1293.24 733.257 1293.24 733.257 1263.06 760.351 1263.06 760.351 1293.24 774.282 1293.24 774.282 1224.21 760.351 1224.21 760.351 1251.4 733.257 1251.4 733.257 1224.21ZM564.366 1224.21 564.366 1293.24 577.242 1293.24 577.296 1238.9 590.788 1293.24 604.183 1293.24 617.739 1238.9 617.792 1293.24 630.667 1293.24 630.667 1224.21 609.752 1224.21 597.566 1271.29 585.237 1224.21ZM1069.37 1224.2 1069.37 1263.57 1069.42 1275.43C1069.42 1278.5 1068.93 1280.43 1067.91 1281.22 1066.93 1282 1064.96 1282.39 1062.06 1282.39L1058.95 1282.34 1058.95 1293.15C1063.25 1293.46 1066.19 1293.62 1067.82 1293.62 1072.45 1293.62 1075.85 1292.69 1078.02 1290.83 1080.2 1288.96 1081.56 1286.34 1082.12 1283 1082.69 1279.67 1082.97 1273.78 1082.97 1265.34L1082.97 1235.87 1103.63 1235.87 1103.63 1293.24 1117.56 1293.24 1117.56 1224.21 1069.38 1224.21ZM872.296 1222.96C866.691 1222.96 861.75 1223.87 857.451 1225.69 854.237 1227.06 851.274 1229.13 848.571 1231.93 845.866 1234.73 843.717 1237.89 842.167 1241.41 840.073 1246.19 839.016 1252.12 839.016 1259.15L839.007 1259.16C839.007 1270.19 842.034 1278.83 848.069 1285.09 854.103 1291.37 862.252 1294.51 872.485 1294.51 882.593 1294.51 890.678 1291.36 896.713 1285.04 902.747 1278.74 905.774 1270 905.774 1258.83 905.774 1247.56 902.739 1238.77 896.651 1232.44 890.553 1226.12 882.449 1222.96 872.296 1222.96ZM674.997 1222.96C669.392 1222.96 664.439 1223.87 660.152 1225.69 656.928 1227.06 653.964 1229.13 651.26 1231.93 648.557 1234.73 646.417 1237.89 644.859 1241.41 642.763 1246.19 641.707 1252.12 641.707 1259.15 641.707 1270.18 644.733 1278.83 650.768 1285.09 656.802 1291.37 664.951 1294.51 675.184 1294.51 685.292 1294.51 693.378 1291.36 699.412 1285.04 705.447 1278.74 708.473 1270 708.473 1258.83 708.473 1247.56 705.438 1238.77 699.35 1232.44 693.253 1226.12 685.15 1222.96 674.997 1222.96ZM1161.56 1222.95C1151.92 1222.95 1144.14 1226.14 1138.23 1232.5 1132.32 1238.86 1129.35 1247.79 1129.35 1259.29 1129.35 1270.16 1132.3 1278.72 1138.17 1284.99 1144.06 1291.27 1151.58 1294.39 1160.72 1294.39 1168.09 1294.39 1174.18 1292.54 1178.98 1288.87 1183.79 1285.17 1187.23 1279.53 1189.3 1271.93L1175.85 1267.79C1174.7 1272.85 1172.78 1276.53 1170.12 1278.89 1167.46 1281.26 1164.27 1282.43 1160.57 1282.43 1155.56 1282.43 1151.49 1280.58 1148.35 1276.87 1145.23 1273.17 1143.66 1266.96 1143.66 1258.24 1143.66 1250.02 1145.25 1244.07 1148.43 1240.41 1151.6 1236.73 1155.75 1234.9 1160.86 1234.9 1164.55 1234.9 1167.68 1235.92 1170.28 1238 1172.86 1240.08 1174.56 1242.91 1175.37 1246.47L1189.12 1243.19C1187.54 1237.65 1185.2 1233.41 1182.07 1230.45 1176.82 1225.46 1169.98 1222.95 1161.56 1222.95ZM896.372 1119.37 956.415 1157.05 1016.45 1119.37ZM895.182 1078.76 895.182 1102.68 1017.64 1102.68 1017.64 1078.76ZM956.541 1027.71C962.092 1027.71 966.623 1032.26 966.623 1037.84 966.623 1043.41 962.092 1047.96 956.541 1047.96 950.98 1047.96 946.451 1043.41 946.451 1037.84 946.451 1032.27 950.98 1027.71 956.541 1027.71ZM956.541 961.374C962.092 961.374 966.623 965.921 966.623 971.492 966.623 977.072 962.092 981.618 956.541 981.618 950.98 981.618 946.451 977.072 946.451 971.492 946.451 965.921 950.98 961.374 956.541 961.374ZM988.048 951.544C991.638 957.276 993.724 964.052 993.724 971.302 993.724 991.367 977.778 1007.81 957.955 1008.53 956.711 1008.57 955.456 1008.6 954.221 1008.7 939.69 1009.92 928.203 1022.21 928.203 1037.11 928.203 1048.23 934.784 1057.84 944.221 1062.51 951.124 1065.91 957.999 1066.05 965.432 1064.94 994.906 1060.53 1017.65 1034.91 1017.65 1004.14 1017.65 981.896 1005.77 962.344 988.056 951.553ZM959.766 943.353C955.231 942.683 950.481 942.776 945.876 943.582 917.126 948.614 895.155 973.882 895.155 1004.14 895.155 1026.61 907.278 1046.32 925.292 1057.04 921.63 1051.27 919.509 1044.44 919.509 1037.11 919.509 1016.81 935.84 1000.21 955.986 999.867 956.263 999.867 956.541 999.849 956.808 999.849 972.37 999.76 985.04 986.955 985.04 971.312 985.04 954.241 973.371 945.365 959.766 943.353ZM895.182 903.794 895.182 927.714 1017.64 927.714 1017.64 903.794ZM1031.69 852.874 1031.69 1157.2 1095.21 1157.2 1095.21 852.874ZM817.599 852.874 817.599 1157.2 881.125 1157.2 881.125 852.874ZM896.372 852.757 956.415 890.433 1016.45 852.757ZM887.151 771.195C888.502 808.332 919.088 838.201 956.405 838.201 993.734 838.201 1024.32 808.332 1025.67 771.195 1013.3 797.118 986.875 815.107 956.405 815.107 925.938 815.107 899.524 797.128 887.151 771.195ZM956.405 699.077C928.086 699.077 904.977 722.269 904.977 750.699 904.977 779.12 928.077 802.311 956.405 802.311 984.735 802.311 1007.84 779.13 1007.84 750.699 1007.84 722.269 984.735 699.077 956.405 699.077ZM956.953 587.199C954.204 588.466 950.998 594.755 950.998 599.581 950.998 605.987 955.968 612.376 953.273 617.336 951.795 620.049 950.112 621.595 949.091 623.563 945.895 629.727 945.644 634.345 949.745 645.101 951.571 649.891 948.992 654.105 944.561 654.051 938.911 653.979 937.372 649.836 938.114 645.955 938.947 641.588 944.48 639.872 942.77 633.546 942.179 631.336 940.209 628.837 939.86 626.079 939.412 622.539 940.711 618.855 941.167 617.929 938.212 620.885 934.22 624.084 933.637 629.287 933.252 632.683 934.264 634.768 933.154 639.396 932.321 642.828 929.214 644.733 927.11 647.42 925.364 649.648 924.263 652.559 924.406 655.254 924.719 672.686 939.287 686.803 956.405 686.803 973.525 686.803 988.925 672.533 988.406 655.003L988.423 655.021C988.146 645.712 979.855 642.325 978.298 637.014 976.569 631.173 979.219 631.488 977.715 626.313 977.161 624.398 974.851 621.891 969.783 619.187 974.582 626.717 970.651 630.05 970.034 634.427 969.658 637.095 969.424 640.501 971.699 642.783 975.539 646.638 974.68 653.646 968.6 654.194 962.835 654.707 960.113 649.585 961.034 643.709 962.378 635.163 969.854 624.695 963.175 615.647 956.738 606.922 952.127 599.239 956.953 587.199ZM511 544 1409 544 1409 1444 511 1444Z" fill="#0C3078" fill-rule="evenodd" fill-opacity="1"/><text fill="#0B3078" fill-opacity="1" font-family="Arial,Arial_MSFontService,sans-serif" font-style="normal" font-variant="normal" font-weight="700" font-stretch="normal" font-size="165" text-anchor="start" direction="ltr" writing-mode="lr-tb" unicode-bidi="normal" text-decoration="none" transform="matrix(1 0 0 1 1479.98 1039)">СОЁЛ, СПОРТ,</text><text fill="#0B3078" fill-opacity="1" font-family="Arial,Arial_MSFontService,sans-serif" font-style="normal" font-variant="normal" font-weight="700" font-stretch="normal" font-size="165" text-anchor="start" direction="ltr" writing-mode="lr-tb" unicode-bidi="normal" text-decoration="none" transform="matrix(1 0 0 1 1479.98 1237)">АЯЛАЛ ЖУУЛЧЛАЛ</text><text fill="#0B3078" fill-opacity="1" font-family="Arial,Arial_MSFontService,sans-serif" font-style="normal" font-variant="normal" font-weight="700" font-stretch="normal" font-size="165" text-anchor="start" direction="ltr" writing-mode="lr-tb" unicode-bidi="normal" text-decoration="none" transform="matrix(1 0 0 1 3052.2 1237)">, </text><text fill="#0B3078" fill-opacity="1" font-family="Arial,Arial_MSFontService,sans-serif" font-style="normal" font-variant="normal" font-weight="700" font-stretch="normal" font-size="165" text-anchor="start" direction="ltr" writing-mode="lr-tb" unicode-bidi="normal" text-decoration="none" transform="matrix(1 0 0 1 1479.98 1435)">ЗАЛУУЧУУДЫН ЯАМ</text></g></g></svg>