<svg width="820" height="1659" xmlns="http://www.w3.org/2000/svg" xmlns:xlink="http://www.w3.org/1999/xlink" xml:space="preserve" overflow="hidden"><g transform="translate(-270 -527)"><g><path d="M884.909 1882.01C922.421 1882.01 947.085 1898.74 947.085 1934.05 947.088 1969.63 922.424 1990.02 881.055 1990.02 870.082 1990.02 860.311 1989.21 852.883 1987.29L852.883 1884.74C858.759 1883.56 870.082 1882.01 884.909 1882.01ZM447.239 1880.09C519.131 1880.09 554.357 1918.85 553.929 1981.82 553.926 2053.06 514.434 2094.18 441.778 2093.83 428.448 2093.83 415.991 2093.83 407.412 2092.2L407.412 1883.56C416.405 1881.63 429.708 1880.09 447.239 1880.09ZM884.121 1853.37C856.806 1853.37 835.301 1855.76 818.88 1858.88L818.88 2119.23 852.886 2119.23 852.886 2013.53C860.756 2015.47 870.085 2015.85 880.267 2015.85 913.496 2015.85 942.751 2005.94 960.71 1986.89 974.414 1973.1 981.427 1954.31 981.427 1930.48 981.427 1906.94 972.448 1887.81 958.034 1875.33 942.336 1861.23 917.779 1853.37 884.121 1853.37ZM445.698 1852.98C418.704 1852.98 394.16 1855.35 372.987 1858.52L372.987 2118.06C390.573 2120.42 410.526 2121.11 435.139 2121.11 486.289 2121.11 526.946 2107.93 552.024 2083.24 576.167 2059.01 589.83 2023.68 589.83 1980.66 589.834 1937.98 576.167 1907.05 552.346 1885.52 529.289 1864 494.559 1852.98 445.698 1852.98ZM275 1790.85 669.447 1790.85 669.447 2186 275 2186ZM694.18 1790.46 1088.6 1790.46 1088.6 2185.6 694.18 2185.6ZM792.585 1436.73 792.585 1700.61 824.635 1700.61 824.635 1700.61C824.635 1700.61 824.235 1512.3 822.254 1479.02L823.46 1478.64C836.414 1507.2 955.924 1700.61 955.924 1700.61L990.317 1700.61 990.317 1436.73 958.332 1436.73C958.332 1436.73 959.082 1620.34 962.187 1655.61L960.98 1655.96C948.856 1628.6 830.124 1436.73 830.124 1436.73ZM375.451 1435.77 375.451 1591.2C375.451 1673.44 416.066 1703.96 470.039 1703.96 527.052 1703.96 569.675 1671 569.675 1590.01L569.675 1435.77 535.298 1435.77 535.298 1592.35C535.298 1650.41 509.898 1676.18 471.194 1676.18 436.022 1676.18 409.886 1651.09 409.886 1592.35L409.886 1435.77ZM694.18 1371.03 1088.6 1371.03 1088.6 1766.2 694.18 1766.2ZM275.428 1371.03 669.848 1371.03 669.848 1766.2 275.428 1766.2ZM710.998 1139.12C703.605 1139.48 696.27 1140.54 689.17 1142.39 683.524 1147.49 677.676 1141.52 671.667 1141.39 633.391 1133.06 600.495 1150.53 568.712 1164.34 545.065 1173.68 514.098 1172.15 493.247 1157.79 503.58 1170.72 517.284 1178.68 531.495 1184.09 557.995 1194.63 589.432 1187.46 611.352 1172.15 630.103 1161.58 646.242 1140.87 670.92 1148.67 645.814 1160.43 622.795 1176.84 601.971 1197.89L615.032 1208.64C630.154 1188.34 650.337 1171.69 670.759 1158.74 675.148 1156.39 679.859 1153.45 684.703 1152.81 709.757 1165.05 732.212 1186.09 752.394 1207.88 756.731 1204.39 761.267 1200.6 764.841 1196.59 743.843 1176.28 720.919 1160.43 696.214 1148.93 700.281 1147.72 704.978 1147.49 709.757 1147.62 723.115 1146.72 732.215 1156.15 742.479 1162.71 767.852 1182.02 801.818 1194.74 834.337 1182.55 848.963 1177.35 863.068 1168.08 873.36 1155.17 853.297 1169.54 822.946 1171.91 799.498 1163.23L774.259 1153.13C755.872 1143.37 733.177 1138.05 710.998 1139.12ZM506.245 1067.89C522.625 1089.91 527.082 1122.6 557.221 1133.27 562.226 1135.88 568.595 1135.55 573.172 1138.47 567.417 1139.34 562.384 1137.19 556.991 1136.4 518.541 1127.82 471.314 1138.82 442.501 1105.89 453.447 1127.41 475.905 1144.65 497.667 1151.49 531.176 1162.92 566.32 1150.23 597.864 1142.38 602.4 1141.19 607.967 1141.62 612.157 1140.12 594.585 1136.49 577.952 1130.85 564.059 1118.71 544.719 1100.55 527.202 1081.8 506.245 1067.89ZM859.392 1064.93C837.561 1079.84 820.126 1099.25 800.519 1118.14 787.161 1130.22 770.915 1135.24 754.213 1139.04L754.213 1139.22 760.945 1140.1C795.952 1145.79 832.649 1162.71 869.252 1148.91 890.531 1141.4 913.79 1123.56 923.136 1102.29 898.082 1132.83 857.131 1127.1 821.333 1132.7 811.681 1133.67 802.784 1137.19 793.026 1136.98 799.879 1133.67 808.177 1132.92 814.826 1128.57 841.525 1115.22 843.211 1085.7 859.392 1064.93ZM686.032 1041.23C687.519 1041.46 688.297 1042.77 689.366 1043.66 693.299 1045.24 700.045 1042.03 702.186 1046.47 701.011 1048.99 699.027 1051.39 699.805 1054.27 701.381 1058.35 703.793 1063.63 708.877 1063.97 710.186 1065.73 711.953 1066.13 713.666 1066.78 704.992 1068.19 695.666 1067.77 687.622 1070.5 688.718 1061.68 687.622 1052.57 687.625 1043.66ZM562.223 1033.64C593.112 1063.57 630.503 1078.54 672.781 1081.45L676.152 1080.57 675.028 1082.21 675.028 1111.67 676.672 1114.26C670.009 1112.19 662.057 1112.84 655.099 1111.67 611.523 1105.69 573.354 1086.79 539.55 1057.44L561.873 1034.95ZM802.38 1031.4 802.904 1033.98 825.749 1055.82C787.045 1091.01 741.958 1110.91 689.684 1113.16L687.622 1114.47C688.424 1103.37 688.424 1091.41 687.622 1080.36 693.055 1082.21 698.794 1080.16 704.563 1080.16L721.135 1077.24C729.378 1078.85 735.254 1092.19 744.34 1084.03 747.471 1080.26 752.997 1080.58 755.005 1075.35 760.301 1073.41 761.586 1067.96 765.361 1064.53 768.962 1054.3 780.443 1052.8 787.483 1045.73 792.585 1041.13 799.289 1037.35 802.38 1031.4ZM793.236 1024.84 794.023 1024.84 793.136 1024.93ZM602.533 1013.65C623.035 1029 646.109 1038.65 672.472 1039.97L675.041 1038.85 675.041 1067.54 676.381 1071.23 673.342 1069.16C632.966 1066.98 598.504 1050.47 568.393 1024.13 573.251 1023.55 575.098 1030.08 580.439 1028.43 586.236 1027.81 590.799 1023.12 597.021 1024.13 600.029 1024.18 603.818 1024.13 605.665 1021.17 606.627 1017.94 603.177 1016.25 602.533 1013.65ZM597.874 1007.36 598.275 1008.1 598.275 1008.7ZM463.002 1003.24C476.251 1029.74 470.043 1064.3 487.707 1088.94 492.606 1097.09 500.582 1104.25 507.568 1110.56L507.246 1110.91C501.011 1107.94 495.08 1103.72 489.581 1098.82 459.282 1073.95 414.223 1070.57 396.195 1029.74 401.094 1059.73 424.418 1087 450.531 1103.08 474.407 1119.81 506.122 1117.3 533.304 1126.2 508.209 1105.98 504.114 1075.8 493.274 1049.07 485.994 1032.64 475.048 1017.67 463.002 1003.24ZM771.926 1001.94 772.649 1004 785.979 1017.8C785.979 1020.94 786.476 1023.68 789.566 1025.08 790.303 1025.41 791.079 1025.24 791.84 1025.05L793.136 1024.93 773.937 1041.03 772.426 1043.13C771.693 1040.92 776.081 1039.94 774.255 1037.35 768.633 1032.14 777.733 1027.8 779.487 1023.01 778.521 1017.92 772.888 1015.08 768.565 1013.66 766.478 1012.49 767.119 1009.87 767.026 1008.1 768.928 1006.18 770.908 1004.56 771.926 1001.94ZM901.772 999.78C894.159 1008.09 888.739 1017.35 882.261 1026.17 861.783 1057.25 863.482 1098.08 832.796 1124.46 850.944 1118.28 870.883 1116.66 889.486 1111.65 925.634 1100.12 963.896 1063.95 968.689 1025.43 964.259 1036.81 955.009 1047.32 944.919 1055.37 919.786 1074.27 889.407 1080.8 866.093 1104.05 863.644 1105.7 861.143 1108.14 858.265 1108.3 866.977 1100.65 874.888 1091.27 880.414 1081.67 894.707 1057.33 889.339 1024.87 901.772 999.78ZM622.041 973.709C624.85 978.908 630.928 981.737 635.598 985.224 643.803 989.03 652.299 995.987 661.923 994.017 658.98 995.105 656.168 996.794 653.786 999.327 652.505 1002.28 652.944 1006.59 649.048 1007.94 649.247 1014.11 654.79 1019.33 658.723 1023.76L663.862 1026.17C645.033 1021.52 624.771 1014.97 608.498 1001.42 605.688 999.787 603.801 996.07 600.495 995.857 608.056 989.662 615.617 981.524 622.041 973.709ZM726.62 970.675 727.449 971.626C727.984 978.143 722.485 982.056 717.572 984.98 714.454 986.281 708.685 985.852 708.873 990.959 705.341 994.22 701.929 989.003 697.499 990.451 695.423 989.353 697.417 986.281 694.607 985.746 690.044 987.729 684.597 983.388 681.376 988.581 678.964 988.876 677.025 988.687 675.031 987.815 674.082 987.736 674.404 986.638 674.082 986.006 677.268 986.086 678.728 982.252 682.14 982.828 684.107 981.071 684.415 978.147 687.091 977.21 686.235 974.364 689.712 976.214 690.462 974.567 691.425 973.709 692.764 972.741 694.128 973.506 696.31 976.63 700.74 975.315 702.96 978.895 704.016 979.348 704.351 978.143 704.217 977.419L704.217 976.064C707.709 975.744 709.435 980.773 713.156 977.419 713.985 976.626 713.745 975.016 713.156 974.227 712.687 974.042 712.138 973.798 712.032 973.263 714.492 972.058 716.02 977.086 719.124 975.315 721.56 973.263 723.273 970.675 726.62 970.675ZM722.739 958.957C722.499 962.86 717.024 962.74 714.454 965.448 712.913 964.871 714.091 963.344 714.454 962.523 717.024 960.447 718.953 958.353 722.739 958.957ZM651.461 943.488C652.077 947.003 656.171 948.571 659.035 950.246 664.829 952.82 671.814 956.843 678.385 954.08 677.837 954.44 677.433 955.085 676.912 955.46 678.735 957.31 675.466 959.239 677.676 960.969 678.118 962.403 676.299 962.19 676.138 963.261 677.275 965.235 675.83 968.718 678.961 969.323 679.763 970.448 678.961 972.058 677.676 972.151 675.466 971.735 672.575 971.629 671.492 974.042 669.982 976.547 671.16 980.234 670.41 983.158 655.983 980.635 642.988 974.711 631.346 965.111 637.849 958.047 646.801 951.091 651.461 943.488ZM796.596 942.012C794.027 953.929 787.925 965.111 780.778 975.555 778.048 978.895 775.653 982.502 772.655 985.746 771.665 983.278 771.785 979.873 769.603 977.608L768.332 977.944C766.581 981.404 763.114 984.339 763.528 988.361 760.932 992.49 754.429 989.003 750.506 991.189 745.888 992.61 743.36 988.011 739.68 987.047 735.572 985.331 730.834 985.224 726.904 983.165 726.784 982.173 727.319 981.411 728.189 981.075 737.731 981.957 746.779 984.05 755.289 987.308 757.457 987.308 759.894 987.054 761.271 985.444 760.706 981.854 765.043 980.244 764.628 976.637 766.489 973.592 765.135 969.343 767.76 966.755 768.092 962.946 767.571 958.71 765.135 955.813 762.806 954.272 760.637 956.215 758.376 956.537 755.728 958.521 756.704 964.27 752.154 963.052 751.071 964.579 749.023 964.579 747.471 964.15 747.149 963.587 746.402 963.495 746.614 962.863 749.865 961.185 755.607 962.297 756.05 957.069 758.458 955.007 762.138 955.889 764.412 953.383 766.002 950.795 766.807 948.478 769.055 946.117 769.294 945.032 769.709 943.962 769.603 942.754 770.261 944.281 770.261 946.333 772.2 947.205 774.69 947.94 775.787 945.904 776.911 944.281 776.763 943.409 777.448 942.108 778.384 942.952 781.1 945.136 784.914 943.313 788.072 943.488 790.748 942.602 793.691 942.105 796.596 942.012ZM728.107 941.882C728.619 941.596 729.202 941.569 729.991 942.012 729.724 942.534 729.244 943.083 729.484 943.714 731.677 945.671 734.85 946.007 735.452 949.278 734.85 950.689 736.898 952.539 734.702 953.194 730.834 953.702 732.64 947.857 728.412 948.475 727.045 947.095 726.805 944.922 726.644 943.313 727.153 942.715 727.595 942.169 728.107 941.882ZM443.285 941.655C446.19 960.989 438.537 978.054 436.769 996.41 435.258 1011.52 437.506 1026.39 443.809 1038.87 445.122 1042.77 448.668 1046.04 449.551 1049.82 443.933 1044.74 440.25 1038.02 436.022 1031.92 418.114 1002.17 379.52 983.171 376.896 947.201 375.611 963.168 376.255 980.422 382.299 994.347 396.633 1034.73 440.647 1055.7 472.982 1077.77 469.943 1070.05 465.287 1062.89 462.999 1054.84 454.218 1018.05 458.983 975.668 443.285 941.655ZM921.499 937.763 916.599 950.795C903.512 989.648 913.951 1038.24 892.672 1073.66L892.672 1074.89C906.537 1064.14 921.177 1055.37 935.59 1045.93 970.614 1022 994.25 984.994 987.864 942.764 985.363 968.076 966.184 986.751 947.328 1004.97 935.175 1018.04 927.011 1032.59 916.599 1046.24L915.315 1046.24C923.023 1034.54 927.789 1021.5 928.59 1006.82 929.286 982.502 918.796 961.964 921.499 937.763ZM641.021 934.396 644.715 936.246C641.381 936.459 639.497 939.785 636.886 941.648L636.55 941.435C638.531 939.465 640.339 937.09 641.021 934.396ZM607.001 925.839C609.584 929.069 616.529 925.369 616.529 931.564 616.957 931.887 617.615 931.753 618.136 931.753 618.992 930.816 619.14 930.682 620.198 931.245 620.746 932.305 623.357 932.855 621.267 934.152 622.041 936.431 623.997 938.645 626.512 939.047 626.591 940.121 627.903 941.14 629.082 940.389 630.301 938.727 626.512 935.923 629.27 934.945 631.062 936.891 630.178 940.121 631.103 942.427 632.028 943.604 632.374 945.039 632.162 946.649 629.219 950.239 625.083 953.39 623.035 957.306 621.055 952.415 616.745 948.485 614.764 943.484 611.657 937.866 610.026 931.43 607.001 925.839ZM508.859 912.457C508.482 914.077 508.671 916.143 508.537 918.542L508.335 918.233C507.516 918.865 508.975 919.184 508.856 919.829 509.458 931.358 511.504 942.204 514.115 952.851L515.625 955.222C513.31 953.184 512.467 950.692 510.74 948.492 508.239 948.921 505.481 949.498 503.662 951.107 504.882 954.258 501.709 953.294 500.291 954.179 499.89 953.39 499.02 952.545 498.15 952.089 495.875 952.199 493.48 952.425 492.476 954.718 492.849 956.338 490.989 957.076 490.335 958.377 489.667 963.285 488.032 969.652 491.592 973.729 491.725 977.282 493.48 980.566 496.035 982.846 497.159 983.086 497.666 982.176 498.444 981.84 501.414 984.036 502.888 989.36 507.249 988.368 508.534 987.723 508.092 986.436 508.534 985.457 510.822 987.723 511.932 992.387 516.122 991.985 517.205 993.056 517.767 995.016 519.48 995.095 524.071 993.914 522.399 1000.35 525.797 1002.17 528.408 1003.78 529.761 1007.69 533.547 1005.86L534.91 1004.24C536.103 1005.12 535.113 1007.24 536.181 1008.47 538.001 1011.93 541.721 1014.43 545.308 1015.39 548.399 1019.01 551.677 1023.22 555.384 1025.83L552.753 1026.93 531.18 1049.32C521.343 1035.94 510.062 1023.03 502.38 1008.71 486.734 979.681 477.542 948.066 475.801 913.342L505.94 913.555ZM551.242 912.436C550.358 917.234 550.174 924.192 553.692 928.389 552.448 927.088 550.708 923.282 547.899 923.388 542.359 923.711 541.958 931.018 536.391 931.259 531.786 935.027 531.169 940.375 530.206 945.578 532.173 947.658 528.682 949.71 529.912 952.082 526.955 952.401 527.692 955.686 526.513 957.31 526.757 949.71 523.355 942.321 522.419 934.626L520.052 914.622 518.723 912.769C528.278 914.139 538.772 913.322 548.861 913.548ZM561.154 912.021C564.378 914.393 567.749 913.631 571.524 912.985 566.183 914.729 568.164 921.229 566.077 925.266 565.81 927.222 568.701 927.734 568.393 929.69 565.81 931.018 565.488 933.847 564.258 935.913 565.81 928.619 562.946 921.782 562.692 914.622ZM814.059 911.709 816.467 912.447C826.53 912.299 836.821 912.968 846.579 912.018L845.092 913.747C842.591 952.964 828.911 988.358 801.571 1017.26 802.777 1013.45 799.163 1010.2 799.738 1006.07 797.008 1003.45 796.915 998.345 792.163 998.438 790.533 998.253 789.93 999.78 789.93 1001.08 789.782 1001.82 790.09 1002.7 789.57 1003.24L779.734 994.539C784.325 992.181 787.843 985.852 791.389 981.294 800.516 968.584 805.83 954.372 810.407 939.798 811.894 941.034 813.819 941.14 815.368 940.117 816.759 938.95 817.135 936.658 816.091 935.131L812.572 931.242C812.976 924.727 814.741 918.319 814.059 911.709ZM652.795 911.179 652.745 911.702 652.613 911.733ZM855.695 911.135 857.501 912.45 888.445 912.254 890.065 911.465 888.739 914.066C886.677 964.867 867.82 1008.79 834.618 1046.71L833.776 1048.34C826.989 1040.82 817.876 1031.03 809.605 1024.53 814.652 1021.15 818.4 1015.31 822.36 1010.56 843.009 982.152 855.055 950.229 856.754 914.07ZM783.413 910.947C789.09 913.414 796.583 912.769 803.099 912.45 801.253 918.323 801.482 925.04 799.981 931.005 799.649 931.997 799.649 933.191 799.019 934.156 797.145 930.469 795.593 925.561 791.389 923.402 787.843 921.432 790.08 916.565 786.733 914.286ZM644.958 904.408C647.345 905.875 646.934 911.507 649.277 912.534L652.613 911.733 651.241 915.923 650.357 915.923C650.734 914.622 649.662 913.764 648.846 913.335 646.345 913.428 644.31 915.268 641.782 914.622 638.291 915.398 634.436 916.044 630.849 916.15 630.394 914.06 633.659 914.702 634.303 912.772 633.755 909.529 635.923 907.583 637.328 905.184 638.184 904.274 639.846 904.57 640.809 904.971 641.707 905.815 642.59 906.581 643.807 906.258ZM591.855 896.428C593.369 896.674 594.66 897.411 595.229 899.208 595.924 903.324 597.021 907.775 595.469 912.024 598.278 913.081 595.709 915.59 595.709 917.44 593.996 918.23 592.361 919.922 590.275 919.277 589.432 917.883 587.904 915.388 585.818 915.59 584.197 917.883 586.472 920.269 586.218 922.884 585.643 924.411 586.057 926.127 585.109 927.308 584.303 926.797 583.567 926.491 582.484 926.584 580.613 927.562 581.802 929.491 582.272 930.685 584.201 931.893 585.646 933.757 587.908 933.836L588.99 932.535C588.747 929.065 590.381 926.344 590.515 922.884L593.646 924.494C596.575 937.952 602.639 950.236 610.348 961.765L614.442 965.907C604.592 974.474 594.958 984.692 586.606 994.343L586.606 994.556C586.472 994.141 586.218 992.387 584.865 993.043 583.981 988.886 590.806 990.105 589.549 985.454L588.452 978.696C582.268 973.173 584.194 963.601 583.245 956.534 578.897 953.047 582.364 947.417 579.312 943.501 579.459 937.227 569.555 935.027 572.58 928.07 571.377 926.34 569.917 924.061 571.322 921.902 573.251 919.582 577.465 922.115 578.791 918.724L579.634 912.985C581.922 911.698 585.16 914.622 586.397 911.461 588.565 906.045 578.356 899.394 587.147 896.593 588.605 896.426 590.341 896.182 591.855 896.428ZM677.652 868.747C679.104 868.597 680.489 868.781 681.352 869.753L683.158 870.717C680.883 870.851 678.313 869.416 676.361 871.077 675.007 872.046 675.932 873.785 676.361 874.98 680.266 876.494 681.112 882.919 686.33 880.424 688.485 880.839 691.188 881.268 691.952 883.787 695.097 884.982 695.498 890.518 699.754 889.286 699.568 891.376 698.924 894.969 701.387 896.593 700.719 898.443 698.38 899.208 698.458 901.607 697.897 902.198 697.413 903.324 697.989 904.182 702.032 904.624 701.843 909.196 703.676 911.702 702.833 914.811 703.906 918.11 706.581 919.84 706.181 923.529 704.55 926.694 702.943 929.924 698.702 931.99 691.73 926.8 690.229 934.402 687.848 936.99 689.879 942.757 685.224 942.969 676.364 943.598 668.121 941.655 661.296 936.465 665.74 934.145 673.315 937.323 674.788 930.685 676.059 929.707 676.46 927.977 675.939 926.584 678.029 924.494 678.724 921.786 679.848 919.29 678.228 917.694 678.951 916.768 679.286 914.811 674.792 910.267 668.796 912.625 663.174 912.772 659.775 914.705 663.013 918.419 660.793 920.79 656.39 921.339 656.27 925.575 653.273 928.07 651.56 927.305 650.247 924.947 650.354 923.176L650.916 923.176C650.73 924.061 651.238 924.84 651.974 925.053 656.068 925.712 654.784 921.03 656.068 918.954 656.75 916.366 662.814 912.772 657.956 910.964 657.689 909.824 658.559 908.427 657.154 907.772 655.671 908.427 653.18 908.427 652.94 910.734L652.795 911.179 653.351 905.322C653.476 903.16 653.708 901.041 654.592 899.205 653.184 895.718 656.88 894.324 657.963 891.898 661.31 892.258 660.974 888.438 662.406 886.708 667.494 885.18 672.928 883.972 676.152 878.57 674.798 875.848 675.737 871.932 673.551 869.753 674.682 869.384 676.2 868.898 677.652 868.747ZM384.741 857.277C381.288 864.639 379.815 872.924 377.968 880.942 374.087 901.724 377.886 923.739 383.666 942.76 390.573 966.652 413.938 983.694 425.823 1005.52L427.457 1006.82C425.706 994.982 424.822 982.162 428.207 970.901 433.292 952.721 439.154 935.034 443.035 916.36 445.139 901.717 448.657 885.401 446.944 871.297 445.015 878.859 442.717 886.245 438.807 892.883 422.668 917.327 406.634 946.34 417.796 977.605 417.501 977.927 417.155 978.38 416.713 978.154 412.283 967.847 411.482 955.981 408.35 945.039 400.881 915.597 378.092 891.184 384.741 857.277ZM979.069 852.839C983.941 879.452 972.005 901.707 962.395 923.721 955.652 939.047 953.484 956.342 949.16 972.738L947.834 974.227 947.314 973.705C948.801 966.532 951.315 959.709 950.647 951.571 952.518 918.106 923.225 897.551 916.599 867.693L916.36 878.876C918.795 908.105 926.504 935.134 935.258 961.734 940.369 974.138 938.817 990.211 937.639 1003.26 948.184 986.751 961.943 971.601 973.331 955.46 989.31 926.124 993.685 884.227 979.069 852.839ZM675.028 829.887C674.798 837.702 674.223 846.527 676.672 853.604 673.969 850.199 670.17 854.448 666.836 853.055 666.182 851.527 668.028 849.863 666.288 848.926 661.31 851.219 663.184 856.727 659.785 860.334 659.251 863.111 655.558 861.718 653.79 863.245 652.505 861.179 649.908 861.285 648.062 862.493 645.478 862.493 645.009 857.184 642.347 859.892 641.545 860.75 641.987 862.655 639.938 861.93 639.524 861.179 638.746 861.1 638.184 860.63 638.078 859.02 640.915 859.247 639.938 857.29 637.945 853.793 633.758 854.342 631.12 851.727L628.777 851.727C641.545 838.159 657.603 832.18 675.028 829.887ZM687.08 829.033C691.202 830.536 695.779 830.642 700.116 831.662 711.199 834.449 721.289 839.652 731.005 845.765 728.741 846.489 726.346 849.197 724.527 850.992 724.407 852.925 726.562 852.389 727.418 853.608L729.481 852.842C726.137 861.289 714.865 859.988 713.649 869.012 711.922 869.653 710.049 870.834 708.123 869.976 706.273 868.043 703.919 865.418 700.921 865.095 698.794 865.645 697.413 868.219 694.898 866.825 698.794 862.549 705.742 861.838 708.668 855.955 709.551 853.141 710.353 850.206 709.994 847.282 708.87 845.981 707.236 844.787 705.845 845.981 703.69 849.602 698.726 850.323 696.382 854.105L688.633 851.531C687.348 844.33 689.167 835.228 687.08 829.033ZM593.43 825.422C600.91 832.836 608.94 841.402 617.385 847.81 611.232 848.04 611.109 857.184 604.592 856.981 601.567 858.67 599.186 861.714 597.312 864.529 594.743 866.18 591.371 866.032 589.203 869.008 589.203 870.202 590.625 871.702 588.99 872.588 586.472 875 581.282 871.932 580.117 876.476 579.634 880.499 574.909 882.778 575.204 887.23 572.58 888.997 573.035 892.378 573.357 895.045 574.817 896.816 572.741 899.953 575.204 901.254 570.976 900.718 565.488 900.032 561.647 901.803 563.737 896.895 563.079 890.837 564.258 885.62 568.273 863.111 578.497 843.362 593.43 825.422ZM769.819 824.351C774.834 830.546 780.686 836.738 784.324 843.671 785.236 847.828 777.205 852.142 784.146 854.895 787.761 855.633 789.916 859.895 793.475 860.634 796.689 865.634 797.892 871.424 799.498 877.043 796.593 880.276 796.367 887.57 790.077 886.375 788.604 882.902 792.914 880.836 791.869 877.606 793.02 876.71 794.746 876.254 795.082 874.644 794.866 871.428 790.731 872.042 790.077 868.665 788.806 866.828 786.623 867.059 784.91 866.413 780.775 864.44 776.907 874.764 775.797 866.626 777.096 865.541 777.87 863.863 776.907 862.483 773.32 860.541 772.988 855.526 769.065 853.621 763.751 853.704 758.869 851.287 753.675 852.496 750.342 851.73 746.395 849.465 743.839 853.031 743.599 855.739 742.153 858.046 741.766 860.634 740.509 860.005 739.44 858.784 738.823 857.51 748.341 846.836 759.301 836.082 769.298 825.693ZM562.367 794.175C569.342 802.326 577.051 809.942 585.266 817.075 563.932 840.119 553.12 867.7 550.711 898.67 551.112 899.744 550.818 901.017 552.01 901.82L549.2 900.708 519.476 901.271C522.18 868.02 531.307 837.507 550.485 811.147L562.209 796.21ZM686.766 786.044C698.729 787.842 710.72 789.503 721.721 793.392 735.812 798.434 748.752 806.009 760.706 815.993L763.316 817.064 757.855 820.229C752.127 826.719 744.727 832.592 739.924 839.456L739.146 837.15C724.907 825.552 708.445 819.762 690.486 817.28L687.636 817.83 687.862 788.415ZM675.391 785.807C674.226 796.344 674.226 807.605 675.391 817.823 669.769 816.563 664.414 819.137 659.049 819.7 646.924 822.755 636.259 829.485 625.953 836.834 625.416 837.716 624.854 838.482 624.32 839.206 616.827 832.595 609.492 823.345 601.221 817.648 622.123 800.339 646.027 788.862 673.568 786.878ZM416.71 778.177C416.189 778.098 415.826 778.527 415.466 778.753 400.45 797.871 389.826 818.811 390.521 844.461 388.38 876.075 408.693 898.344 410.964 928.088 415.593 897.012 441.316 874.767 455.18 847.618 460.052 836.745 463.759 824.907 465.164 813.217 463.156 818.149 459.891 822.546 456.051 826.743 438.16 843.033 417.765 859.751 413.856 883.334 413.243 886.711 412.999 890.209 412.037 893.429 411.235 893.748 411.235 892.879 410.968 892.677L413.136 863.461C413.859 834.888 400.248 803.274 416.71 778.177ZM944.916 773.845C952.518 784.396 953.83 797.645 954.042 811.332 950.538 836.508 949.479 863.231 953.052 888.771 953.052 889.2 952.61 889.522 952.169 889.522 950.161 882.778 950.346 874.99 946.988 868.675 938.814 843.911 908.888 832.262 896.79 809.791 898.503 819.591 901.556 828.909 905.116 837.946 916.517 865.538 944.138 886.385 951.768 915.601 952.614 918.323 952.813 921.583 953.83 923.969 955.865 909.958 959.6 896.469 964.738 883.774 978.778 853.902 974.534 812.42 955.303 786.342 952.011 782.117 949.791 776.674 944.916 773.845ZM532.817 763.096 533.554 766.044C540.995 773.31 548.327 781.033 555.381 787.643 549.293 791.799 545.706 798.719 540.861 804.283 521.429 831.847 510.401 862.682 508.328 897.341L509.065 901.604C498.211 900.719 486.422 900.719 475.606 901.607 476.919 894.956 476.089 888.239 477.319 881.711 482.859 836.834 501.891 797.524 532.817 763.096ZM830.977 762.348C863.284 798.826 883.868 840.229 887.989 888.562 888.551 892.262 887.694 896.7 889.743 899.73L858.494 900.307C857.744 900.829 856.888 901.258 855.925 901.258L856.754 899.984C856.11 875.437 849.714 853.381 840.292 832.506 839.973 823.16 830.98 816.9 827.071 808.707 820.109 803.946 818.05 795.459 810.181 791.223 808.643 789.586 807.988 786.878 805.672 786.342L809.403 785.584C816.872 777.872 824.981 770.393 830.977 762.348ZM674.802 743.851C673.73 754.082 674.641 764.832 675.028 775.184 669.45 773.966 663.667 775.894 657.966 776.471 633.758 781.472 611.342 791.782 592.886 809.479L592.122 807.402C584.865 800.713 578.27 792.198 570.226 787.118 577.157 782.989 583.327 776.9 590.059 772.236 615.271 755.277 643.389 745.728 674.802 743.851ZM686.577 742.808C690.592 744.967 694.902 743.975 699.558 744.644 718.538 746.947 735.333 752.123 752.154 759.739 754.669 763.504 759.489 765.368 760.157 770.156 757.667 776.804 768.935 776.684 763.851 783.401 763.529 785.587 765.361 786.768 766.098 788.415 766.807 790.252 765.831 793.056 767.972 794.168 771.936 795.012 773.515 789.812 777.448 791.219 782.509 794.906 783.591 801.005 783.591 806.651 784.218 810.231 787.285 812.616 790.416 813.944 796.84 811.961 793.787 819.134 798.203 820.984 803.195 821.629 805.669 828.051 811.277 827.488 816.097 831.216 818.838 836.645 823.175 840.774 823.056 841.766 823.618 842.624 824.474 842.933 827.068 843.575 828.702 841.766 830.977 841.632 839.353 858.766 843.451 877.805 845.095 897.877L846.058 899.953C835.526 899.861 825.008 900.049 814.261 900.705 813.939 894.523 814.408 887.995 810.928 883.008 812.654 879.737 812.986 875.512 812.747 871.826 812.092 870.202 810.688 871.623 809.937 871.826 806.47 875.176 806.056 879.868 804.182 883.784 801.239 887.995 800.851 894.455 802.537 899.229L803.863 900.516 791.711 900.29C794.681 898.44 789.21 894.836 792.167 891.912L797.72 890.841C799.396 886.804 803.757 883.897 803.623 879.109 806.059 876.158 808.173 872.351 806.474 868.476 803.867 862.483 810.931 856.412 805.511 850.766 806.059 849.142 804.826 846.743 802.9 846.836 801.16 846.314 799.166 846.836 799.166 844.464 800.197 842.937 802.698 841.42 802.15 839.02 800.851 837.397 798.762 838.777 797.117 838.684 796.713 836.086 801.557 833.268 797.33 830.869 794.465 830.316 792.821 834.044 789.93 832.678 788.604 831.658 787.6 829.808 788.806 828.254L782.303 820.249C781.645 819.46 779.775 820.651 779.72 819.137 780.138 812.757 772.333 809.163 771.933 802.741 769.524 800.583 771.45 796.533 768.332 794.683 766.568 793.409 764.639 791.882 762.23 792.833 759.489 788.971 756.368 785.165 752.716 781.678 751.634 781.369 750.846 782.025 750.349 782.642 750.846 785.687 754.429 787.417 754.203 790.794 753.655 790.701 753.251 790.794 752.877 791.223 753.333 794.401 755.848 796.865 757.855 799.052 740.91 785.9 720.81 779.076 699.558 775.603 695.423 775.497 691.205 773.726 687.084 775.16 688.102 765.694 687.392 754.941 687.622 744.833ZM462.56 738.679C451.518 741.483 441.641 748.213 433.96 757.865 416.069 776.66 417.902 805.566 420.403 830.879 420.951 838.695 419.293 846.07 419.841 853.336 425.063 842.624 434.227 833.052 443.837 824.684 466.898 808.353 491.106 785.587 491.428 756.574 483.935 777.449 461.371 786.246 446.061 800.363 438.297 808.085 432.034 816.948 428.447 826.427L427.872 825.971C429.718 817.658 433.49 810.124 435.673 802 442.501 779.934 441.161 753.413 462.56 738.679ZM898.055 734.749C906.647 740.515 913.043 749.524 916.363 758.654 922.681 779.704 925.812 801.987 935.073 821.736L934.511 822.326C931.057 816.762 929.289 810.004 923.883 805.123 907.826 784.063 879.879 778.513 869.495 753.427 872.065 768.402 876.587 782.546 887.132 794.171 905.239 813.732 931.564 825.25 943.942 849.65L944.169 849.461C939.526 826.427 946.848 804.169 941.788 781.352 937.437 761.136 919.145 739.094 898.055 734.749ZM521.097 709.141C499.458 717.587 475.168 725.605 462.039 748.557 452.834 760.919 452.591 777.006 446.061 790.468 458.144 779.165 471.673 770.478 482.301 757.354 494.104 740.848 505.159 723.137 521.097 709.141ZM838.98 706.062 856.994 724.335C871.753 747.894 892.672 770.296 915.757 786.881L913.187 780.82C908.49 761.699 901.319 743.213 885.406 728.986 871.876 716.812 854.825 712.789 838.98 706.062ZM674.637 699.558 673.74 702.575 674.076 728.677 675.024 731.265C632.775 733.221 595.917 749.095 564.254 777.974L563.734 779.478C556.467 771.673 548.33 762.635 539.728 756.378L538.803 756.378C545.521 752.438 551.369 745.505 558.019 740.933 592.334 716.17 631.034 701.288 674.637 699.558ZM686.762 698.473C693.347 700.54 701 699.894 707.88 701.089 751.308 707.054 790.211 724.339 822.932 755.589L819.304 757.13C813.295 763.525 806.378 768.769 802.897 776.155 802.455 774.065 799.389 772.696 798.453 770.712 797.813 764.76 792.057 759.077 786.945 756.032 782.704 755.28 781.751 748.886 776.534 750.829 772.197 747.139 766.804 749.851 762.562 751.927L762.562 752.449C741.952 740.718 718.946 733.465 694.121 731.615 692.997 731.615 692.302 732.583 691.003 732.394 692.302 731.522 691.648 728.893 691.486 727.352 690.859 726.305 689.626 724.963 688.102 725.876 687.512 726.614 687.084 727.459 687.084 728.423 687.714 718.796 688.102 707.051 686.762 698.473ZM682.428 687.85C646.681 688.492 613.829 696.445 583.796 711.286 530.33 736.829 486.648 792.307 472.101 847.251 448.147 939.798 480.56 1033.58 559.814 1087.95 616.826 1128.91 707.722 1136.75 771.665 1105.37 828.489 1081.46 877.282 1022.68 892.151 964.575 906.763 915.398 900.353 855.413 877.817 811.854 842.245 736.036 764.169 687.957 682.428 687.85ZM275.428 531 1089 531 1089 1346.24 275.428 1346.24Z" fill="#0063AC" fill-rule="evenodd" fill-opacity="1"/></g></g></svg>